<svg xmlns="http://www.w3.org/2000/svg" width="93.424" height="85.639" viewBox="0 0 93.424 85.639"><defs><style>.a{fill:#284fd1;}</style></defs><g transform="translate(0 -21.333)"><g transform="translate(0 21.333)"><g transform="translate(0 0)"><path class="a" d="M25.031,71.415a1.946,1.946,0,0,0,2.751.095L54.006,47.033l21.3,5.325A3.893,3.893,0,0,0,79,51.334L95.716,34.623v.334A1.945,1.945,0,0,0,97.662,36.9h3.893a1.946,1.946,0,0,0,1.946-1.946V23.279a1.946,1.946,0,0,0-1.946-1.946H89.877a1.946,1.946,0,0,0-1.946,1.946v3.893a1.945,1.945,0,0,0,1.946,1.946h.334L75.059,44.271l-21.22-5.3a3.891,3.891,0,0,0-3.6.93L22.468,65.818a1.946,1.946,0,0,0-.095,2.751Z" transform="translate(-17.862 -21.333)"/><path class="a" d="M91.478,203.83H89.531V151.279a1.945,1.945,0,0,0-1.946-1.946H75.907a1.945,1.945,0,0,0-1.946,1.946V203.83H66.175V166.85a1.945,1.945,0,0,0-1.946-1.946H52.551A1.945,1.945,0,0,0,50.6,166.85v36.98H42.819V162.957a1.945,1.945,0,0,0-1.946-1.946H29.194a1.945,1.945,0,0,0-1.946,1.946V203.83H19.463V190.206a1.945,1.945,0,0,0-1.946-1.946H5.839a1.945,1.945,0,0,0-1.946,1.946V203.83H1.946A1.945,1.945,0,0,0,0,205.777v3.893a1.945,1.945,0,0,0,1.946,1.946H91.478a1.945,1.945,0,0,0,1.946-1.946v-3.893A1.946,1.946,0,0,0,91.478,203.83Z" transform="translate(0 -125.977)"/></g></g></g></svg>