<svg xmlns="http://www.w3.org/2000/svg" xmlns:xlink="http://www.w3.org/1999/xlink" width="140.441" height="143.199" viewBox="0 0 140.441 143.199"><defs><style>.a{fill:#707082;}.b{fill:#fcfcfc;}.c{fill:#8c8c8c;}.d{fill:#2b2b35;}.e{fill:none;}.f{fill:#1d1d28;}.g{fill:#3f668c;}.h{fill:#00141e;}.i{fill:#1cd4f1;}.j{fill:url(#a);}.k{fill:#75cfe5;}.l{fill:#fff;}.m{fill:#002942;}.n{fill:url(#b);}.o{fill:url(#c);}.p{fill:url(#d);}.q{fill:url(#e);}.r{fill:url(#f);}.s{fill:url(#g);}.t{fill:url(#h);}.u{fill:url(#i);}.v{fill:url(#j);}.w{fill:url(#k);}.x{fill:url(#l);}.y{fill:url(#m);}.z{fill:url(#n);}.aa{fill:url(#o);}.ab{fill:url(#p);}.ac{fill:url(#q);}.ad{fill:url(#r);}.ae{fill:url(#s);}.af{fill:url(#t);}.ag{fill:url(#u);}.ah{fill:url(#v);}.ai{fill:url(#w);}.aj{fill:url(#x);}.ak{fill:url(#y);}.al{fill:url(#z);}.am{fill:#c0c0be;}.an{fill:url(#aa);}.ao{fill:url(#ab);}.ap{fill:url(#ac);}.aq{fill:url(#ad);}.ar{fill:url(#ae);}.as{fill:url(#af);}.at{fill:url(#ag);}</style><linearGradient id="a" x1="-0.015" y1="0.146" x2="0.971" y2="0.146" gradientUnits="objectBoundingBox"><stop offset="0" stop-color="#2e3192" stop-opacity="0"/><stop offset="1" stop-color="#002942"/></linearGradient><linearGradient id="b" x1="29.119" y1="-2.439" x2="29.636" y2="-2.439" xlink:href="#a"/><linearGradient id="c" x1="76.072" y1="33.997" x2="77.092" y2="33.997" xlink:href="#a"/><linearGradient id="d" x1="73.166" y1="0.716" x2="74.184" y2="0.716" xlink:href="#a"/><linearGradient id="e" x1="3.078" y1="-5.827" x2="4.329" y2="-5.827" xlink:href="#a"/><linearGradient id="f" x1="71.157" y1="-14.898" x2="75.054" y2="-14.898" xlink:href="#a"/><linearGradient id="g" x1="78.148" y1="11.556" x2="79.885" y2="11.556" xlink:href="#a"/><linearGradient id="h" x1="68.016" y1="10.372" x2="69.748" y2="10.372" xlink:href="#a"/><linearGradient id="i" x1="16.73" y1="-9.739" x2="19.427" y2="-9.739" xlink:href="#a"/><linearGradient id="j" x1="4.785" y1="48.694" x2="5.294" y2="48.694" xlink:href="#a"/><linearGradient id="k" x1="-0.91" y1="6.195" x2="-0.293" y2="6.195" xlink:href="#a"/><linearGradient id="l" x1="118.146" y1="13.942" x2="121.05" y2="13.942" xlink:href="#a"/><linearGradient id="m" x1="129.698" y1="14.923" x2="132.632" y2="14.923" xlink:href="#a"/><linearGradient id="n" x1="1.885" y1="-6.649" x2="2.958" y2="-6.649" xlink:href="#a"/><linearGradient id="o" x1="5.109" y1="47.156" x2="5.665" y2="47.156" xlink:href="#a"/><linearGradient id="p" x1="4.773" y1="-3.049" x2="6.196" y2="-3.049" xlink:href="#a"/><linearGradient id="q" x1="6.258" y1="51.842" x2="6.775" y2="51.842" xlink:href="#a"/><linearGradient id="r" x1="153.934" y1="-35.888" x2="156.951" y2="-35.888" xlink:href="#a"/><linearGradient id="s" x1="140.925" y1="-28.534" x2="143.941" y2="-28.534" xlink:href="#a"/><linearGradient id="t" x1="140.341" y1="-35.318" x2="141.751" y2="-35.318" xlink:href="#a"/><linearGradient id="u" x1="-5.047" y1="11.795" x2="-3.882" y2="11.795" xlink:href="#a"/><linearGradient id="v" x1="-0.279" y1="-2.062" x2="0.686" y2="-2.062" xlink:href="#a"/><linearGradient id="w" x1="1.867" y1="60.595" x2="2.716" y2="60.595" xlink:href="#a"/><linearGradient id="x" x1="60.483" y1="-67.911" x2="60.892" y2="-67.911" xlink:href="#a"/><linearGradient id="y" x1="39.226" y1="-11.878" x2="39.98" y2="-11.878" xlink:href="#a"/><linearGradient id="z" x1="18.37" y1="162.936" x2="18.793" y2="162.936" xlink:href="#a"/><linearGradient id="aa" x1="27.398" y1="-8.572" x2="27.916" y2="-8.572" xlink:href="#a"/><linearGradient id="ab" x1="69.21" y1="19.885" x2="70.23" y2="19.885" xlink:href="#a"/><linearGradient id="ac" x1="65.07" y1="7.383" x2="66.807" y2="7.383" xlink:href="#a"/><linearGradient id="ad" x1="112.573" y1="-35.47" x2="115.59" y2="-35.47" xlink:href="#a"/><linearGradient id="ae" x1="26.685" y1="-7.215" x2="27.439" y2="-7.215" xlink:href="#a"/><linearGradient id="af" x1="20.059" y1="152.087" x2="20.482" y2="152.087" xlink:href="#a"/><linearGradient id="ag" x1="6.998" y1="49.959" x2="7.324" y2="49.959" xlink:href="#a"/></defs><path class="a" d="M388.663,282.751l-8.42,22.5L271.5,287.637l9.886-18.737,107.565,11.667" transform="translate(-267.017 -263.698)"/><path class="b" d="M316.657,306.3l-4.857,9.455,8.018,1.264,4.972-9.426" transform="translate(-295.736 -290.351)"/><path class="b" d="M560.139,338.5,555.8,350.167l10.374,1.466,4.311-11.84" transform="translate(-469.616 -313.297)"/><path class="b" d="M273.6,285.751l10.805-15.375L385.274,281.9l-3.563,21.381,9.11-24.14L282.681,267.1" transform="translate(-268.513 -262.416)"/><path class="c" d="M317.694,311.445l8.161-2.845,2.328.4-.632,1.581-11.351,3.65" transform="translate(-298.871 -291.99)"/><path class="c" d="M311.746,325.392,323.1,321.8l-.948,1.379L311.2,326.6" transform="translate(-295.308 -301.396)"/><path class="c" d="M555.8,361.077l12.5-2.558,1.121-3.42-12.415,2.989" transform="translate(-469.616 -325.127)"/><path class="c" d="M563.6,348.076l12.242-2.586.259-.69-12.5,2.5" transform="translate(-475.174 -317.787)"/><path class="d" d="M660.163,312.3,651.8,336.181,674.531,369.8l3.132-20.318" transform="translate(-538.028 -294.626)"/><path class="e" d="M298.3,281.4" transform="translate(-286.115 -272.606)"/><path class="f" d="M310.845,366.291,270.9,333.3,380.132,351l23.076,34.744Z" transform="translate(-266.589 -309.591)"/><path class="g" d="M348.7,378.73,321.4,356.2l92.248,14.944,16.438,24.743Z" transform="translate(-302.577 -325.911)"/><path class="e" d="M270.9,286.837l9.914-18.737,108,11.955-8.679,24.484,23.076,34.744,3.3-20.835-17.7-38.393" transform="translate(-266.589 -263.128)"/><path class="e" d="M381.8,366l14.139,12.472-4.2,7.242" transform="translate(-345.619 -332.894)"/><line class="e" x2="70.12" y2="13.765" transform="translate(50.319 45.578)"/><line class="e" x2="100.438" y2="13.219" transform="translate(14.829 15.26)"/><line class="e" x1="6.322" y2="17.846" transform="translate(95.524 23.709)"/><line class="e" x1="6.351" y2="17.846" transform="translate(85.379 21.352)"/><line class="e" x1="8.909" y2="16.898" transform="translate(14.369 11.581)"/><path class="e" d="M336.4,349.9" transform="translate(-313.266 -321.421)"/><path class="h" d="M499.761,451.648l-82.161-17.3.086-.345.345-.6,79.517,16.754-6.294-9.455.23.057.172-1.006.144-.086Z" transform="translate(-371.131 -380.925)"/><path class="h" d="M500.669,421.278l.776,1.178L431.9,408.835l.4-.661-.4-.374Z" transform="translate(-381.322 -362.682)"/><path class="h" d="M649.259,394.006l-.259-.374.23-.632.632.086.115.2.144.2,22.243,33.422h0l.431.661-.259.172-.977-.2h0Z" transform="translate(-536.033 -352.135)"/><path class="h" d="M609.093,387.147l.259.374L593,384.877l.345-.977,15.978,2.615Z" transform="translate(-496.126 -345.65)"/><path class="h" d="M457.258,377.447l-72.965-11.811L383,364.486V364.4l74.833,12.127.144.2,9.167,13.765-.144.086-1.178-.23Z" transform="translate(-346.475 -331.754)"/><path class="h" d="M605.779,341.544l-.374.948-1.006-.115.345-.977Z" transform="translate(-504.249 -315.364)"/><path class="h" d="M595.643,344.915l-3.937,11.121-1.006-.144,3.937-11.093Z" transform="translate(-494.487 -317.787)"/><path class="h" d="M581.3,338.336l-.345.977-9.455-1.264.345-.948Z" transform="translate(-480.804 -312.299)"/><path class="h" d="M590.851,383.544l-.345.977-1.006-.172.345-.948Z" transform="translate(-493.631 -345.294)"/><path class="h" d="M566.613,379.623l-.345.948-9.368-1.494.345-.977Z" transform="translate(-470.4 -341.517)"/><path class="h" d="M569.279,336.744l-.345.948-1.035-.115.345-.977Z" transform="translate(-478.239 -311.943)"/><path class="h" d="M559.457,340.115l-3.851,10.834-1.006-.172L558.422,340Z" transform="translate(-468.761 -314.366)"/><path class="h" d="M554.751,377.672l-.345.977-1.006-.172.345-.977Z" transform="translate(-467.906 -341.089)"/><path class="h" d="M401.813,352.914l-.345.977L340.2,343.948l.517-.948Z" transform="translate(-315.974 -316.504)"/><path class="h" d="M430.7,408.706l.2-1.006.144.029.4.374-.4.661Z" transform="translate(-380.467 -362.611)"/><path class="h" d="M394.737,379.727,381,367.6l1.868.316,12.759,11.236-.144-.029-.2,1.006.345.057-3.678,6.322-.546-.115-.374-.287Z" transform="translate(-345.049 -334.035)"/><path class="h" d="M416.107,432.4l-.345.6-.862-.489.287-.517.374.287Z" transform="translate(-369.207 -379.928)"/><path class="h" d="M407.992,446.286l91.041,19.168h0l.4.6-.517.4-91.069-19.168-.316-.086-.086-.057-.546-.46.776-.489.2.057Z" transform="translate(-363.506 -390.047)"/><path class="h" d="M382.583,365.849l-1.868-.316-.115-.086.69-.747Z" transform="translate(-344.764 -331.968)"/><path class="h" d="M356.052,308.715l-.489.977-1.063-.144.489-.948Z" transform="translate(-326.165 -291.99)"/><path class="h" d="M344.019,312.044l-4.655,8.794-1.063-.144,4.655-8.794Z" transform="translate(-314.62 -294.341)"/><path class="h" d="M337.315,306.248l-.489.948-7.127-.948.489-.948Z" transform="translate(-308.492 -289.638)"/><path class="h" d="M338.152,342.644l-.517.948-1.035-.172.489-.92Z" transform="translate(-313.409 -316.148)"/><path class="h" d="M319.7,339.65l-.489.92-7.012-1.121.489-.948Z" transform="translate(-296.021 -313.297)"/><path class="h" d="M327.481,304.944l-.488.948-1.092-.144.517-.948Z" transform="translate(-305.784 -289.282)"/><path class="h" d="M315.8,308.244l-4.541,8.592-1.063-.172,4.512-8.564Z" transform="translate(-294.595 -291.633)"/><path class="h" d="M344.038,377.137,315.3,353.4l19.455,3.161h0v.086l-.69.747.115.086-15.375-2.471,25.4,20.978-.287.517.862.489-.086.345-.575-.115Z" transform="translate(-298.23 -323.915)"/><path class="h" d="M310.052,338.072l-.488.948-1.063-.172.489-.948Z" transform="translate(-293.384 -312.87)"/><path class="h" d="M271.114,332.751l9.024,1.466.489-.948-10.518-1.7-.316.6-.891-.46.172-.316-.374.69,39.715,32.79.776-.488.2.057.115.029Z" transform="translate(-265.022 -308.237)"/><path class="h" d="M388.715,278.7l-.172-.46L279.886,266.2,270,284.937l1.035.172,9.426-17.846,107.019,11.869-8.334,23.507.632.086.115.2.144.2,8.19-23.076,17.128,37.1-3.075,19.4h0l.431.661.374-.259v.546l.057.029,3.219-20.375.029-.144Z" transform="translate(-265.948 -261.774)"/><path class="h" d="M270.607,331.572l-.316.6-.891-.46.172-.316Z" transform="translate(-265.52 -308.237)"/><path class="h" d="M733.157,514.329l-.029.287-.029-.057V514.3Z" transform="translate(-595.964 -438.576)"/><path class="h" d="M733.129,515.257l-.029.144v-.2Z" transform="translate(-595.964 -439.218)"/><path class="h" d="M732.886,516.7v.345H732.8l.057-.316Z" transform="translate(-595.75 -440.287)"/><path class="h" d="M733.029,515.9v.23l-.029.029Z" transform="translate(-595.893 -439.717)"/><path class="h" d="M730.107,514.273v.2l-.029.259-.374.259-.4-.115-.4-.575.575-.4.431.086Z" transform="translate(-592.971 -438.291)"/><path class="h" d="M732.6,514.229v.259l-.2-.287Z" transform="translate(-595.465 -438.505)"/><path class="h" d="M732.174,512.4v.546l-.2-.029-.172-.259Z" transform="translate(-595.038 -437.223)"/><path class="h" d="M731.7,517.059l.374-.259-.058.316Z" transform="translate(-594.967 -440.358)"/><path class="h" d="M731.159,513.3l.172.259-.431-.086Z" transform="translate(-594.396 -437.864)"/><path class="h" d="M730.3,517.3l.4.115-.23.172Z" transform="translate(-593.969 -440.714)"/><path class="h" d="M727.617,515.3l.4.575-.92-.172Z" transform="translate(-591.688 -439.289)"/><path class="h" d="M728.477,513.4l-.575.4-.4-.6Z" transform="translate(-591.974 -437.793)"/><path class="h" d="M672.378,454.93l-.172,1.006-.23-.057L671.2,454.7Z" transform="translate(-551.853 -396.104)"/><g transform="translate(103.743 57.245)"><path class="i" d="M628.542,452.445,626.9,478.8l-8.1-1.063.2.345,12.9,20.231,6.638-35.606-9.914-10.6" transform="translate(-618.254 -451.497)"/><path class="j" d="M647,506.946,658.639,491.6l-6.466,34.543Z" transform="translate(-638.35 -479.645)"/><path class="k" d="M618.8,479.943l9.483-24.743-1.035,25.576" transform="translate(-618.254 -453.706)"/><path class="l" d="M619.8,477.475l8.047-18.162-.431,19.168,1.753-26.381" transform="translate(-618.967 -451.497)"/><path class="l" d="M648.6,507.275l10.805-13.507.345-1.868" transform="translate(-639.49 -479.859)"/><path class="m" d="M626.872,450.6,616.9,476.266l.23.374h0l13.076,20.318.517.8,6.955-36.123.029-.144.029-.172L627.1,450Zm-.115,2.155-1.408,24.226-7.587-1.006Zm-8.823,23.91,7.443.977,4.339,17.329Zm12.587,18.651-4.512-17.9,10.748-14.6Zm6.408-33.853-10.892,14.771,1.437-24.8Z" transform="translate(-616.9 -450)"/></g><g transform="translate(78.138 59.774)"><path class="i" d="M554.214,486.133,541.4,472.367l-.661,19.111-6.466-2.155L529.5,466.85l28.134-6.15.2.977Z" transform="translate(-529.011 -460.154)"/><path class="n" d="M541.4,472.367,557.634,460.7,529.5,466.85Z" transform="translate(-529.011 -460.154)"/><path class="k" d="M569.2,520.3l.316-19.4,13.277,13.967-12.9,5" transform="translate(-557.303 -488.801)"/><path class="k" d="M534.072,504.685l7.3-16.84L529.1,482.5" transform="translate(-528.726 -475.689)"/><path class="l" d="M581.647,517l-11.006,2.816L569.606,504.1,568.6,522.406" transform="translate(-556.875 -491.082)"/><path class="l" d="M541.921,488.9l-6.552,12.731L530.8,483.7l4.483,22.1,6.84-16.179" transform="translate(-529.938 -476.544)"/><path class="l" d="M541.611,485.576l-9.685-5.776-2.127.632" transform="translate(-529.225 -473.765)"/><path class="m" d="M532.743,488.084l.086.374,6.638,2.184.4-.144,13.622-5.4.057-.46L557.17,458.8l-.6.115-28.249,6.064-.2.029-.316.057Zm.833-.086,6.236-15.116-.69,16.955Zm6.236,1.782.718-17.961,12.041,12.9Zm16.524-29.83-3.391,24.14-12.185-13.047Zm-1.092-.057-14.656,10.432-.4.287-.144-.058L529.208,465.5Zm-15.461,11.265L533.2,487.078l-4.569-21.122Z" transform="translate(-527.8 -458.8)"/></g><g transform="translate(65.263 58.021)"><path class="i" d="M507.158,454.7l-10.748,4.483-.546,20.806L484.8,463.925l7.874-8.449" transform="translate(-484.283 -454.125)"/><path class="o" d="M496.778,461.107l-3.391-3.707-7.587,7.989,10.547-4.052" transform="translate(-484.995 -456.049)"/><path class="k" d="M523.789,479.688,535,454.6l-11.15,4.512-.546,20.806" transform="translate(-511.719 -454.054)"/><path class="l" d="M534.493,456.2l-9.541,18.22-.92-13.852L523.4,481.2" transform="translate(-511.79 -455.194)"/><path class="l" d="M496.347,470.1l-8.679,2.213-1.868,2.069" transform="translate(-484.995 -465.1)"/><path class="m" d="M495.012,478.822,506.881,452.7l-.661.029-14.484.776-.4.029-8.046,8.391-.287.287,11.7,17.243Zm0-1.609.23-19.139,10.461-4.339Zm9.4-23.68-9.426,3.937-2.816-3.247Zm-12.932.862,2.845,3.3-9.6,3.707Zm-7.529,8.047,10.6-4.109-.23,19.4Z" transform="translate(-483 -452.7)"/></g><g transform="translate(57.015 36.87)"><path class="i" d="M466.388,381.445l.977,26.381,8.1-.833-.2.316-13.42,19.915L456.1,391.446,466.3,381.1" transform="translate(-455.583 -380.525)"/><path class="p" d="M467.365,435.262,456.1,419.6l5.575,34.715Z" transform="translate(-455.583 -407.961)"/><path class="k" d="M501.622,409.2l-8.822-25,.374,25.605" transform="translate(-481.736 -382.734)"/><path class="l" d="M500.907,406.705l-7.558-18.363-.057,19.168L492.2,381.1" transform="translate(-481.308 -380.525)"/><path class="l" d="M466.948,435.591l-10.46-13.765L456.2,419.9" transform="translate(-455.654 -408.175)"/><path class="m" d="M465.22,379.1,454.3,390.135l.029.172.029.144,6.006,36.267.517-.776,13.593-19.973h0l.23-.345L465.393,379.7Zm8.679,26.18-7.615.8-.776-24.255Zm-12.472,18.679,4.8-17.185,7.443-.8Zm-6.207-32.3,10.374,14.857L460.622,424.3Zm9.57-11.179.8,24.829-10.518-15.03Z" transform="translate(-454.3 -379.1)"/></g><g transform="translate(79.574 77.333)"><path class="i" d="M541.065,521.7l4.138,9.253-10.4-.488,8.334,8.736,12.012-14.771-13.306-2.644" transform="translate(-534.225 -521.183)"/><path class="q" d="M564,546.765c.057-.057,2.3-8.046,2.3-8.046L575.38,533l-11.323,14.081" transform="translate(-555.034 -529.235)"/><path class="k" d="M535,530.305l10.346.661L540.92,522" transform="translate(-534.368 -521.397)"/><path class="l" d="M536.5,530.178l5.518-5.431,3.908,5.862-3.65-8.909" transform="translate(-535.437 -521.183)"/><path class="l" d="M572.1,539.308l6.294-2.385,2.931-4.023" transform="translate(-560.806 -529.164)"/><path class="m" d="M539.754,519.986l-.488-.086-6.466,9.34.345.374,8.535,9.052.316-.4,11.955-14.829.4-.517Zm-.374.977,3.908,8.391-9.426-.431Zm2.127,16.5-7.443-7.874,9.34.431Zm.891-.747,1.7-6.667.029-.115.144-.115,7.9-5.23Zm1.581-7.5-3.966-8.478,12.9,2.529Z" transform="translate(-532.8 -519.9)"/></g><g transform="translate(59.113 55.521)"><path class="i" d="M463.7,453.183l9.11,4.426-8.276,6.294,12.012,1.351-.287-19.053-11.9,6.552" transform="translate(-463.096 -445.568)"/><path class="r" d="M498.991,466.846c0-.057-3.391-7.644-3.391-7.644l3.276-10.2.374,18.047" transform="translate(-485.829 -447.563)"/><path class="k" d="M463.9,481.473l8.363-6.15L463.1,471.3" transform="translate(-462.669 -463.455)"/><path class="l" d="M464.735,480.673l.718-7.7,6.782,1.983L463.7,470.5" transform="translate(-463.096 -462.885)"/><path class="l" d="M497.1,459.263l3.3-5.891-.345-4.972" transform="translate(-486.898 -447.136)"/><path class="m" d="M462.031,451.184l-.431.23,1.035,11.294.489.057,12.357,1.466v-.517l-.374-19.053V444Zm.316.977,8.391,3.908-7.5,5.719Zm12.242,11.294-10.777-1.264,7.443-5.661Zm.2-1.121-2.989-6.207-.057-.115.029-.172,2.7-9.081Zm-3.621-6.782-8.478-3.937,11.524-6.351Z" transform="translate(-461.6 -444)"/></g><g transform="translate(47.158 53.682)"><path class="i" d="M441.9,458.5l-12.156-17.7L421.3,470l15.806,3.219-6.035-17.1,10.575,2.443" transform="translate(-420.926 -439.88)"/><path class="s" d="M430.161,439.9l1.207,15.748L422,468.925l7.874-27.3" transform="translate(-421.425 -439.239)"/><path class="k" d="M466.263,496.074,455.4,493.2l6.207,16.955,4.282-13.248" transform="translate(-445.227 -477.222)"/><path class="l" d="M467,497.785l-4.426,9.052L457,495.4l5.719,16.668" transform="translate(-446.367 -478.79)"/><path class="l" d="M431.125,493.4l-7.414,6.84-1.811,6.725" transform="translate(-421.354 -477.364)"/><path class="m" d="M436.725,471.051l4.684-14.57.057-.144-.23-.316h0L428.708,437.6l-.23.8-8.334,29-.144.46,16.582,3.707Zm-.4-.977-5.69-15.863,10.029,2.385Zm-7.069-30.491,11.064,16.237-9.886-2.357Zm-.632.6,1.121,13.449-8.478,12.1Zm-7.644,27.157,9.052-12.874,5.8,16.208Z" transform="translate(-420 -437.6)"/></g><g transform="translate(96.213 63.912)"><path class="i" d="M612.6,494.174,600.449,476.5,592,505.669l15.777,3.247-6.035-17.1,10.575,2.443" transform="translate(-591.626 -475.552)"/><path class="t" d="M600.79,475.6,602,491.348l-9.4,13.277,7.874-27.3" transform="translate(-592.054 -474.91)"/><path class="k" d="M636.963,531.7,626.1,528.8l6.207,16.984,4.253-13.277" transform="translate(-615.927 -512.822)"/><path class="l" d="M637.7,533.485l-4.426,9.052L627.7,531.1l5.719,16.668" transform="translate(-617.067 -514.461)"/><path class="l" d="M601.725,529.1l-7.386,6.84-1.839,6.7" transform="translate(-591.983 -513.036)"/><path class="m" d="M607.425,506.65l4.684-14.57.057-.144-.23-.316h0L599.408,473.2l-.23.8-8.334,29-.144.46,16.582,3.707Zm-.4-.948-5.69-15.892,10.029,2.385Zm-7.069-30.491,11.064,16.237-9.886-2.357Zm-.632.6,1.121,13.449-8.478,12.1Zm-7.673,27.157L600.7,490.1l5.8,16.208Z" transform="translate(-590.7 -473.2)"/></g><g transform="translate(23.335 58.768)"><path class="i" d="M339.129,473.357l17.07,13.018L355.107,456,339.1,457.839l11.064,14.369-10.805.977" transform="translate(-338.525 -455.799)"/><path class="u" d="M384.135,487.717l-6.035-14.57,4.742-15.547,1.063,28.393" transform="translate(-366.318 -456.939)"/><path class="k" d="M338.7,478.9l11.236-.632L338.729,464.1l.086,13.909" transform="translate(-338.24 -461.571)"/><path class="l" d="M338.974,477.715l1.379-9.972,8.88,9.139L338.6,462.8" transform="translate(-338.169 -460.645)"/><path class="l" d="M379.1,473.648l4.885-8.794-.345-6.954" transform="translate(-367.03 -457.153)"/><path class="m" d="M337.129,457.427l.115,15.317v.172l.316.23h0L355.2,486.739l-.029-.833-1.121-30.146-.029-.46L337.1,456.938Zm.661.776,10.346,13.305-10.259.862Zm16.237,26.783L338.451,473l10.144-.833Zm.4-.747-5.259-12.415,4.282-14.139Zm-1.178-28.22-4.569,15.059-10.575-13.564Z" transform="translate(-337.1 -455.3)"/></g><g transform="translate(52.992 69.775)"><path class="i" d="M454.952,495.761l7.587,17.214,6.9-17.875,5.4,4.167-2.845,22.789L443.4,518.665l.115-1.006Z" transform="translate(-442.509 -494.669)"/><path class="v" d="M462.539,557.3,443.4,562.99l28.594,3.391Z" transform="translate(-442.509 -538.994)"/><path class="k" d="M497.327,494.3l-6.638,18.248L482.7,494.99l13.823-.489" transform="translate(-470.515 -494.099)"/><path class="k" d="M521.543,510,509.1,523.564l9.857,9.052" transform="translate(-489.328 -505.287)"/><path class="l" d="M484.9,495.962l11.323.92-4.138,15.2L499.01,495.1" transform="translate(-472.083 -494.669)"/><path class="l" d="M511.5,522.994l10.374-9.857-1.552,18.421,2.989-22.358-11.754,13.047" transform="translate(-491.039 -504.717)"/><path class="l" d="M509.6,558.6l7.271,8.621,2.184.086" transform="translate(-489.685 -539.921)"/><path class="m" d="M472.946,498.2l.057-.374-5.546-4.224-.431.029-14.627.632-.2.4-11.9,23.191.6.086,28.68,3.506.2.029.345.029Zm-.776-.2-10.834,12.242,6.179-15.806Zm-5.316-3.707L460.3,511.015l-7.156-16.151Zm-25.375,22.76,11.121-21.7,7.242,16.323Zm1.006.4,17.271-5.058.46-.144.115.115,8.564,8.334Zm18.277-5.575,11.409-12.9-2.586,21.467Z" transform="translate(-440.3 -493.6)"/></g><g transform="translate(36.669 42.589)"><path class="i" d="M403.677,401.487l-11.121,23.938-7.156-3.937.057.374,4.684,23.565,19.11-30.749-5.4-13.478" transform="translate(-384.854 -400.568)"/><path class="w" d="M404.955,460.558,421.393,450.5,402.8,480.33Z" transform="translate(-397.254 -435.7)"/><path class="k" d="M385.4,423.2l17.817-19.6-10.259,23.45" transform="translate(-384.854 -402.278)"/><path class="l" d="M386.7,421.2l14.081-13.966L393.4,424.91,404.632,401" transform="translate(-385.78 -400.425)"/><path class="l" d="M411.7,460.988l14.972-8.65.977-1.638" transform="translate(-403.596 -435.843)"/><path class="m" d="M402.122,399.46,383.5,419.749l.086.431h0l4.8,23.68.172.92,19.6-31.123.086-.115.086-.144L402.553,399Zm-.862,1.954-10.144,22.07-6.725-3.707Zm-16.9,19.111,6.552,3.621-2.241,17.7Zm4.914,21.927,2.3-18.306,15.317-9.685Zm18.277-29.2-15.518,9.8,10.374-22.588Z" transform="translate(-383.5 -399)"/></g><g transform="translate(46.928 68.941)"><path class="i" d="M437.269,507.709,420.946,493.8l-.546,30.376,16.064-.977L426.2,508.255l10.834-.4" transform="translate(-420.055 -492.909)"/><path class="x" d="M420.945,493l5.259,14.886-5.6,15.288.489-28.421" transform="translate(-420.198 -492.339)"/><path class="k" d="M451.736,543l-11.236.029L450.9,557.8l.661-13.909" transform="translate(-434.379 -527.97)"/><path class="l" d="M452.888,543.8l-1.925,9.886-8.363-9.57,9.857,14.6" transform="translate(-435.875 -528.54)"/><path class="l" d="M425.774,543.7l-5.374,8.535v6.955" transform="translate(-420.055 -528.469)"/><path class="m" d="M436.184,520.932l.718-15.288v-.172l-.287-.259h0l-16.9-14.513v.833l-.517,30.174v.46l16.984-.747Zm-.632-.8-9.627-13.852,10.288-.287ZM420.781,492.51,435.7,505.3l-10.173.287Zm-.46.747,4.6,12.7-5.058,13.88ZM420,521.478l5.374-14.8,9.828,14.139Z" transform="translate(-419.2 -490.7)"/></g><g transform="translate(13.88 62.907)"><path class="i" d="M322.269,486.68l-16.38-13.88-.489,30.376,16.093-1.006-10.317-14.943,10.863-.4" transform="translate(-305.055 -471.909)"/><path class="y" d="M305.987,472l5.259,14.886-5.546,15.26.431-28.393" transform="translate(-305.269 -471.339)"/><path class="k" d="M336.665,521.9l-11.265.057L335.832,536.7l.661-13.909" transform="translate(-319.308 -506.899)"/><path class="l" d="M337.788,522.7l-1.9,9.886-8.391-9.57,9.914,14.6" transform="translate(-320.804 -507.469)"/><path class="l" d="M310.774,522.7l-5.374,8.535.029,6.955" transform="translate(-305.055 -507.469)"/><path class="m" d="M321.184,499.9l.69-15.288v-.172l-.287-.259h0L304.66,469.7v.833l-.46,30.174v.46l16.984-.776Zm-.632-.833L310.9,485.247l10.288-.316Zm-14.8-27.559L320.667,484.3l-10.173.316Zm-.46.718,4.627,12.673-5.029,13.909ZM305,500.449l5.345-14.8,9.857,14.11Z" transform="translate(-304.2 -469.7)"/></g><g transform="translate(68.941 79.661)"><path class="i" d="M499,557.481l10.2-5.633L507.449,531.1l12.788,14.742-6.926,9.282" transform="translate(-498.08 -530.209)"/><path class="z" d="M535.7,589.631l3.765,3.334,6.667-8.765L536.1,589.373" transform="translate(-524.234 -568.049)"/><path class="k" d="M506.063,531.387,497.7,557.538l10.575-5.69L506.522,531.1" transform="translate(-497.154 -530.209)"/><path class="l" d="M499.5,556.736l7.472-19.139,2.443,13.679L507.776,530.7" transform="translate(-498.437 -529.924)"/><path class="l" d="M537.2,589.8l8.391-3.132,1.609-2.27" transform="translate(-525.303 -568.192)"/><path class="m" d="M504.737,528.69,495.8,555.962l.661-.115,14.311-2.385.4-.057,7.069-9.225.259-.316L505,528Zm.172,1.581,1.868,19.053-9.914,5.489Zm-6.753,24.6,8.937-4.943,3.132,2.931Zm12.76-2.27-3.219-2.989,9.139-4.742Zm6.581-8.851-10.087,5.23-1.9-19.312Z" transform="translate(-495.8 -528)"/></g><g transform="translate(43.221 89.949)"><path class="i" d="M426.771,565.4,409.5,578.131l29.456,7.472,2.7-15.892-16.9,6.581,2.1-10.633" transform="translate(-408.58 -564.94)"/><path class="aa" d="M408.7,605.724,424.362,604l13.593,8.937-27.531-6.983" transform="translate(-408.01 -592.447)"/><path class="k" d="M464.229,565.1,461.7,576.049l16.754-6.753-13.392-3.822" transform="translate(-445.779 -564.726)"/><path class="l" d="M465.869,566.5l9.2,4.138L463.8,576.587l16.5-6.265" transform="translate(-447.276 -565.724)"/><path class="l" d="M462,604.7l7.069,7.184,6.782,1.581" transform="translate(-445.993 -592.946)"/><path class="m" d="M439.463,568.025l-14.714-4.2-.144-.029-.316.23h0L406.3,577.163l.8.2,29.255,7.386.46.115,3.161-16.7Zm-.948.431-15.691,6.207,2.069-10.087Zm-30.232,8.075,15.863-11.581-2.04,9.972Zm.6.6,13.421-1.581,12.357,8.075Zm27.416,6.753-13.191-8.621,16.007-6.351Z" transform="translate(-406.3 -563.8)"/></g><g transform="translate(26.065 72.936)"><path class="i" d="M348.2,525.312l18.018-5.374-16.84-9.081L354.206,506l22.243,5.719-6.983,27.933-.977-.259Z" transform="translate(-347.74 -505.598)"/><path class="ab" d="M410.9,534.119l3.247,19.714,6.983-27.933Z" transform="translate(-392.422 -519.779)"/><path class="k" d="M348.578,523.1l17.271,8.909L347.4,537.7l1.265-13.765" transform="translate(-347.17 -517.784)"/><path class="k" d="M369.4,506.5l11.869,14.024L391.5,511.9" transform="translate(-362.848 -505.954)"/><path class="l" d="M349,536.981l2.356-11.121,14.57,6.064L349.948,522.9" transform="translate(-348.31 -517.641)"/><path class="l" d="M380.813,519.578l-8.478-11.524,18.076,3.851L368.6,506.1l11.466,13.306" transform="translate(-362.278 -505.669)"/><path class="l" d="M412.2,534.505l9.483-6.121.345-2.184" transform="translate(-393.348 -519.993)"/><path class="m" d="M353.095,504.686l-.374-.086-4.885,4.972-.029.431L346.6,524.6l.374.259L368.5,539.6l.144-.6,7.127-28.019.057-.2.086-.316Zm-.287.776,10.777,12.3L348.7,509.629Zm-4.368,4.8,15.777,8.621L347.29,523.94Zm19.369,28.019-20.116-13.765L364.82,519.4Zm.546-.948-2.816-17.76-.086-.489.115-.086,9.34-7.443Zm-3.219-18.823-11.351-12.961,20.95,5.288Z" transform="translate(-346.6 -504.6)"/></g><g transform="translate(77.62 83.741)"><path class="i" d="M542.664,543.9l6.035,17.817,8.449-17.185,5.029,4.627L557.292,571.6l-28.192-5.92.23-.977Z" transform="translate(-528.209 -543.411)"/><path class="ac" d="M548.7,605.9l-19.6,3.966,28.192,5.92Z" transform="translate(-528.209 -587.594)"/><path class="k" d="M590.128,543.732,581.88,561.32,575.5,543.1l13.823.747" transform="translate(-561.275 -542.841)"/><path class="k" d="M609.993,562.6,596.4,574.986l9.024,9.914" transform="translate(-576.169 -556.737)"/><path class="l" d="M577.6,544.7l11.179,1.925L583.29,561.4l8.42-16.294" transform="translate(-562.771 -543.982)"/><path class="l" d="M598.8,574.473l11.208-8.88-3.19,18.22,4.972-22.013-12.874,11.955" transform="translate(-577.879 -556.167)"/><path class="l" d="M596.8,607.1l6.466,9.253,2.184.287" transform="translate(-576.454 -588.449)"/><path class="m" d="M560.284,547.976l.086-.374-5.144-4.713-.431-.029-14.627-.661-.23.374L526,564.673l.6.115,28.249,6.064.2.057.316.057Zm-.776-.259-11.9,11.236,7.558-15.173Zm-4.972-4.167-8.018,16.093-5.69-16.725Zm-27.3,20.4,12.989-20.634L546,560.247Zm.977.489,17.645-3.506.489-.086.115.115,7.788,9.052Zm18.708-3.937,12.53-11.811-4.483,21.151Z" transform="translate(-526 -542.2)"/></g><g transform="translate(31.985 48.71)"><path class="i" d="M369.2,430.658l1.063-.489,2.155-.977,1.753-3.592-4.109,4.253" transform="translate(-368.625 -424.077)"/><path class="i" d="M381.2,432.6l-.8-3.19,2.069-3.506Z" transform="translate(-376.607 -424.291)"/><path class="ad" d="M381.2,432.6l-.8-3.19,2.069-3.506Z" transform="translate(-376.607 -424.291)"/><path class="k" d="M369,439.938l4.023,3.161-.92-4.8" transform="translate(-368.483 -433.127)"/><path class="l" d="M372.592,443.407l-1.523-2.184,1.063-1.523L369,440.936" transform="translate(-368.483 -434.125)"/><path class="m" d="M372.8,421.162l-5.288,5.6-.316.345,4.742,3.822.115-.632,1.379-8.822.172-1.178Zm-1.063,2.127-.977,1.925c-.316.115-.891.4-1.494.69Zm-3.448,3.851c1.035-.546,2.1-1.063,2.558-1.264a35,35,0,0,1,.46,3.707Zm3.506.4a8.038,8.038,0,0,0-.4-2.127l1.063-2.069Z" transform="translate(-367.2 -420.3)"/></g><g transform="translate(91.845 50.319)"><path class="i" d="M577.6,436.187l1.035-.489,2.184-1.006,1.724-3.592-4.109,4.253" transform="translate(-576.997 -429.606)"/><path class="i" d="M589.576,438.125l-.776-3.219,2.069-3.506Z" transform="translate(-584.978 -429.819)"/><path class="ae" d="M589.576,438.125l-.776-3.219,2.069-3.506Z" transform="translate(-584.978 -429.819)"/><path class="k" d="M577.4,445.467l4.023,3.161-.92-4.828" transform="translate(-576.854 -438.656)"/><path class="l" d="M580.963,449.007l-1.494-2.184L580.5,445.3l-3.1,1.236" transform="translate(-576.854 -439.725)"/><path class="m" d="M581.1,426.762l-5.288,5.6-.316.345,4.742,3.822.115-.632,1.379-8.822.172-1.178Zm-1.063,2.1-.977,1.925c-.316.115-.891.4-1.494.69Zm-3.448,3.88c1.035-.546,2.1-1.063,2.558-1.264a34.975,34.975,0,0,1,.46,3.707Zm3.506.4a8.037,8.037,0,0,0-.4-2.127l1.063-2.069Z" transform="translate(-575.5 -425.9)"/></g><g transform="translate(78.741 103.082)"><path class="i" d="M533.033,622.241l.287-1.121.575-2.328-1.7-3.592.718,5.862" transform="translate(-531.539 -613.562)"/><path class="i" d="M537.526,619.7l-2.989-1.408L533.1,614.5Z" transform="translate(-532.18 -613.063)"/><path class="af" d="M537.526,619.7l-2.989-1.408L533.1,614.5Z" transform="translate(-532.18 -613.063)"/><path class="k" d="M535.6,631.748l4.972-1.15-4.311-2.3" transform="translate(-533.962 -622.897)"/><path class="l" d="M539.767,631.154l-2.644-.172-.517-1.782-1.006,3.19" transform="translate(-533.962 -623.539)"/><path class="m" d="M530.072,610.678l1.063,7.644.057.46,5.949-1.293-.431-.489-6.006-6.61-.8-.891Zm.977,2.155.891,1.954c-.086.316-.259.948-.374,1.609Zm.862,5.115c.23-1.149.489-2.3.6-2.788a28.629,28.629,0,0,1,3.161,1.954Zm2.5-2.471a7.381,7.381,0,0,0-1.9-1.006l-.948-2.127Z" transform="translate(-529.9 -609.5)"/></g><g transform="translate(21.467 59.602)"><path class="i" d="M333.4,461.569l8.1,1.178.661-3.247,3.506,7.328-4.109,4.857-8.018-9.713" transform="translate(-332.595 -459.126)"/><path class="ag" d="M361.886,472.5l-.086,8.449,3.995-4.339Z" transform="translate(-352.834 -468.391)"/><path class="k" d="M335.1,461.084l7.443,1.494.891-3.678" transform="translate(-333.807 -458.699)"/><path class="l" d="M338.8,461.525l5.719-.345.546,1.437,1.178-3.017" transform="translate(-336.444 -459.198)"/><path class="l" d="M362.8,474.4l2.9,4.655.833-1.236" transform="translate(-353.546 -469.745)"/><path class="m" d="M340.572,458.631l-.2-.431-9.11,1.983-.661.144,8.621,10.633.374.46,4.512-4.885-.144-.287Zm-.259,1.063,2.3,5.115-2.73-2.931Zm-.575-.661-.46,2.27-.057.316h-.086l-6.179-1.092Zm-7.673,2.012,7.1,1.236.115,7.673Zm7.9,9.052-.115-7.213,3.42,3.65Z" transform="translate(-330.6 -458.2)"/></g><g transform="translate(76.298 43.106)"><path class="i" d="M524.3,406.4l8.133-.862-.172-3.334,5.23,6.236-2.759,5.719-10.173-7.386" transform="translate(-523.467 -401.798)"/><path class="ah" d="M553.5,415.3l2.04,8.19,2.788-5.173Z" transform="translate(-544.275 -411.133)"/><path class="k" d="M525.9,405.867l7.587-.4-.058-3.765" transform="translate(-524.607 -401.441)"/><path class="l" d="M529.5,405.907l5.431-1.753.891,1.236.374-3.19" transform="translate(-527.172 -401.798)"/><path class="l" d="M554.7,417l3.966,3.765.517-1.408" transform="translate(-545.13 -412.345)"/><path class="m" d="M530.6,401.174l-.287-.374L522,405l-.6.316,11.007,8.133.489.345,3.132-5.834-.2-.259Zm.029,1.092,3.506,4.4-3.391-2.155Zm-.718-.488.115,2.3.029.316h-.086l-6.265.489Zm-6.954,3.851,7.184-.575,2.04,7.414Zm9.914,6.782-1.925-6.955,4.224,2.673Z" transform="translate(-521.4 -400.8)"/></g><g transform="translate(37.905 99.087)"><path class="i" d="M408.956,597.7,391.8,604.08l20.145,5.4,7.587-9.656-13.162,3.161Z" transform="translate(-390.65 -597.097)"/><path class="ai" d="M394.5,617.221l13.794-1.121,5.575,6.495-18.507-4.943" transform="translate(-392.575 -610.209)"/><path class="k" d="M446.415,596.6l-2.615,5.748,12.645-3.477" transform="translate(-427.707 -596.313)"/><path class="l" d="M447.655,598.2l4.253,1.782-6.408,2.845,12.07-2.5" transform="translate(-428.918 -597.453)"/><path class="l" d="M442.9,617.3l3.42,5.719,1.753.345" transform="translate(-427.066 -611.064)"/><path class="m" d="M408.922,608.359l.4.115,8.018-10.432-.661-.144-10.374-2.3-.316.115-17.128,6.523-1.063.4,1.092.287Zm-18.047-5.575,12.328-.92.4-.029.029.029,4.627,5.633Zm25.03-3.966-6.725,8.736-4.828-5.891Zm-.6-.546-10.92,2.7,2.155-4.627Zm-9.627-1.7-2.127,4.569-12.357.92Z" transform="translate(-387.8 -595.6)"/></g><g transform="translate(27.186 93.685)"><path class="i" d="M354.2,585.289l3.937-2.356-1.15-3.132" transform="translate(-353.137 -578.938)"/><path class="i" d="M365.762,582.5l-.862-3.3,7.788,3.765Z" transform="translate(-360.762 -578.51)"/><path class="aj" d="M365.762,582.5l-.862-3.3,7.788,3.765Z" transform="translate(-360.762 -578.51)"/><path class="k" d="M354.1,593.2l4.167-2.7,5.977.747-9.311,2.04" transform="translate(-353.065 -586.563)"/><path class="l" d="M355.187,589.874,358.349,587l.4,1.035,4.914.517-.2.173-4.742.259-2.845,1.236-.977.517" transform="translate(-353.636 -584.069)"/><path class="m" d="M354.15,577.288l-3.65,6.782.8-.172,11.409-2.242,1.063-.2-9.368-4.655Zm-1.408,5.661,2.845-1.868,4.742.4Zm2.385-2.357-3.075,2.012,2.385-4.454Zm5.92.259-5.259-.431-.69-2.529Z" transform="translate(-350.5 -576.8)"/></g><g transform="translate(38.02 35.979)"><path class="i" d="M393.1,379.323l4.368,1.408,1.581-2.931" transform="translate(-391.692 -377.283)"/><path class="i" d="M408.3,380.945l1.925-2.845,2.3,8.334Z" transform="translate(-402.524 -377.497)"/><path class="ak" d="M408.3,380.945l1.925-2.845,2.3,8.334Z" transform="translate(-402.524 -377.497)"/><path class="k" d="M392.3,383.7l4.77,1.351,3.391,5-7.673-5.661" transform="translate(-391.122 -381.487)"/><path class="l" d="M393.533,383.1l4.282.488-.546.977,2.874,4.023-.287-.029-3.3-3.391-2.816-1.322-1.035-.4" transform="translate(-391.407 -381.06)"/><path class="m" d="M395.7,376.115l-7.5,1.724.661.517,9.225,7.1.862.661L396.275,376Zm-5.173,2.673,3.3.92,2.816,3.822Zm3.362.23-3.535-.977,4.943-1.15Zm3.707,4.627-3.161-4.253,1.437-2.184Z" transform="translate(-388.2 -376)"/></g><g transform="translate(89.834 63.625)"><path class="l" d="M590.8,498.3l.69,2.242,1.264-.345" transform="translate(-584.391 -490.799)"/><path class="i" d="M573.578,475.618l2.356,5.661,5.6-6.38L578,483.78l-8.1.718Z" transform="translate(-569.498 -474.124)"/><path class="al" d="M571.5,499.9l5.748-3.1,1.667,2.673Z" transform="translate(-570.638 -489.731)"/><path class="k" d="M590.559,473.7c-.661.086-7.759.747-7.759.747l2.328,5.949,5.2-6.035" transform="translate(-578.69 -473.269)"/><path class="l" d="M584.4,474.536l4.627.46-2.586,4.426,5.8-6.121" transform="translate(-579.831 -472.984)"/><path class="m" d="M581.374,472.2l-9.024.977-.172.4-3.678,9.34.661-.057,7.587-.6.489-.029,3.88-9.4Zm-1.351.833-4.914,5.6-2.04-4.885Zm-7.443,1.322,1.983,4.742-4.914,2.673Zm-2.04,7.73,4.368-2.385,1.466,1.925Zm6.38-.862-1.494-1.954,4.339-4.943Z" transform="translate(-568.5 -472.2)"/></g><path class="a" d="M349.991,565.922,257.6,542.3v28.077l92.391,27.789Z" transform="translate(-257.111 -458.53)"/><path class="d" d="M622.839,515.8,579.1,547.038v32.244l43.739-35.433Z" transform="translate(-486.22 -439.645)"/><path class="am" d="M293.318,584.134,280.3,580.8v9.139l13.018,3.908Z" transform="translate(-273.288 -485.966)"/><path class="l" d="M291.2,597.588V594.8l6.753,1.753v3.075Z" transform="translate(-281.056 -495.943)"/><path class="am" d="M484.4,638v9.8l15,4.512V641.822Z" transform="translate(-418.735 -526.728)"/><path class="l" d="M495.2,655.448V652l8.794,2.242v3.851Z" transform="translate(-426.431 -536.705)"/><path class="d" d="M376.571,587.265c-1.006,8.19-5.23,13.966-9.052,13.966-4.4,0-9.282-7.558-9.282-17.674,0-.345.029-.661.029-.977L352.086,581c-.057.833-.086,1.7-.086,2.558,0,13.219,6.954,23.91,15.547,23.91,7.414,0,13.593-7.989,15.145-18.651Z" transform="translate(-324.383 -486.108)"/><line class="e" x2="6.552" y2="1.667" transform="translate(27.588 100.093)"/><line class="e" x2="6.064" y2="1.552" transform="translate(51.124 106.099)"/><path class="f" d="M380.482,506l-.747,3.736,4.282.891-5.2,3.707-.057.259h-.316l-29.312,20.95-81.816-20.921,4.282-2.529.057-4.339L257.6,516.432l92.391,23.622,43.739-31.238Z" transform="translate(-257.111 -432.662)"/><path class="h" d="M731.446,517.686l-.115.747-.431-.661.23-.172Z" transform="translate(-594.396 -440.928)"/><path class="h" d="M621.346,516.7l.92.172.172.259-.374.287L579.3,547.938v-.632l-.6-.172Z" transform="translate(-485.935 -440.287)"/><path class="h" d="M624.366,545.747,580.8,581.008v-1.293l42.762-34.6V518.274l.374-.287.431.661.115-.747h.086v27.7Z" transform="translate(-487.432 -441.142)"/><path class="h" d="M578.306,622.772v.632l-.4.287-.6-.144v-.661l.2-.144.2-.144Z" transform="translate(-484.937 -515.754)"/><path class="h" d="M578.306,656.322v1.293l-.374.316-.259-.057-.374-.115V625.544l.6.144.4-.287Z" transform="translate(-484.937 -517.749)"/><path class="h" d="M256.906,571l91.357,27.473v1.063L255.9,571.748V543.7l1.006.259Z" transform="translate(-255.9 -459.528)"/><path class="h" d="M400.73,517.3l-.2.977,3.132.661-3.822,2.73-.2.977h-1.178l-28.536,20.4L289.515,522.5l2.931-1.753.029-1.207-5.575,3.333,83.224,21.266,36.008-25.72Z" transform="translate(-277.991 -440.714)"/><path class="h" d="M271.51,510l-14.11,8.736,1.351.374,12.759-7.9Z" transform="translate(-256.969 -435.512)"/><path class="h" d="M256.906,541.607l-1.006-.259v-.661l.431-.287,1.351.374,90.983,23.249-.2.144-.2.144v.661Z" transform="translate(-255.9 -457.176)"/><path class="h" d="M675.1,533.477l1.379-.977.862.489-1.81,1.063" transform="translate(-554.632 -451.546)"/><path class="h" d="M696.528,508.22,684.4,505.662l-.2-.144.144-.718,13.708,2.845-.2,1.351-.718-.431" transform="translate(-561.117 -431.807)"/><path class="m" d="M682.017,498.552l1.753-9.052-1.322,3.621-.948,5.92" transform="translate(-559.193 -420.903)"/><path class="m" d="M304.986,506.6l-.086,5.518.46.287.115-7.5" transform="translate(-290.819 -431.878)"/><path class="am" d="M434.252,603.2,432.7,608l6.495,1.581.632-5.144" transform="translate(-381.892 -501.929)"/><path class="am" d="M358.49,582.867l.287,4.77L352.8,586.4v-5.2" transform="translate(-324.953 -486.251)"/><path class="h" d="M374.928,584.994l-.057.575a26.645,26.645,0,0,1-.891,4.368c-1.7,5.748-4.972,9.139-7.673,9.139-3.506,0-7.529-5.6-8.535-13.392a26.712,26.712,0,0,1-.259-3.765,5.1,5.1,0,0,1,.029-.661l.029-.718-7.156-1.839-.029.6c-.057.862-.086,1.753-.086,2.586,0,1.063.057,2.1.144,3.132,1.006,11.984,7.759,21.294,15.921,21.294,6.265,0,11.754-5.374,14.4-13.593a35.634,35.634,0,0,0,1.264-5.489l.057-.46Zm-23.622-5,5.2,1.322c0,.2-.029.4-.029.6a29.5,29.5,0,0,0,.23,3.621l-5.374-1.379c-.057-.747-.057-1.494-.057-2.242C351.277,581.286,351.277,580.654,351.306,579.993Zm15,25.347c-7.558,0-13.852-8.765-14.886-20.088l5.46,1.408c1.236,7.96,5.518,13.478,9.426,13.478,3.3,0,6.523-3.65,8.334-8.937l5.087,1.293C377.2,600.167,372,605.34,366.307,605.34Zm13.708-13.823-5.087-1.293a27.2,27.2,0,0,0,.862-3.937l5.115,1.293C380.676,588.931,380.359,590.253,380.015,591.517Z" transform="translate(-323.172 -484.469)"/><path class="b" d="M282,597.974l2.127-1.581V592.6l7.788,1.983,2.127-1.638s.46,0,.46.115c-.029.115-.115,9.282-.115,9.282l-10.805-3.132" transform="translate(-274.499 -494.375)"/><path class="b" d="M483.82,655.764l2.127-1.581V649.7l9.771,2.5,2.127-1.638.345.029.144,10.374L482.9,656.108" transform="translate(-417.666 -535.066)"/><path class="h" d="M502.265,655.764v-2.787l-7.759-1.983v2.414Zm1.006-3.563v4.914l-9.771-2.931V649.7Z" transform="translate(-425.219 -535.066)"/><path class="h" d="M497.63,649.983v-9.4l-14-3.592v8.765Zm1.006-10.173v11.553L482.6,646.534V635.7Z" transform="translate(-417.452 -525.089)"/><path class="h" d="M296.182,597.442V595.43l-5.776-1.466v1.753Zm1.006-2.788v4.167l-7.788-2.328V592.7Z" transform="translate(-279.773 -494.446)"/><path class="h" d="M291.547,582.968l-12.041-3.075V588l12.012,3.621v-8.65ZM278.5,578.6l14.024,3.592v10.777L278.5,588.744Z" transform="translate(-272.005 -484.398)"/><path class="h" d="M278.5,577.175l1.006-.575,13.88,3.535v10.633l-.833.776-.517-10.575" transform="translate(-272.005 -482.973)"/><path class="h" d="M482.6,634.2l1.006-.6,15.921,3.88v11.553l-.891.833-.8-11.236" transform="translate(-417.452 -523.592)"/><path class="h" d="M350.6,577.731l1.006-.431,6.983,1.7s-1.063,13.047,5.46,18.507l-4.2-4.684L357.9,586.41l-.374-6.7" transform="translate(-323.385 -483.472)"/><path class="h" d="M430.8,599.816l.891-.316,7.1,1.839S438.3,613.122,428.7,619.1c0,0,4.885-5.776,6.294-8.334s2.586-8.794,2.586-8.794" transform="translate(-379.041 -499.292)"/><path class="h" d="M345.22,309l.6.6-5.2,9.771-1.322-.2" transform="translate(-315.333 -292.275)"/><path class="h" d="M596.872,341.9l.546.4-4.282,12.472-1.236-.2" transform="translate(-495.342 -315.72)"/><g transform="translate(86.701 106.157)"><path class="i" d="M583.943,647.533l-12.817-13.765-.661,19.11-6.495-2.155L559.2,628.25l28.134-6.15.23.977Z" transform="translate(-558.74 -621.554)"/><path class="an" d="M571.126,633.768,587.334,622.1,559.2,628.25Z" transform="translate(-558.74 -621.554)"/><path class="k" d="M599,681.727l.287-19.427,13.306,14-12.9,4.971" transform="translate(-587.103 -650.201)"/><path class="k" d="M563.772,666.114l7.3-16.869L558.8,643.9" transform="translate(-558.455 -637.089)"/><path class="l" d="M611.447,678.4l-11.006,2.816L599.377,665.5l-.977,18.306" transform="translate(-586.675 -652.482)"/><path class="l" d="M571.65,650.3,565.1,663.032,560.5,645.1l4.483,22.128,6.84-16.208" transform="translate(-559.667 -637.944)"/><path class="l" d="M571.382,646.976,561.7,641.2l-2.1.632" transform="translate(-559.025 -635.165)"/><path class="m" d="M562.543,649.484l.086.374,6.638,2.184.4-.144,13.622-5.4.058-.46L586.97,620.2l-.6.115-28.249,6.064-.2.029-.316.057Zm.8-.086,6.236-15.116-.69,16.955Zm6.236,1.782.719-17.961,12.041,12.9Zm16.524-29.83-3.391,24.14-12.185-13.047Zm-1.092-.058-14.656,10.432-.4.287-.144-.058L558.979,626.9Zm-15.432,11.265L563,648.478l-4.569-21.122Z" transform="translate(-557.6 -620.2)"/></g><g transform="translate(104.461 113.37)"><path class="i" d="M643.558,647.3l-10.748,4.483-.546,20.806L621.2,656.525l7.874-8.449" transform="translate(-620.683 -646.725)"/><path class="ao" d="M633.178,653.707,629.787,650l-7.587,7.989,10.547-4.052" transform="translate(-621.395 -648.649)"/><path class="k" d="M660.189,672.288,671.4,647.2l-11.15,4.512-.546,20.806" transform="translate(-648.119 -646.654)"/><path class="l" d="M670.822,648.8l-9.541,18.22-.92-13.852L659.7,673.8" transform="translate(-648.119 -647.794)"/><path class="l" d="M632.747,662.7l-8.679,2.184-1.868,2.1" transform="translate(-621.395 -657.7)"/><path class="m" d="M631.412,671.422,643.281,645.3l-.661.029-14.484.776-.4.029-8.047,8.391-.287.287,11.7,17.243Zm0-1.609.23-19.139,10.46-4.339Zm9.4-23.709-9.426,3.937-2.816-3.247Zm-12.932.862,2.845,3.3-9.6,3.707Zm-7.529,8.075,10.6-4.109-.23,19.4Z" transform="translate(-619.4 -645.3)"/></g><g transform="translate(117.422 105.093)"><path class="i" d="M686.476,637.5l-12.127-17.7L665.9,649l15.777,3.219-6.035-17.1,10.575,2.443" transform="translate(-665.498 -618.852)"/><path class="ap" d="M674.69,618.9l1.178,15.748L666.5,647.925l7.874-27.3" transform="translate(-665.925 -618.21)"/><path class="k" d="M710.863,675,700,672.1l6.207,16.984,4.253-13.277" transform="translate(-689.798 -656.122)"/><path class="l" d="M711.6,676.785l-4.454,9.052L701.6,674.4l5.719,16.668" transform="translate(-690.938 -657.761)"/><path class="l" d="M675.625,672.4l-7.414,6.84-1.81,6.725" transform="translate(-665.854 -656.336)"/><path class="m" d="M681.225,649.951l4.684-14.57.057-.144-.23-.316h0L673.208,616.5l-.23.8-8.334,29-.144.46,16.582,3.707Zm-.374-.948-5.69-15.892,10.029,2.385Zm-7.07-30.491,11.064,16.237-9.886-2.356Zm-.632.6,1.121,13.449-8.478,12.1Zm-7.673,27.157,9.052-12.874,5.8,16.208Z" transform="translate(-664.5 -616.5)"/></g><g transform="translate(77.448 129.377)"><path class="i" d="M527.5,711.358l1.034-.489,2.184-.977,1.724-3.592-4.109,4.224" transform="translate(-526.897 -704.777)"/><path class="i" d="M539.476,713.3l-.776-3.19,2.069-3.506Z" transform="translate(-534.878 -704.991)"/><path class="aq" d="M539.476,713.3l-.776-3.19,2.069-3.506Z" transform="translate(-534.878 -704.991)"/><path class="k" d="M527.3,720.638l4.023,3.161-.92-4.8" transform="translate(-526.754 -713.827)"/><path class="l" d="M530.863,724.107l-1.523-2.184L530.4,720.4l-3.1,1.236" transform="translate(-526.754 -714.825)"/><path class="m" d="M531,701.862l-5.288,5.6-.316.345,4.742,3.822.115-.632,1.379-8.823.172-1.178Zm-1.063,2.1-.977,1.925c-.316.115-.891.4-1.494.69Zm-3.448,3.88c1.034-.546,2.1-1.063,2.558-1.264a35.016,35.016,0,0,1,.46,3.707Zm3.506.4a8.035,8.035,0,0,0-.4-2.127l1.063-2.069Z" transform="translate(-525.4 -701)"/></g><g transform="translate(126.503 101.041)"><path class="i" d="M701,605.723l4.368,1.408,1.581-2.931" transform="translate(-699.592 -603.683)"/><path class="i" d="M716.2,607.345l1.925-2.845,2.3,8.334Z" transform="translate(-710.424 -603.896)"/><path class="ar" d="M716.2,607.345l1.925-2.845,2.3,8.334Z" transform="translate(-710.424 -603.896)"/><path class="k" d="M700.2,610.1l4.77,1.351,3.391,5-7.673-5.661" transform="translate(-699.022 -607.887)"/><path class="l" d="M701.433,609.5l4.253.489-.517.977,2.874,4.023-.287-.029-3.3-3.391-2.816-1.322-1.035-.4" transform="translate(-699.307 -607.46)"/><path class="m" d="M703.6,602.515l-7.5,1.724.661.517,9.225,7.1.862.661L704.175,602.4Zm-5.173,2.673,3.3.92,2.816,3.822Zm3.334.23-3.535-.977,4.943-1.149Zm3.707,4.627-3.161-4.253,1.437-2.184Z" transform="translate(-696.1 -602.4)"/></g><g transform="translate(113.858 92.621)"><path class="l" d="M674.4,599.2l.69,2.213,1.264-.316" transform="translate(-667.992 -591.699)"/><g transform="translate(0 0)"><path class="i" d="M657.178,576.518l2.357,5.661,5.6-6.38-3.535,8.851-8.1.747Z" transform="translate(-653.098 -575.024)"/><path class="as" d="M655.1,600.775l5.747-3.075,1.667,2.673Z" transform="translate(-654.238 -590.631)"/><path class="k" d="M674.159,574.6c-.661.086-7.759.747-7.759.747l2.328,5.949,5.2-6.035" transform="translate(-662.291 -574.169)"/><path class="l" d="M668,575.436l4.627.46-2.586,4.426,5.805-6.121" transform="translate(-663.431 -573.884)"/><path class="m" d="M664.974,573.1l-9.024.977-.172.4-3.678,9.34.661-.058,7.587-.6.489-.029,3.88-9.4Zm-1.351.8-4.914,5.6-2.04-4.885Zm-7.443,1.351L658.164,580l-4.914,2.672Zm-2.04,7.7,4.368-2.385,1.466,1.925Zm6.38-.833-1.494-1.954,4.339-4.943Z" transform="translate(-652.1 -573.1)"/></g></g><g transform="translate(84.029 124.721)"><path class="i" d="M595.2,690.235,569.217,694.8l-.891-8.1-.259.259-16.668,17.3,36.181-1.868,7.96-12.156" transform="translate(-550.509 -686.154)"/><path class="at" d="M570.072,714.9l17.645,7.73L552.6,724.441Z" transform="translate(-551.364 -706.25)"/><path class="k" d="M610.3,686.7l26.266,3.42-25.088,4.972" transform="translate(-592.483 -686.154)"/><path class="l" d="M611.5,687.5l19.513,3.563L612.3,695.115l26.036-4.483" transform="translate(-593.338 -686.724)"/><path class="l" d="M613.3,716.6l15.662,7.357,1.925-.144" transform="translate(-594.621 -707.461)"/><path class="m" d="M593.246,688.478l-27.3-3.678-.287.316h0l-16.7,17.472-.661.69,36.727-1.724h.316l8.506-12.989Zm-2.1.4-23.881,4.311-.8-7.615Zm-25.318-2.96.776,7.443L550.8,701.64Zm-15.2,16.582,16.352-8.564,16.7,7.041Zm34.428-1.667-16.9-7.127,24.456-4.4Z" transform="translate(-548.3 -684.8)"/></g><path class="l" d="M525.615,250.8a12.555,12.555,0,0,1-5.115,10.231,12.492,12.492,0,0,1,5.115,10.231,12.555,12.555,0,0,1,5.115-10.231A12.555,12.555,0,0,1,525.615,250.8Z" transform="translate(-444.46 -250.8)"/><path class="l" d="M693.663,330.3a8.677,8.677,0,0,1-3.564,7.127,8.739,8.739,0,0,1,3.564,7.127,8.677,8.677,0,0,1,3.563-7.127A8.739,8.739,0,0,1,693.663,330.3Z" transform="translate(-565.321 -307.454)"/><path class="l" d="M440.563,377.8A8.677,8.677,0,0,1,437,384.927a8.739,8.739,0,0,1,3.563,7.127,8.677,8.677,0,0,1,3.563-7.127A8.739,8.739,0,0,1,440.563,377.8Z" transform="translate(-384.956 -341.303)"/><path class="l" d="M614.716,458a6.892,6.892,0,0,1-2.816,5.633,6.893,6.893,0,0,1,2.816,5.633,6.893,6.893,0,0,1,2.816-5.633A6.892,6.892,0,0,1,614.716,458Z" transform="translate(-509.594 -398.456)"/><path class="l" d="M593.616,643.3a6.892,6.892,0,0,1-2.816,5.633,6.892,6.892,0,0,1,2.816,5.633,6.892,6.892,0,0,1,2.816-5.633A6.892,6.892,0,0,1,593.616,643.3Z" transform="translate(-494.558 -530.505)"/></svg>