<svg xmlns="http://www.w3.org/2000/svg" xmlns:xlink="http://www.w3.org/1999/xlink" width="123.943" height="135.154" viewBox="0 0 123.943 135.154"><defs><style>.a{fill:#1cd4f1;}.b{fill:url(#a);}.c{fill:#75cfe5;}.d{fill:#fff;}.e{fill:url(#b);}.f{fill:#002942;}.g{fill:url(#c);}.h{fill:url(#d);}.i{fill:url(#e);}.j{fill:url(#f);}.k{fill:url(#g);}</style><linearGradient id="a" x1="2.223" y1="-0.348" x2="3.538" y2="-0.348" gradientUnits="objectBoundingBox"><stop offset="0" stop-color="#2e3192" stop-opacity="0"/><stop offset="1" stop-color="#002942"/></linearGradient><linearGradient id="b" x1="-0.864" y1="7.332" x2="-0.247" y2="7.332" xlink:href="#a"/><linearGradient id="c" x1="-0.001" y1="0.5" x2="0.999" y2="0.5" xlink:href="#a"/><linearGradient id="d" x1="29.728" y1="-3.682" x2="32.67" y2="-3.682" xlink:href="#a"/><linearGradient id="e" x1="0.002" y1="0.499" x2="1.001" y2="0.499" xlink:href="#a"/><linearGradient id="f" x1="2.602" y1="23.13" x2="3.551" y2="23.13" xlink:href="#a"/><linearGradient id="g" x1="1.325" y1="2.098" x2="2.326" y2="2.098" xlink:href="#a"/></defs><g transform="translate(0 0)"><path class="a" d="M419.3,422.65l6.793,57.3-17.8.917.542.583,35.716,38.467.333-79.1L419.344,421.9" transform="translate(-384.337 -386.726)"/><path class="b" d="M451,508.591,470.046,471l-.333,76.808Z" transform="translate(-409.241 -415.363)"/><path class="c" d="M408.3,483.729,418.969,426.8l7.793,55.387" transform="translate(-384.337 -389.584)"/><path class="d" d="M409.6,480.237,419.727,438.1l6.585,41.342L419.727,422.1" transform="translate(-385.095 -386.842)"/><path class="d" d="M453.6,508.966l17.92-33.257-.042-4.209" transform="translate(-410.758 -415.655)"/><path class="a" d="M515.135,518.57,506.3,564.663l58.346-31.757L545.433,503.4,528.1,539.074l-12.419-20.213" transform="translate(-441.495 -434.26)"/><path class="e" d="M505.7,606.94l22.63-26.005,35.007-5.835-54.511,29.715" transform="translate(-441.145 -476.079)"/><path class="c" d="M528.1,518.52l12.253,21.3,16.8-35.716-27.172,13.753" transform="translate(-454.209 -434.669)"/><path class="d" d="M530.1,518.195l20.921-7-9.21,26.255L558.939,502.9" transform="translate(-455.376 -433.969)"/><path class="d" d="M559.2,582l22.046,1,13.211-7.5" transform="translate(-472.348 -476.312)"/><path class="f" d="M542.917,500.3l-29.84,15.128-.333.167-.167.833h0l-9.377,47.76,1.584-.875,57.929-31.548.917-.5L543.917,499.8Zm-.875,2.084-15.92,33.257-11.669-19.254Zm-36.549,57.846,8.252-42.134,11.5,19Zm1.917.042L526.58,537.85l31.84-5.376Zm53.97-29.8-33.924,5.751L543.709,502.3Z" transform="translate(-439.687 -432.161)"/><g transform="translate(70.557 62.972)"><path class="a" d="M523.2,491.083l2.376.875,4.876,1.834L538.7,491l-12.919.125" transform="translate(-521.908 -490)"/><path class="a" d="M531.5,500.835l3.792-6.168,8.627-2.167Z" transform="translate(-526.749 -490.875)"/><path class="g" d="M531.5,500.835l3.792-6.168,8.627-2.167Z" transform="translate(-526.749 -490.875)"/><path class="c" d="M522.1,491.8l1.292,11.086,6.043-8.794" transform="translate(-521.266 -490.466)"/><path class="d" d="M523.767,501.135l1.084-5.71,4-.667L522.1,491.8" transform="translate(-521.266 -490.466)"/><path class="f" d="M537.979,488.683l-16.837.375H520.1l1.334,13.253,1.167-.833L538.437,490.1l2.125-1.5Zm-4.918,1.584-4.459,1.417c-.667-.292-2-.75-3.376-1.25Zm-11.294.583c2.459.792,4.876,1.625,5.918,2.042a62.127,62.127,0,0,1-5.084,6.376Zm4.751,6.043a19.084,19.084,0,0,0,2.667-3.876l4.834-1.542Z" transform="translate(-520.1 -488.6)"/></g><path class="f" d="M416.836,420.375l-11.336,59.1.625.667h0l36.091,38.55,1.417,1.5.75-80.35v-.708L417.086,419Zm.625,4.626,6.46,52.636-16.712.833Zm-9.544,54.887L424.3,479.1,440.424,514.6Zm34.341,35.174-16.712-36.716,17.379-35.591Zm.5-75.308-17.587,36.008-6.626-53.886Z" transform="translate(-382.704 -385.034)"/><path class="a" d="M470.2,363.68l25.172,31.09L492.5,349.3l-25.3-9,15.753,25.047Z" transform="translate(-418.69 -339.133)"/><path class="h" d="M516.919,405.743,505,377.945l9.544-16.045,2.667,41.759" transform="translate(-440.736 -351.731)"/><path class="c" d="M468.934,363.68l13.711,1.417L466.6,341.3" transform="translate(-418.34 -339.716)"/><path class="d" d="M470.9,363.3l.75-10.044,10.336,11.294L468.4,341.3" transform="translate(-419.39 -339.716)"/><path class="d" d="M506.5,378.378l9.419-11-.458-3.876" transform="translate(-441.611 -352.664)"/><path class="f" d="M492.014,347.752l-.042-.917L464.8,337.5l.167,1.459,2.5,23.088.458.583,25.422,30.882,1.584,1.917-.167-2.5Zm1,41.259-10.544-24.88-.333-.792.042-.083,8.46-13.5Zm-25.672-49.052,22.755,7.835L481.3,361.88Zm-.667,1.667,13.211,20.754L468.8,361.13Zm3.167,21.046,10.961,1.25,10.544,24.922Z" transform="translate(-417.29 -337.5)"/><g transform="translate(4.543 49.761)"><path class="a" d="M367.9,461l7.335,6.793,5.835-4.334" transform="translate(-365.316 -459.291)"/><path class="a" d="M385.5,471.992l6.418-3.792-3.167,18.629Z" transform="translate(-375.581 -463.491)"/><path class="i" d="M385.5,471.992l6.418-3.792-3.167,18.629Z" transform="translate(-375.581 -463.491)"/><path class="c" d="M366.4,461.2l8.21,7.127,2.042,13-9.919-18.3" transform="translate(-364.441 -459.408)"/><path class="d" d="M368.6,462.425l7.96,4.918L374.6,468.76l1.917,10.627-.542-.292-3.334-9.794-4.376-5.209L366.6,462.3" transform="translate(-364.558 -460.049)"/><path class="f" d="M378.162,460.442,361.7,456.9l.833,1.625,11.628,22.588,1.084,2.084,4.084-22.5Zm-12.753.5,5.668,4.876,2.042,10.169Zm6.418,3.542-6.085-5.209,10.794,2.334Zm3.042,12.586-2.292-11.336,4.918-3Z" transform="translate(-361.7 -456.9)"/></g><path class="a" d="M392.316,560.6l-19.379,10.752-.875-22.755L354.6,568.438l34.466,23.338,3.209-29.506" transform="translate(-353.016 -460.623)"/><path class="j" d="M356.267,596.2c.125.083,17.92,3.5,17.92,3.5l14.17,18.671L355.6,596.408" transform="translate(-353.6 -488.385)"/><path class="c" d="M398.4,548.7l.542,22.713,18.712-11.377" transform="translate(-378.562 -460.681)"/><path class="d" d="M398.2,551.2l12.919,10.919-12.086,9.627,18.712-9.627" transform="translate(-378.446 -462.139)"/><path class="d" d="M396.9,605l6.335,13.253,9.335,5.626" transform="translate(-377.688 -493.518)"/><path class="f" d="M391.059,559.136l.125-1.084L369.637,545.8l-.75.834-18.087,20.3.959.625,34.549,23.172,1.209.792Zm-2.167-.625-17.5,10.127-.833-20.588Zm-35.508,7.752,15.753-17.67.792,20.421Zm1.75,1.792,14.836,2.459.25.042.292.292,12.878,16.212Zm16.67,2,17.67-10.211-3.084,28.548Z" transform="translate(-350.8 -458.99)"/><path class="a" d="M561.9,423l13.378.792L568.11,406.7l14,15.42-6.293,16.587Z" transform="translate(-473.923 -377.861)"/><path class="k" d="M594.542,460,594,445.708l6.835-.708Z" transform="translate(-492.645 -400.199)"/><path class="c" d="M566.518,406.7c-.458,1.375-5.918,15.962-5.918,15.962l13.92,1.125-6.876-15.962" transform="translate(-473.165 -377.861)"/><path class="d" d="M563.3,420.429l5.293-8.627,6.21,9.294-6.418-17.3" transform="translate(-474.74 -376.169)"/><path class="f" d="M565.551,401,558.8,419.671l.625.708,14.795,16.212.542-1.375,6.085-15.5.375-1L566.51,402.125Zm.333,3.417,6.293,15.045-11.544-.667ZM561.426,420.3l11.211.667.542,12.253Zm13.169,11.419-.5-10.836,5.168-1.042Zm4.459-13.336-5.251,1.042-5.543-13.253Z" transform="translate(-472.115 -374.536)"/></g></svg>