<svg xmlns="http://www.w3.org/2000/svg" xmlns:xlink="http://www.w3.org/1999/xlink" width="138.759" height="148.847" viewBox="0 0 138.759 148.847"><defs><style>.a{fill:#1cd4f1;}.b{fill:url(#a);}.c{fill:#75cfe5;}.d{fill:#fff;}.e{fill:#002942;}.f{fill:#3f668c;}.ad,.cb,.g{fill:none;}.cb,.g{stroke:#231f20;stroke-miterlimit:10;}.g{stroke-width:0.25px;}.h{fill:#facd4e;}.i{fill:#a15b2a;}.j{fill:#707082;}.k{fill:#2b2b35;}.l{fill:#1d1d28;}.m{fill:#00141e;}.n{fill:url(#b);}.o{fill:url(#c);}.p{fill:url(#d);}.q{fill:url(#e);}.r{fill:url(#f);}.s{fill:url(#g);}.t{fill:url(#h);}.u{fill:url(#i);}.v{fill:url(#j);}.w{fill:url(#k);}.x{fill:url(#l);}.y{fill:url(#m);}.z{fill:url(#n);}.aa{fill:url(#o);}.ab{fill:url(#p);}.ac{fill:url(#q);}.ae{fill:url(#r);}.af{fill:url(#s);}.ag{fill:url(#t);}.ah{fill:url(#u);}.ai{fill:url(#v);}.aj{fill:url(#w);}.ak{fill:url(#x);}.al{fill:url(#y);}.am{fill:url(#z);}.an{fill:url(#aa);}.ao{fill:url(#ab);}.ap{fill:url(#ac);}.aq{fill:url(#ad);}.ar{fill:url(#ae);}.as{fill:url(#af);}.at{fill:url(#ag);}.au{fill:url(#ah);}.av{fill:url(#ai);}.aw{fill:url(#aj);}.ax{fill:url(#ak);}.ay{fill:url(#al);}.az{fill:url(#am);}.ba{fill:url(#an);}.bb{fill:url(#ao);}.bc{fill:url(#ap);}.bd{fill:url(#aq);}.be{fill:url(#ar);}.bf{fill:url(#as);}.bg{fill:url(#at);}.bh{fill:url(#au);}.bi{fill:url(#av);}.bj{fill:url(#aw);}.bk{fill:url(#ax);}.bl{fill:url(#ay);}.bm{fill:url(#az);}.bn{fill:url(#ba);}.bo{fill:url(#bb);}.bp{fill:url(#bc);}.bq{fill:url(#bd);}.br{fill:url(#be);}.bs{fill:url(#bf);}.bt{fill:url(#bg);}.bu{fill:url(#bh);}.bv{fill:url(#bi);}.bw{fill:url(#bj);}.bx{fill:url(#bk);}.by{fill:url(#bl);}.bz{fill:url(#bm);}.ca{fill:url(#bn);}.cb{stroke-width:2px;}.cc{fill:url(#bo);}.cd{fill:url(#bp);}.ce{fill:url(#bq);}.cf{fill:url(#br);}.cg{fill:url(#bs);}.ch{fill:url(#bt);}.ci{fill:url(#bu);}.cj{fill:url(#bv);}.ck{fill:url(#bw);}.cl{fill:url(#bx);}.cm{fill:url(#by);}.cn{fill:url(#bz);}</style><linearGradient id="a" x1="85.465" y1="-70.13" x2="86.529" y2="-70.13" gradientUnits="objectBoundingBox"><stop offset="0" stop-color="#2e3192" stop-opacity="0"/><stop offset="1" stop-color="#002942"/></linearGradient><linearGradient id="b" x1="-1.122" y1="-9.053" x2="0.07" y2="-9.053" xlink:href="#a"/><linearGradient id="c" x1="113.113" y1="18.41" x2="114.756" y2="18.41" xlink:href="#a"/><linearGradient id="d" x1="103.714" y1="17.295" x2="105.358" y2="17.295" xlink:href="#a"/><linearGradient id="e" x1="17.013" y1="-14.81" x2="19.994" y2="-14.81" xlink:href="#a"/><linearGradient id="f" x1="5.068" y1="78.23" x2="5.58" y2="78.23" xlink:href="#a"/><linearGradient id="g" x1="6.41" y1="85.171" x2="6.921" y2="85.171" xlink:href="#a"/><linearGradient id="h" x1="160.851" y1="23.105" x2="163.466" y2="23.105" xlink:href="#a"/><linearGradient id="i" x1="171.127" y1="24.128" x2="173.761" y2="24.128" xlink:href="#a"/><linearGradient id="j" x1="-3.545" y1="-9.551" x2="-2.496" y2="-9.551" xlink:href="#a"/><linearGradient id="k" x1="5.514" y1="75.497" x2="6.076" y2="75.497" xlink:href="#a"/><linearGradient id="l" x1="0.765" y1="-4.593" x2="2.141" y2="-4.593" xlink:href="#a"/><linearGradient id="m" x1="7.505" y1="84.332" x2="8.026" y2="84.332" xlink:href="#a"/><linearGradient id="n" x1="227.613" y1="-52.62" x2="229.088" y2="-52.62" xlink:href="#a"/><linearGradient id="o" x1="-24.986" y1="20.782" x2="-23.863" y2="20.782" xlink:href="#a"/><linearGradient id="p" x1="-1.108" y1="97.06" x2="-0.248" y2="97.06" xlink:href="#a"/><linearGradient id="q" x1="90.352" y1="-94.766" x2="90.771" y2="-94.766" xlink:href="#a"/><linearGradient id="r" x1="23.227" y1="282.414" x2="23.647" y2="282.414" xlink:href="#a"/><linearGradient id="s" x1="146.375" y1="-0.575" x2="147.356" y2="-0.575" xlink:href="#a"/><linearGradient id="t" x1="8.38" y1="97.52" x2="8.897" y2="97.52" xlink:href="#a"/><linearGradient id="u" x1="-28.557" y1="42.77" x2="-27.54" y2="42.77" xlink:href="#a"/><linearGradient id="v" x1="-31.657" y1="0.203" x2="-30.639" y2="0.203" xlink:href="#a"/><linearGradient id="w" x1="147.464" y1="16.827" x2="148.714" y2="16.827" xlink:href="#a"/><linearGradient id="x" x1="378.503" y1="48.369" x2="382.411" y2="48.369" xlink:href="#a"/><linearGradient id="y" x1="-49.012" y1="1.942" x2="-47.272" y2="1.942" xlink:href="#a"/><linearGradient id="z" x1="-48.465" y1="0.759" x2="-46.725" y2="0.759" xlink:href="#a"/><linearGradient id="aa" x1="236.46" y1="16.004" x2="239.168" y2="16.004" xlink:href="#a"/><linearGradient id="ab" x1="29.1" y1="-86.31" x2="29.608" y2="-86.31" xlink:href="#a"/><linearGradient id="ac" x1="-72.102" y1="-6.232" x2="-69.189" y2="-6.232" xlink:href="#a"/><linearGradient id="ad" x1="-73.49" y1="-5.326" x2="-70.577" y2="-5.326" xlink:href="#a"/><linearGradient id="ae" x1="159.265" y1="19.443" x2="160.34" y2="19.443" xlink:href="#a"/><linearGradient id="af" x1="23.905" y1="-96.422" x2="24.461" y2="-96.422" xlink:href="#a"/><linearGradient id="ag" x1="155.806" y1="11.317" x2="157.233" y2="11.317" xlink:href="#a"/><linearGradient id="ah" x1="28.698" y1="-72.152" x2="29.215" y2="-72.152" xlink:href="#a"/><linearGradient id="ai" x1="692.138" y1="149.608" x2="695.148" y2="149.608" xlink:href="#a"/><linearGradient id="aj" x1="127.943" y1="247.087" x2="129.347" y2="247.087" xlink:href="#a"/><linearGradient id="ak" x1="366.814" y1="-20.219" x2="367.972" y2="-20.219" xlink:href="#a"/><linearGradient id="al" x1="341.159" y1="6.986" x2="342.124" y2="6.986" xlink:href="#a"/><linearGradient id="am" x1="45.309" y1="-124.817" x2="45.862" y2="-124.817" xlink:href="#a"/><linearGradient id="an" x1="52.412" y1="-98.184" x2="53.26" y2="-98.184" xlink:href="#a"/><linearGradient id="ao" x1="108.938" y1="328.475" x2="109.347" y2="328.475" xlink:href="#a"/><linearGradient id="ap" x1="129.224" y1="-213.827" x2="129.647" y2="-213.827" xlink:href="#a"/><linearGradient id="aq" x1="136.623" y1="-226.139" x2="137.044" y2="-226.139" xlink:href="#a"/><linearGradient id="ar" x1="151.553" y1="6.453" x2="152.628" y2="6.453" xlink:href="#a"/><linearGradient id="as" x1="0.579" y1="59.374" x2="1.16" y2="59.374" xlink:href="#a"/><linearGradient id="at" x1="-36.011" y1="9.171" x2="-34.798" y2="9.171" xlink:href="#a"/><linearGradient id="au" x1="218.913" y1="27.477" x2="220.95" y2="27.477" xlink:href="#a"/><linearGradient id="av" x1="190.087" y1="56.994" x2="192.541" y2="56.994" xlink:href="#a"/><linearGradient id="aw" x1="-72.056" y1="-5.996" x2="-69.249" y2="-5.996" xlink:href="#a"/><linearGradient id="ax" x1="-71.557" y1="-6.639" x2="-68.729" y2="-6.639" xlink:href="#a"/><linearGradient id="ay" x1="117.959" y1="22.509" x2="119.561" y2="22.509" xlink:href="#a"/><linearGradient id="az" x1="34.691" y1="-60.185" x2="35.204" y2="-60.185" xlink:href="#a"/><linearGradient id="ba" x1="111.564" y1="-3.201" x2="112.464" y2="-3.201" xlink:href="#a"/><linearGradient id="bb" x1="-32.348" y1="-13.563" x2="-30.616" y2="-13.563" xlink:href="#a"/><linearGradient id="bc" x1="-33.025" y1="-12.979" x2="-31.301" y2="-12.979" xlink:href="#a"/><linearGradient id="bd" x1="182.355" y1="38.519" x2="183.69" y2="38.519" xlink:href="#a"/><linearGradient id="be" x1="28.764" y1="-121.988" x2="29.305" y2="-121.988" xlink:href="#a"/><linearGradient id="bf" x1="160.131" y1="18.143" x2="161.761" y2="18.143" xlink:href="#a"/><linearGradient id="bg" x1="33.943" y1="-63.229" x2="34.45" y2="-63.229" xlink:href="#a"/><linearGradient id="bh" x1="50.855" y1="319.998" x2="51.932" y2="319.998" xlink:href="#a"/><linearGradient id="bi" x1="288.027" y1="5.917" x2="288.967" y2="5.917" xlink:href="#a"/><linearGradient id="bj" x1="277.559" y1="39.732" x2="278.405" y2="39.732" xlink:href="#a"/><linearGradient id="bk" x1="56.198" y1="-89.887" x2="57.016" y2="-89.887" xlink:href="#a"/><linearGradient id="bl" x1="64.202" y1="419.723" x2="64.573" y2="419.723" xlink:href="#a"/><linearGradient id="bm" x1="157.841" y1="-113.594" x2="158.292" y2="-113.594" xlink:href="#a"/><linearGradient id="bn" x1="166.633" y1="-119.964" x2="167.082" y2="-119.964" xlink:href="#a"/><linearGradient id="bo" x1="0.001" y1="0.5" x2="1" y2="0.5" xlink:href="#a"/><linearGradient id="bp" x1="34.269" y1="-42.372" x2="34.776" y2="-42.372" xlink:href="#a"/><linearGradient id="bq" x1="-1.519" y1="77.412" x2="-1.014" y2="77.412" xlink:href="#a"/><linearGradient id="br" x1="101.153" y1="-3.739" x2="102.106" y2="-3.739" xlink:href="#a"/><linearGradient id="bs" x1="-24.163" y1="41.176" x2="-23.192" y2="41.176" xlink:href="#a"/><linearGradient id="bt" x1="65.572" y1="3.096" x2="66.586" y2="3.096" xlink:href="#a"/><linearGradient id="bu" x1="59.889" y1="255.799" x2="60.32" y2="255.799" xlink:href="#a"/><linearGradient id="bv" x1="17.329" y1="61.232" x2="17.665" y2="61.232" xlink:href="#a"/><linearGradient id="bw" x1="19.922" y1="-28.37" x2="20.459" y2="-28.37" xlink:href="#a"/><linearGradient id="bx" x1="8.925" y1="121.043" x2="9.441" y2="121.043" xlink:href="#a"/><linearGradient id="by" x1="182.982" y1="-130.642" x2="183.431" y2="-130.642" xlink:href="#a"/><linearGradient id="bz" x1="683.862" y1="149.213" x2="686.87" y2="149.213" xlink:href="#a"/></defs><g transform="translate(0 0)"><g transform="translate(45.784 134.622)"><path class="a" d="M434.377,735.448,428.1,729.9,414.5,736.1l6.9-12.2,7.924,2.434" transform="translate(-413.932 -723.521)"/><path class="b" d="M447.62,729.833l1.325-3.353L441.4,724.1l5.923,5.517" transform="translate(-433.557 -723.667)"/><path class="c" d="M414.8,752.536l19.715-.649L428.1,746.1l-13.6,6.193" transform="translate(-413.932 -739.718)"/><path class="d" d="M433.806,752.082l-14.766-.433,8.681-4.949L414.2,752.785" transform="translate(-413.713 -740.156)"/><path class="d" d="M447.658,729.463l-4.138-4.922L441.6,724" transform="translate(-433.703 -723.594)"/><path class="e" d="M412.941,735.427l20.58-.541-.243-.406-5.057-9.087-.135-.243-7.951-2.569-.27-.081L412.4,735.454Zm1.028-.514,12.44-5.868,6.085,5.382Zm18.254-1.352-5.49-4.841,1.217-2.839Zm-4.624-8.086-1.244,2.894-5.409-5.03Zm-7.572-2.326L426,728.72l-12.6,5.923Z" transform="translate(-412.4 -722.5)"/></g><g transform="translate(7.275 7.951)"><path class="f" d="M308.5,356.9l33.993,21.418,72.638,15.631L388.2,373.937" transform="translate(-298.088 -329.099)"/><line class="g" x2="13.657" y2="16.902" transform="translate(103.928 34.832)"/><path class="h" d="M372.8,277.144,288.347,263,272.5,284.635l90.244,19.228Z" transform="translate(-271.824 -260.593)"/><path class="i" d="M311.5,298.626l8-10.926,73.4,12.278L387.33,314.8Z" transform="translate(-300.277 -278.613)"/><path class="g" d="M331,305.6l4.084-5.6,70.935,11.872" transform="translate(-314.504 -287.587)"/><path class="g" d="M323.7,308.3l6.058-8.3,56.872,9.519" transform="translate(-309.178 -287.587)"/><line class="g" x2="20.634" y2="25.529" transform="translate(101.683 32.073)"/><path class="i" d="M362.744,362.228,272.5,343l42.539,26.151,80.914,17.957Zm-73.477-12.521,72.179,15.388,21.283,15.928L316.2,366.257Z" transform="translate(-271.824 -318.958)"/><path class="g" d="M361.8,259.372l1.92-3.272,79.507,13.116-2.326,6.544" transform="translate(-336.974 -255.559)"/><line class="g" x2="19.823" y2="33.966" transform="translate(106.253 13.657)"/><line class="g" x1="1.352" y1="3.326" transform="translate(19.228 9.087)"/><path class="j" d="M330.221,300.4l-1.433.487-.514.649L323,308.567l72.72,15.5,4.408-11.737Z" transform="translate(-308.667 -287.879)"/><path class="h" d="M354.3,275.7" transform="translate(-331.502 -269.859)"/><path class="h" d="M359.8,260.7l2.461-4.6,18.146,2.975,4.841-2.975,29.612,5.111,3.083,4.056,23.825,3.948-3.218,8.275L362.5,262.05" transform="translate(-335.515 -255.559)"/><path class="i" d="M652.1,306.2l-4,10.709L672.52,341.9l-2.542-5.49" transform="translate(-545.849 -292.11)"/><path class="i" d="M639.409,366.9,606.2,342.019,616.26,315.3l29.964,37.1Z" transform="translate(-515.28 -298.749)"/><path class="k" d="M636.862,372.2l-3.462,9.195,23.528,17.578.433-.919Z" transform="translate(-535.124 -340.262)"/><path class="k" d="M339.713,302.023l-9.492-1.623-1.433.487-.514.649L323,308.567l29.531,6.3Z" transform="translate(-308.667 -287.879)"/><path class="k" d="M459.011,330.411l25.935,5.544,1.677-4.489-9.276-9.3L445.3,316.7Z" transform="translate(-397.893 -299.771)"/><path class="l" d="M688.737,438.588l.433-.919L680.326,426.5,677,429.826Z" transform="translate(-566.934 -379.877)"/><path class="d" d="M365.327,302.456l9.519-25.313L290.39,263,275.3,283.634l.081.676,16.226-18.876,78.372,12.981-5.463,24.853Z" transform="translate(-273.867 -260.593)"/><path class="d" d="M364.016,258.994l80.021,10.6-.054-.514-23.122-3.813-3.083-4.056L388.166,256.1l-4.841,2.975L365.179,256.1l-1.379,2.569Z" transform="translate(-338.433 -255.559)"/><g transform="translate(0 0)"><path class="m" d="M396.455,301.453,376.767,267.7h0l-.216-.379-23.879-3.948-3.056-4.084-29.991-5.165-4.841,3-17.957-2.975-.324-.054-1.893,3.272-8.275-1.379L270.487,277.6l-.487.676.514.325,42.458,26.124.054.054,80.887,17.93.487.108.325-.7,6.761-14.387Zm-3.975-4.922L374.468,274.22l1.893-5.328Zm-72.666-41.4,29.261,5.057,2.245,2.975-35.129-5.787Zm-22.825.027,18.119,2.975,36.914,6.085,23.582,3.894-1.839,5.219-2.245-2.785-.27-.352-.568-.108L295.61,257.535Zm-10.249,1.866,8.465,1.406,75.126,12.6L360.649,296.8l-.027.054-89.135-19.011ZM313.4,303.833l-40.132-24.664,55.141,11.764,32.317,6.9h0L392.074,321.3Zm80.562,17.659-32.452-24.285,2.082-5.517,7.545-20.093,24.528,30.37,4.733,5.868Z" transform="translate(-270 -254.1)"/><path class="m" d="M634.78,361.389l-3.38,9.005,24.258,18.173.946-2.028,1.406-2.975L636.484,356.9Zm20.5,25.691-22.743-17.037,2.975-7.951,1.7,2.109,13.657,16.9,4.543,5.625Zm1.6-3.38-1,2.109-4.273-5.273-13.657-16.9-2.055-2.542.865-2.3Z" transform="translate(-533.665 -329.099)"/><path class="m" d="M351.835,369.66l-.027-.027h0L324.9,363.9l29.288,18.011.054.054,68.771,15.252L399.891,379.91Zm47.65,11.115,3.786,2.84L358.812,374.1l-4.678-2.975Zm-48-10.222,6.49,4.165-3.678,6.166-24.177-14.874Zm3.7,10.655,3.651-6.112,46.244,9.9L418.9,395.351Z" transform="translate(-310.053 -334.206)"/><path class="m" d="M391.434,298.213,317.2,285.8l-.406.568-8.194,11.2,4.435.946,72.476,15.442,4.462-11.845Zm-78.967-.811-2.272-.487,7.058-9.654.947,2.3-3.948,5.382Zm72.449,15.469-71.422-15.225,1.541-2.109,3.921-5.355,56.575,9.465,13.495,2.272ZM375.695,298.7l-56.6-9.465-.947-2.3,71.989,12.034-.757,2Z" transform="translate(-298.161 -277.227)"/></g></g><path class="m" d="M272.5,469.178c.73,0,48.435-3.678,48.435-3.678L391,477.507l-40,21.581L272.5,471.422" transform="translate(-264.549 -400.38)"/><g transform="translate(79.264 58.278)"><path class="a" d="M541.646,441.5l2.38,6-6.626-.595,5.111,5.814,8.032-9.114-8.411-2.055" transform="translate(-537.075 -441.148)"/><path class="n" d="M556.4,458.965c.027-.027,1.677-5.057,1.677-5.057l5.95-3.407-7.6,8.681" transform="translate(-550.937 -447.714)"/><path class="c" d="M537.6,446.765l6.6.676-2.6-5.841" transform="translate(-537.221 -441.221)"/><path class="d" d="M538.6,446.746l3.678-3.326,2.326,3.867-2.082-5.787" transform="translate(-537.951 -441.148)"/><path class="d" d="M562.6,454.24l4.084-1.352,2-2.488" transform="translate(-555.461 -447.642)"/><path class="e" d="M540.852,440.281l-.3-.081-4.354,5.787.216.243,5.192,6,.216-.243,8-9.168.27-.324Zm-.27.595,2.272,5.463-6-.541Zm.919,10.6-4.543-5.246,5.95.514Zm.595-.46,1.271-4.219.027-.081.108-.081,5.165-3.137Zm1.19-4.76-2.3-5.517,8.167,1.947Z" transform="translate(-536.2 -440.2)"/></g><g transform="translate(58.603 48.029)"><path class="a" d="M474.168,416.329l-7.3-11.629L460.7,423.116l10.006,2.488L467.3,414.517l6.68,1.839" transform="translate(-460.457 -404.051)"/><path class="o" d="M467.177,404.1l.352,10.087-6.328,8.221,5.733-17.227" transform="translate(-460.821 -403.613)"/><path class="c" d="M492.069,442.509,485.2,440.4l3.516,10.98,3.083-8.356" transform="translate(-478.331 -430.096)"/><path class="d" d="M492.528,443.685l-3.056,5.679L486.2,441.9l3.218,10.817" transform="translate(-479.061 -431.191)"/><path class="d" d="M467.347,440.5l-4.895,4.165L461.1,448.91" transform="translate(-460.748 -430.169)"/><path class="e" d="M470.4,423.908l3.38-9.195.027-.108-.135-.216h0L466.155,402.3l-.162.514-6.112,18.335-.081.27,10.493,2.813Zm-.243-.6-3.218-10.276,6.328,1.785Zm-3.7-19.66,6.626,10.655-6.247-1.758Zm-.406.352.379,8.627-5.76,7.491Zm-5.625,17.145,6.112-7.978,3.272,10.493Z" transform="translate(-459.8 -402.3)"/></g><g transform="translate(89.649 54.465)"><path class="a" d="M588.941,440.029,581.666,428.4,575.5,446.816l9.979,2.488-3.38-11.088,6.68,1.839" transform="translate(-575.257 -427.778)"/><path class="p" d="M581.977,427.8l.352,10.087L576,446.108l5.733-17.227" transform="translate(-575.621 -427.34)"/><path class="c" d="M606.869,466.209,600,464.1l3.516,10.98,3.083-8.356" transform="translate(-593.131 -453.824)"/><path class="d" d="M607.328,467.385l-3.056,5.679L601,465.6l3.218,10.817" transform="translate(-593.861 -454.918)"/><path class="d" d="M582.147,464.2l-4.895,4.165L575.9,472.61" transform="translate(-575.548 -453.896)"/><path class="e" d="M585.174,447.681l3.38-9.195.027-.108-.135-.216h0L580.928,426.1l-.162.514L574.681,444.9l-.081.27,10.493,2.813Zm-.216-.595-3.218-10.276,6.328,1.785Zm-3.7-19.66,6.625,10.655-6.247-1.758Zm-.406.352.379,8.627-5.733,7.491Zm-5.625,17.145,6.112-7.978,3.272,10.493Z" transform="translate(-574.6 -426.1)"/></g><g transform="translate(43.675 46.65)"><path class="a" d="M405.7,408.255l10.574,8.762.081-19.417-10.249.757,6.68,9.465-6.923.352" transform="translate(-405.402 -397.492)"/><path class="q" d="M435.689,417.955,432.2,408.49l3.462-9.79-.081,18.146" transform="translate(-424.736 -398.294)"/><path class="c" d="M405.4,410.965l7.194-.108-6.761-9.357-.324,8.9" transform="translate(-405.184 -400.337)"/><path class="d" d="M406.2,410.219l1.163-6.328,5.409,6.058-6.409-9.249" transform="translate(-405.767 -399.753)"/><path class="d" d="M432.9,408.852l3.353-5.517L436.2,398.9" transform="translate(-425.247 -398.44)"/><path class="e" d="M404.952,398.12l-.352,9.79v.108l.189.162h0l10.926,9.141v-.541L415.8,397.5v-.3l-10.844.595Zm.406.514,6.274,8.762-6.572.27Zm9.655,17.524-9.627-8.059,6.49-.27Zm.27-.487-3.029-8.059,3.11-8.924Zm0-18.038-3.326,9.492-6.382-8.951Z" transform="translate(-404.6 -397.2)"/></g><g transform="translate(62.064 53.275)"><path class="a" d="M482.678,422.827l4.408,11.2,4.868-11.223,3.326,2.785-2.407,14.5L474.7,437.16l.108-.649Z" transform="translate(-474.132 -422.503)"/><path class="r" d="M487.086,464.3,474.7,467.437l18.173,2.921Z" transform="translate(-474.132 -452.78)"/><path class="c" d="M513.03,422.2l-4.706,11.493L503.7,422.254l8.816.054" transform="translate(-495.29 -422.065)"/><path class="c" d="M528.175,433.4l-8.275,8.329,6.031,6.031" transform="translate(-507.108 -430.236)"/><path class="d" d="M505.1,422.962l7.194.892-3.056,9.6,4.895-10.655" transform="translate(-496.311 -422.503)"/><path class="d" d="M521.5,441.319l6.869-6.031L526.909,447l2.488-14.2-7.843,8.032" transform="translate(-508.276 -429.798)"/><path class="d" d="M520.1,465.1l4.435,5.706,1.406.108" transform="translate(-507.254 -453.363)"/><path class="e" d="M493.964,424.783l.027-.243-3.434-2.84h-.27l-9.357.027-.135.243L472.6,436.493l.379.054,18.227,3,.135.027.216.027Zm-.514-.135-7.248,7.545,4.354-9.925Zm-3.272-2.515-4.624,10.52-4.138-10.493Zm-16.794,13.873,7.653-13.576,4.192,10.628Zm.622.3,11.142-2.758.3-.081.081.081,5.246,5.544Zm11.818-3.083,7.626-7.924-2.218,13.63Z" transform="translate(-472.6 -421.7)"/></g><g transform="translate(19.174 50.057)"><path class="a" d="M323.978,410.927l4.408,11.2,4.868-11.223,3.353,2.813-2.434,14.468L316,425.26l.108-.649Z" transform="translate(-315.459 -410.602)"/><path class="s" d="M328.386,452.4,316,455.537l18.173,2.921Z" transform="translate(-315.459 -440.88)"/><path class="c" d="M354.357,410.4l-4.733,11.466L345,410.427l8.843.054" transform="translate(-336.617 -410.238)"/><path class="c" d="M369.5,421.5l-8.3,8.329,6.058,6.031" transform="translate(-348.436 -418.336)"/><path class="d" d="M346.4,411.062l7.221.892-3.056,9.6,4.868-10.655" transform="translate(-337.638 -410.602)"/><path class="d" d="M362.8,429.492l6.869-6.031-1.46,11.737,2.515-14.2-7.843,8" transform="translate(-349.603 -417.971)"/><path class="d" d="M361.5,453.3l4.408,5.679,1.406.108" transform="translate(-348.654 -441.536)"/><path class="e" d="M335.364,412.883l.027-.243-3.435-2.84h-.27l-9.357.027-.135.243L314,424.593l.379.054,18.227,3,.135.027.216.027Zm-.514-.135-7.248,7.545,4.354-9.925Zm-3.3-2.515-4.624,10.52-4.138-10.493Zm-16.794,13.873,7.653-13.576,4.192,10.628Zm.622.3,11.142-2.758.3-.081.081.081,5.246,5.544ZM327.2,421.32l7.626-7.924-2.218,13.63Z" transform="translate(-314 -409.8)"/></g><g transform="translate(58.008 51.923)"><path class="a" d="M469.7,428.03l-10.06-9.33L458.5,438.09l10.276-.189-6.166-9.817,6.95.027" transform="translate(-458.257 -418.159)"/><path class="t" d="M459.7,418.2l2.975,9.654-3.975,9.6,1.055-18.146" transform="translate(-458.402 -417.794)"/><path class="c" d="M480.866,452.97l-7.166-.27,6.247,9.709.811-8.87" transform="translate(-469.346 -442.964)"/><path class="d" d="M481.672,454.081l-1.487,6.247L475.1,454l5.9,9.573" transform="translate(-470.367 -443.913)"/><path class="d" d="M462.44,453.1l-3.651,5.3-.189,4.435" transform="translate(-458.33 -443.256)"/><path class="e" d="M468.5,436.415l.865-9.736v-.108l-.189-.162h0L458.763,416.7l-.027.541L457.627,436.5l-.027.3,10.844-.027Zm-.406-.541-5.76-9.087,6.572.081Zm-8.681-18.011,9.168,8.573-6.49-.081Zm-.3.46,2.6,8.221-3.6,8.735Zm-.974,18.011,3.813-9.3,5.9,9.276Z" transform="translate(-457.6 -416.7)"/></g><g transform="translate(37.104 47.164)"><path class="a" d="M392.3,410.6l-10.087-9.3L381.1,420.663l10.276-.216-6.166-9.79,6.923.027" transform="translate(-380.884 -400.705)"/><path class="u" d="M382.274,400.7l2.975,9.654-3.948,9.6,1.028-18.119" transform="translate(-381.03 -400.267)"/><path class="c" d="M403.394,435.47l-7.194-.27,6.274,9.681.784-8.843" transform="translate(-391.9 -425.437)"/><path class="d" d="M404.172,436.554l-1.487,6.274L397.6,436.5l5.922,9.573" transform="translate(-392.922 -426.386)"/><path class="d" d="M385.013,435.6l-3.651,5.3-.162,4.462" transform="translate(-380.957 -425.729)"/><path class="e" d="M391.171,418.815l.838-9.736v-.108l-.162-.162h0L381.436,399.1l-.027.541L380.327,418.9l-.027.3,10.844-.027Zm-.406-.514-5.787-9.087,6.572.081Zm-8.708-18.011,9.195,8.546-6.49-.081Zm-.325.46,2.623,8.221-3.57,8.735Zm-.919,18.011,3.813-9.3,5.923,9.276Z" transform="translate(-380.3 -399.1)"/></g><g transform="translate(71.881 59.549)"><path class="a" d="M511.2,463.632l6.653-3.326L517.285,447l7.761,9.763-4.651,5.733" transform="translate(-510.578 -446.432)"/><path class="v" d="M536.6,487.491l2.326,2.218,4.489-5.409-6.544,3.029" transform="translate(-529.109 -473.645)"/><path class="c" d="M516.231,447.189,510.2,463.659l6.923-3.353L516.555,447" transform="translate(-509.848 -446.432)"/><path class="d" d="M511.5,463.115l5.273-12.034,1.217,8.816-.514-13.2" transform="translate(-510.797 -446.213)"/><path class="d" d="M537.6,487.591l5.436-1.785,1.109-1.406" transform="translate(-529.839 -473.718)"/><path class="e" d="M515.309,445.333,508.9,462.505l.433-.054,9.195-1.136.243-.027,4.76-5.706.162-.189L515.471,444.9Zm.081,1.028.7,12.224-6.463,3.245Zm-4.949,15.523,5.841-2.921,1.92,1.947Zm8.194-1.136-1.974-2,5.95-2.785Zm4.462-5.463-6.6,3.083-.7-12.386Z" transform="translate(-508.9 -444.9)"/></g><g transform="translate(55.52 65.688)"><path class="a" d="M462.158,468.6,450.8,476.28l18.606,5.544,2.163-10.06-10.98,3.759,1.623-6.734" transform="translate(-450.151 -468.33)"/><path class="w" d="M450.2,495.376l10.06-.676,8.438,6.058-17.389-5.192" transform="translate(-449.713 -487.371)"/><path class="c" d="M488.293,468.5l-1.893,6.923,10.871-3.894-8.438-2.785" transform="translate(-476.124 -468.257)"/><path class="d" d="M489.469,469.4l5.76,2.894-7.329,3.489,10.682-3.57" transform="translate(-477.218 -468.913)"/><path class="d" d="M486.5,495.1l4.354,4.76,4.273,1.19" transform="translate(-476.197 -487.663)"/><path class="e" d="M469.872,470.683l-9.3-3.056-.108-.027-.216.135h0L448.4,475.659l.514.162,18.471,5.49.3.081,2.461-10.574Zm-.622.243-10.168,3.543,1.568-6.382Zm-19.525,4.354,10.439-6.977-1.569,6.3Zm.379.406,8.6-.649,7.68,5.49Zm17.335,5.03-8.194-5.841,10.385-3.624Z" transform="translate(-448.4 -467.6)"/></g><g transform="translate(44.892 54.033)"><path class="a" d="M410.3,437.67l11.629-2.948-10.493-6.247,3.191-2.975,14.063,4.246L423.5,447.405l-.622-.189Z" transform="translate(-409.975 -425.23)"/><path class="x" d="M453.3,446.176l1.568,12.683,5.192-17.659Z" transform="translate(-441.347 -436.684)"/><path class="c" d="M410.836,436.7l10.79,6.139L409.7,445.976l1.163-8.762" transform="translate(-409.538 -433.401)"/><path class="c" d="M426.5,425.9l7.221,9.276,6.761-5.246" transform="translate(-421.794 -425.521)"/><path class="d" d="M410.8,445.478l1.812-7.031,9.141,4.246L411.8,436.5" transform="translate(-410.34 -433.255)"/><path class="d" d="M433.437,434.524l-5.111-7.572,11.439,2.921L426,425.6l6.95,8.816" transform="translate(-421.43 -425.302)"/><path class="d" d="M454.2,446.43l6.193-3.651.3-1.379" transform="translate(-442.003 -436.83)"/><path class="e" d="M413.779,424.581l-.243-.081-3.245,3.056-.027.27L409.1,437.1l.243.162,13.36,9.979.108-.379,5.273-17.686.027-.135.054-.216Zm-.216.487,6.572,8.14-9.3-5.6Zm-2.894,2.948,9.844,5.922-10.925,2.786ZM422.3,446.432,409.8,437.1l11.061-2.813Zm.352-.595L421.3,434.425l-.027-.3.081-.054,6.166-4.516Zm-1.542-12.115-6.9-8.573,13.224,3.921Z" transform="translate(-409.1 -424.5)"/></g><g transform="translate(77.452 62.524)"><path class="a" d="M540.922,457.1l3.38,11.521,5.841-10.736,3.083,3.083-3.678,14.2L531.7,470.649l.162-.622Z" transform="translate(-531.105 -456.775)"/><path class="y" d="M544.3,499.7l-12.6,2.028,17.849,4.516Z" transform="translate(-531.105 -487.855)"/><path class="c" d="M574.63,457.284,568.9,468.291,565.3,456.5l8.789.838" transform="translate(-555.618 -456.338)"/><path class="c" d="M586.705,471.6l-9.005,7.545,5.49,6.572" transform="translate(-564.665 -467.354)"/><path class="d" d="M566.6,457.6l7.112,1.542-3.894,9.276,5.787-10.168" transform="translate(-556.567 -457.14)"/><path class="d" d="M579.3,478.861l7.383-5.409L584.195,485l3.732-13.9-8.519,7.275" transform="translate(-565.832 -466.989)"/><path class="d" d="M577.9,500.5l3.894,6.085,1.379.216" transform="translate(-564.811 -488.439)"/><path class="e" d="M551.838,460.119l.054-.243-3.164-3.137-.27-.027-9.33-.811-.162.243L529.5,469.881l.379.108,17.876,4.624.135.027.216.054Zm-.487-.189-7.9,6.869,5.246-9.492Zm-3.056-2.813-5.544,10.06L539.56,456.36Zm-17.957,12.332,8.843-12.819,3.245,10.953Zm.595.325,11.358-1.758.3-.054.054.081,4.733,5.977Zm12.034-2,8.3-7.221-3.435,13.386Z" transform="translate(-529.5 -455.9)"/></g><g transform="translate(78.291 74.504)"><path class="a" d="M534.252,508.716l.216-.7.433-1.46-1-2.353.324,3.759" transform="translate(-533.548 -503.118)"/><path class="a" d="M537.2,507.161l-1.866-.973L534.5,503.7Z" transform="translate(-533.986 -502.754)"/><path class="z" d="M537.2,507.161l-1.866-.973L534.5,503.7Z" transform="translate(-533.986 -502.754)"/><path class="c" d="M535.5,515.464l3.218-.6-2.7-1.569" transform="translate(-534.716 -509.757)"/><path class="d" d="M538.177,515.225l-1.677-.189-.271-1.136-.73,2" transform="translate(-534.716 -510.195)"/><path class="e" d="M532.654,500.984l.487,4.895.027.3,3.84-.676-.27-.324-3.651-4.381-.487-.595Zm.568,1.406.514,1.271a9.95,9.95,0,0,0-.3,1Zm.406,3.272c.189-.73.379-1.46.46-1.758a17.544,17.544,0,0,1,1.974,1.352Zm1.677-1.514a5.657,5.657,0,0,0-1.19-.7l-.541-1.379Z" transform="translate(-532.6 -500.2)"/></g><g transform="translate(42.783 45.514)"><path class="a" d="M403.2,394.909l5.138.974.514-2.082,2.028,4.787-2.731,3-4.868-6.409" transform="translate(-402.686 -393.584)"/><path class="aa" d="M421.77,402.6l-.27,5.409,2.65-2.677Z" transform="translate(-416.037 -400.004)"/><path class="c" d="M404.4,394.663l4.706,1.136.649-2.3" transform="translate(-403.562 -393.365)"/><path class="d" d="M406.9,395l3.651-.054.324.919.811-1.866" transform="translate(-405.386 -393.73)"/><path class="d" d="M422.9,403.9l1.731,3.056.568-.784" transform="translate(-417.059 -400.952)"/><path class="e" d="M407.709,393.27,407.6,393l-5.868,1.028-.433.081,5.219,7,.216.3,3-3-.081-.189Zm-.189.676,1.325,3.326-1.677-1.947Zm-.352-.433-.352,1.433-.054.189h-.054l-3.921-.838Zm-4.949,1.082,4.516.974-.135,4.895Zm4.814,5.977.108-4.624,2.082,2.407Z" transform="translate(-401.3 -393)"/></g><g transform="translate(52.14 71.394)"><path class="a" d="M449.642,490.1,438.5,493.724l12.737,3.975,5.084-5.977L447.83,493.4Z" transform="translate(-437.797 -489.721)"/><path class="ab" d="M440.4,502.652l8.816-.352,3.407,4.3-11.683-3.651" transform="translate(-439.183 -498.622)"/><path class="c" d="M475.712,489.4l-1.812,3.57,8.167-1.866" transform="translate(-463.624 -489.211)"/><path class="d" d="M476.587,490.4l2.677,1.271-4.165,1.623,7.761-1.244" transform="translate(-464.499 -489.94)"/><path class="d" d="M473.3,503.1l2.028,3.732,1.082.27" transform="translate(-463.186 -499.206)"/><path class="e" d="M449.205,496.894l.243.081,5.409-6.436-.433-.108-6.572-1.731-.189.054-11.088,3.7-.676.216.7.216Zm-11.358-4.029,7.9-.27h.243l.027.027,2.813,3.732ZM453.911,491l-4.516,5.409-2.921-3.894Zm-.379-.379-7.031,1.433,1.514-2.894Zm-6.085-1.325-1.487,2.867-7.924.27Z" transform="translate(-435.9 -488.7)"/></g><g transform="translate(45.406 67.284)"><path class="a" d="M413.6,478.935l2.569-1.406-.649-2.028" transform="translate(-412.897 -474.959)"/><path class="a" d="M421.86,477.236l-.46-2.136,4.868,2.6Z" transform="translate(-418.587 -474.667)"/><path class="ac" d="M421.86,477.236l-.46-2.136,4.868,2.6Z" transform="translate(-418.587 -474.667)"/><path class="c" d="M413.5,484.423l2.731-1.623,3.813.649-6,1.055" transform="translate(-412.824 -480.285)"/><path class="d" d="M414.216,482.158l2.109-1.758.216.676,3.11.46-.108.108-3.029.027-1.866.73-.649.3" transform="translate(-413.189 -478.534)"/><path class="e" d="M413.515,473.8,411,478.043l.514-.081,7.356-1.136.676-.108-5.868-3.218Zm-1.055,3.57,1.866-1.109,3,.379Zm1.568-1.433-2,1.217,1.65-2.785Zm3.786.325-3.353-.406-.379-1.65Z" transform="translate(-411 -473.5)"/></g><line class="ad" x2="4.165" y2="1.244" transform="translate(45.676 71.259)"/><line class="ad" x2="3.813" y2="1.136" transform="translate(60.55 75.721)"/><path class="e" d="M382.289,424.155,382.1,427.7l.3.189.27-4.787" transform="translate(-344.51 -369.446)"/><g transform="translate(100.682 69.096)"><path class="d" d="M630.8,497.3l.379,1.433.838-.162" transform="translate(-626.635 -492.676)"/><g transform="translate(0)"><path class="a" d="M618.969,482.243l1.352,3.678L624.053,482l-2.488,5.571-5.165.243Z" transform="translate(-616.13 -481.513)"/><path class="ae" d="M617.4,498.112l3.786-1.812.974,1.758Z" transform="translate(-616.859 -491.946)"/><path class="c" d="M630.976,481.2c-.433.027-4.976.27-4.976.27l1.325,3.867,3.462-3.732" transform="translate(-623.133 -480.93)"/><path class="d" d="M627,481.495l2.948.406-1.758,2.758,3.867-3.759" transform="translate(-623.863 -480.711)"/><path class="e" d="M623.892,480.2l-5.787.379-.108.243-2.6,5.868.433-.027,4.868-.189h.3l2.731-5.9Zm-.892.487-3.3,3.461-1.163-3.164Zm-4.787.676,1.136,3.083-3.218,1.569Zm-1.487,4.868,2.84-1.406.892,1.271Zm4.084-.379-.892-1.3,2.894-3.029Z" transform="translate(-615.4 -480.2)"/></g></g><path class="d" d="M318.014,224.7a11.815,11.815,0,0,1-4.814,9.627,11.756,11.756,0,0,1,4.814,9.627,11.814,11.814,0,0,1,4.814-9.627A11.814,11.814,0,0,1,318.014,224.7Z" transform="translate(-294.243 -224.7)"/><g transform="translate(14.117 53.816)"><path class="a" d="M302.909,425.316l1.055,16.821,5.165-.676-.135.216-8.248,12.954L296.5,431.861l6.355-6.761" transform="translate(-296.175 -424.721)"/><path class="af" d="M303.964,461.69,296.5,451.9l4.138,22.067Z" transform="translate(-296.175 -444.274)"/><path class="c" d="M326.858,442.993,320.8,427.2l.649,16.334" transform="translate(-313.904 -426.253)"/><path class="d" d="M326.377,441.3l-5.138-11.6.271,12.251L320.4,425.1" transform="translate(-313.612 -424.721)"/><path class="d" d="M303.712,461.917l-6.9-8.627-.216-1.19" transform="translate(-296.248 -444.42)"/><path class="e" d="M302.088,423.7l-6.788,7.248.027.108.027.081,4.435,23.068.325-.514,8.356-12.981h0l.135-.243-6.355-16.415Zm5.977,16.578-4.841.649-.892-15.469Zm-7.653,12.142,2.785-11.061,4.76-.622Zm-4.489-20.526,6.869,9.33-2.867,11.439Zm5.9-7.3.919,15.847L295.787,431Z" transform="translate(-295.3 -423.7)"/></g><g transform="translate(25.015 55.412)"><path class="a" d="M339.126,447.153l8.194-8.816.406,12.224,4.165-1.379,3.029-14.36L336.935,430.9l-.135.622Z" transform="translate(-336.475 -430.548)"/><path class="ag" d="M347.685,438.337,337.3,430.9l17.984,3.921Z" transform="translate(-336.84 -430.548)"/><path class="c" d="M353.381,470.613l-.189-12.413-8.492,8.924,8.248,3.191" transform="translate(-342.239 -450.466)"/><path class="c" d="M379.779,459.9l-4.679-10.79,7.843-3.407" transform="translate(-364.418 -441.346)"/><path class="d" d="M346.4,468.621l7.031,1.812.676-10.033.622,11.683" transform="translate(-343.479 -452.071)"/><path class="d" d="M376.308,449.826l4.192,8.14,2.948-11.466-2.894,14.144L376.2,450.286" transform="translate(-365.22 -441.93)"/><path class="d" d="M375.7,447.578l6.193-3.678,1.352.406" transform="translate(-364.856 -440.033)"/><path class="e" d="M354.368,433.629l-.216-.054-.135-.027-18.038-3.867-.379-.081,2.326,16.5.027.3,8.708,3.434.243.108,4.246-1.379.054-.243Zm-7.248,15.793-.433-10.844,3.975,9.655Zm-8.6-3.272,7.707-8.248.46,11.466Zm7.572-8.735-7.789,8.356-2.163-15.442Zm7.356-3.543-6.923,3.245-.081.054-.243-.189-9.357-6.653Zm.379.3-2.921,13.495L346.715,437.5Z" transform="translate(-335.6 -429.6)"/></g><g transform="translate(36.725 54.276)"><path class="a" d="M381.3,426.8l6.869,2.867.352,13.305,7.085-10.276-5.03-5.382" transform="translate(-380.651 -426.421)"/><path class="ah" d="M407.5,431.053l2.19-2.353,4.841,5.084-6.734-2.569" transform="translate(-399.766 -427.808)"/><path class="c" d="M387.539,442.81,380.4,426.8l7.112,2.867.352,13.305" transform="translate(-379.994 -426.421)"/><path class="d" d="M381.8,427.9l6.085,11.629.595-8.843.406,13.17" transform="translate(-381.016 -427.224)"/><path class="d" d="M408.6,437.3l5.544,1.406,1.19,1.325" transform="translate(-400.568 -434.082)"/><path class="e" d="M386.688,442.545l7.464-11.034-.189-.189-5.138-5.355-.243-.027-9.249-.514-.433-.027,7.6,16.686Zm-7-16.469,6.68,2.785.162,12.224Zm8.627.3-1.785,2.082-6-2.515Zm4.76,4.624-6.139-2.38,1.839-2.109Zm-6.139,10.412-.162-12.386,6.788,2.623Z" transform="translate(-378.9 -425.4)"/></g><g transform="translate(44.216 46.46)"><path class="a" d="M413.714,398.216l-.622,16.848-5.192-.541.135.216,8.573,12.71,3.651-22.852-6.518-6.6" transform="translate(-407.548 -397.594)"/><path class="ai" d="M427.1,434.106l7.194-10.006-3.57,22.176Z" transform="translate(-421.556 -416.636)"/><path class="c" d="M407.9,416.056l5.625-15.956-.216,16.361" transform="translate(-407.548 -399.126)"/><path class="d" d="M408.6,414.334l4.814-11.71.054,12.251L414.144,398" transform="translate(-408.059 -397.594)"/><path class="d" d="M428.2,434.333l6.68-8.816.189-1.217" transform="translate(-422.359 -416.782)"/><path class="e" d="M412.55,396.906l-5.95,16.551.162.216h0l8.681,12.764.352.487,3.84-23.176.027-.081.027-.108-6.977-7.058Zm-.054,1.352-.514,15.5-4.868-.514ZM407.276,413.7l4.76.514,3.056,10.98Zm8.329,11.71-3.164-11.358,6.626-9.492Zm3.543-21.743-6.707,9.6.514-15.874Z" transform="translate(-406.6 -396.5)"/></g><g transform="translate(29.072 66.662)"><path class="a" d="M361.105,472.3l-2.623,5.922,6.626-.324-5.328,5.6-7.68-9.438,8.519-1.7" transform="translate(-351.694 -472.003)"/><path class="aj" d="M360.775,488.789c-.027-.027-1.46-5.138-1.46-5.138L353.5,480l7.221,8.978" transform="translate(-352.716 -477.62)"/><path class="c" d="M382.226,477.828l-6.626.406,2.84-5.733" transform="translate(-368.839 -472.148)"/><path class="d" d="M382.8,477.736l-3.516-3.489-2.488,3.759,2.326-5.706" transform="translate(-369.715 -472.003)"/><path class="d" d="M359,484.011l-4.03-1.542L353.1,479.9" transform="translate(-352.424 -477.547)"/><path class="e" d="M350.6,473.093l.27.325,7.626,9.492.216.27,5.436-5.787.216-.243-4.111-5.95-.3.054Zm13.089,3.84-6,.27,2.515-5.355Zm-6.085.7,5.977-.27-4.76,5.03Zm-5.571-3.461,5.057,3.353.081.081.027.081,1.082,4.273Zm-.487-.838,8.248-1.623-2.515,5.409Z" transform="translate(-350.6 -471.2)"/></g><g transform="translate(47.055 52.708)"><path class="a" d="M426.321,425.535l-5.841,2.84,5.3,4.029-7.68.865.189-12.169,7.626,4.165" transform="translate(-417.83 -420.694)"/><path class="ak" d="M418.362,434.385c0-.054,2.163-4.868,2.163-4.868L418.443,423l-.243,11.52" transform="translate(-417.903 -422.081)"/><path class="c" d="M432.555,444.59l-5.355-3.921,5.868-2.569" transform="translate(-424.469 -433.097)"/><path class="d" d="M433.087,444.017l-.46-4.922-4.327,1.271,5.463-2.867" transform="translate(-425.271 -432.659)"/><path class="d" d="M420.109,429.523,418,425.764l.216-3.164" transform="translate(-417.757 -421.789)"/><path class="e" d="M417.343,419.6v.406l-.243,12.169v.324l7.9-.919.325-.027.676-7.221-.27-.162Zm7.572,11.358-4.787-3.651,5.355-2.488ZM419.8,427.6l4.76,3.624-6.869.811Zm-2.055-6.274,1.731,5.814.027.108-.027.054-1.893,3.975Zm.162-.947,7.356,4.057-5.409,2.515Z" transform="translate(-417.1 -419.6)"/></g><g transform="translate(49.868 51.491)"><path class="a" d="M428.6,428.7l7.761-11.3,5.382,18.66-10.06,2.055,3.84-10.926-6.761,1.569" transform="translate(-428.302 -416.778)"/><path class="al" d="M455.457,416.8l-.757,10.06,5.977,8.492-5.03-17.443" transform="translate(-447.344 -416.34)"/><path class="c" d="M428.4,454.766l6.95-1.866-3.975,10.844-2.7-8.465" transform="translate(-428.157 -442.678)"/><path class="d" d="M429.4,456.014l2.84,5.787,3.543-7.3-3.651,10.655" transform="translate(-428.886 -443.845)"/><path class="d" d="M455.1,453.1l4.733,4.381L461,461.754" transform="translate(-447.636 -442.824)"/><path class="e" d="M430.61,436.816l10.6-2.38-.081-.3L435.8,415.614l-.135-.514-8.032,11.791h0l-.135.216.027.108,3,9.3Zm-2.6-9.546,6.409-1.514L430.772,435.9Zm6.517-2-6.328,1.514,7.058-10.385Zm5.841,7.843-5.436-7.734.73-8.6Zm-9.276,3.137,3.7-10.358,5.787,8.221Z" transform="translate(-427.5 -415.1)"/></g><g transform="translate(18.552 58.035)"><path class="a" d="M312.7,452.9l7.761-11.3,5.409,18.66-10.087,2.055,3.84-10.926-6.761,1.569" transform="translate(-312.43 -440.978)"/><path class="am" d="M339.557,441l-.757,10.06,5.977,8.492-5.03-17.443" transform="translate(-331.471 -440.54)"/><path class="c" d="M312.6,479.039l6.923-1.839-3.948,10.817-2.731-8.465" transform="translate(-312.357 -466.951)"/><path class="d" d="M313.5,480.214,316.34,486l3.57-7.3-3.678,10.655" transform="translate(-313.013 -468.045)"/><path class="d" d="M339.2,477.3l4.733,4.381,1.163,4.3" transform="translate(-331.763 -467.024)"/><path class="e" d="M314.783,461.016l10.6-2.38-.081-.3-5.328-18.525-.135-.514-8,11.764h0l-.135.216.027.108,3,9.3Zm-2.6-9.546,6.409-1.514L314.972,460.1Zm6.544-2-6.328,1.514,7.058-10.385Zm5.841,7.843-5.436-7.734.73-8.6Zm-9.3,3.164,3.7-10.358,5.787,8.221Z" transform="translate(-311.7 -439.3)"/></g><g transform="translate(67.23 54.763)"><path class="a" d="M503.6,438.788l-10.9,8.329.7-19.417,10.222,1.19-7.085,9.168,6.923.622" transform="translate(-492.43 -427.565)"/><path class="an" d="M492.4,448.055l3.84-9.33-3.029-9.925-.676,18.146" transform="translate(-492.211 -428.367)"/><path class="c" d="M513.993,442.665l-7.194-.406,7.167-9.06-.054,8.9" transform="translate(-502.716 -431.577)"/><path class="d" d="M514.872,441.846l-.893-6.382-5.679,5.841,6.815-9.005" transform="translate(-503.811 -430.921)"/><path class="d" d="M497.537,439.06l-3.137-5.625.216-4.435" transform="translate(-493.67 -428.513)"/><path class="e" d="M503.248,428.255,492.43,427.2v.3l-.7,19.255-.027.541,11.277-8.681h0l.189-.162v-.108l.054-9.79Zm-.487,9.871-6.544-.541,6.626-8.519Zm-6.842-.135,6.49.541-9.952,7.653Zm-3.11-9.276,2.731,9.033-3.38,7.951Zm9.817-.108-6.761,8.681-2.921-9.6Z" transform="translate(-491.7 -427.2)"/></g><g transform="translate(38.942 61.767)"><path class="a" d="M400.71,454.706l-4.868,11.007L391.462,454.3,388,456.95l1.812,14.576,18.281-2.163-.081-.649Z" transform="translate(-387.757 -453.976)"/><path class="ao" d="M400.731,496.5l12.251,3.651L394.7,502.314Z" transform="translate(-392.645 -484.763)"/><path class="c" d="M401,453.7l4.246,11.683,5.111-11.25-8.843-.3" transform="translate(-397.241 -453.538)"/><path class="c" d="M388.3,464.4l7.924,8.654-6.274,5.787" transform="translate(-387.975 -461.344)"/><path class="d" d="M409.805,454.841l-7.248.595,2.65,9.708L400.8,454.3" transform="translate(-397.095 -453.976)"/><path class="d" d="M395.645,472.616l-6.626-6.3,1,11.764L388.1,463.8l7.518,8.356" transform="translate(-387.83 -460.906)"/><path class="d" d="M401.031,497.3l-4.624,5.517-1.406.054" transform="translate(-392.864 -485.347)"/><path class="e" d="M388.939,470.976l.216-.027.135-.027,18.335-2.245.379-.054-7.6-14.847-.135-.27-9.357-.406h-.27l-3.543,2.7.027.243Zm1.677-17.281,3.948,10.087-6.923-7.843Zm9.195.27-4.57,10.3-4.192-10.682Zm-4.3,10.736,4.624-10.439,7.112,13.873Zm-5.787,5.76,5.463-5.328.081-.081.3.081,11.034,3.218Zm-.433-.189-1.677-13.684,7.3,8.248Z" transform="translate(-387.1 -453.1)"/></g><g transform="translate(52.41 61.253)"><path class="a" d="M438,462.3l10.439-8.9.352,19.417-10.276-.649,6.572-9.546-6.95-.243" transform="translate(-437.702 -452.805)"/><path class="ap" d="M467.853,452.9l-3.353,9.492,3.57,9.763-.3-18.146" transform="translate(-457.036 -452.44)"/><path class="c" d="M437.7,486.8l7.194.027-6.653,9.411-.433-8.87" transform="translate(-437.484 -477.173)"/><path class="d" d="M438.5,487.3l1.244,6.328,5.328-6.139-6.3,9.357" transform="translate(-438.067 -477.537)"/><path class="d" d="M465.2,487.3l3.434,5.463V497.2" transform="translate(-457.547 -477.537)"/><path class="e" d="M437.36,470.861l10.844.46v-.3l-.324-19.282V451.2l-10.79,9.276h0l-.189.162v.108l.46,9.763Zm-.027-9.9,6.571.189L437.738,470Zm6.842-.216-6.49-.189,9.519-8.167Zm3.6,9.087-3.218-8.87,2.948-8.113Zm-9.79.622,6.274-9.033,3.435,9.465Z" transform="translate(-436.9 -451.2)"/></g><g transform="translate(73.531 57.413)"><path class="a" d="M516.1,447.97l10.466-8.87.3,19.417-10.249-.649,6.572-9.546-6.923-.243" transform="translate(-515.803 -438.532)"/><path class="aq" d="M545.98,438.6l-3.38,9.492,3.57,9.763-.3-18.146" transform="translate(-535.136 -438.167)"/><path class="c" d="M515.8,472.4l7.194.054-6.68,9.411-.406-8.9" transform="translate(-515.584 -462.827)"/><path class="d" d="M516.6,473l1.244,6.328,5.327-6.139-6.3,9.33" transform="translate(-516.167 -463.264)"/><path class="d" d="M543.3,473l3.408,5.463V482.9" transform="translate(-535.647 -463.264)"/><path class="e" d="M515.46,456.633l10.844.487v-.3l-.3-19.282V437l-10.817,9.249h0l-.189.162v.108l.433,9.763Zm-.027-9.9,6.571.189-6.166,8.843Zm6.842-.216-6.49-.189,9.546-8.167Zm3.57,9.087-3.191-8.87,2.948-8.113Zm-9.79.622,6.3-9.032,3.407,9.465Z" transform="translate(-515 -437)"/></g><g transform="translate(35.156 68.122)"><path class="a" d="M387.949,495.548l-6.517-3.6,1.136-13.251-8.167,9.411,4.408,5.922" transform="translate(-374.048 -478.132)"/><path class="ar" d="M381.653,518.189l-2.407,2.109L375,514.7l6.409,3.326" transform="translate(-374.486 -504.396)"/><path class="c" d="M401.833,478.889l5.328,16.713-6.761-3.651,1.136-13.251" transform="translate(-393.017 -478.132)"/><path class="d" d="M407.128,495.059l-4.787-12.251-1.541,8.735,1.028-13.143" transform="translate(-393.309 -477.913)"/><path class="d" d="M381.309,518.334l-5.355-2L374.9,514.9" transform="translate(-374.413 -504.542)"/><path class="e" d="M381.754,476.6,373.1,486.714l.162.216,4.516,5.9.243.054,9.141,1.514.406.081-5.706-17.416Zm5.165,17.145-6.328-3.516,1.19-12.169Zm-8.546-1.271,2-1.866,5.706,3.164Zm-4.219-5.111L380,490.392l-2.055,1.893Zm7.221-9.681-1.217,12.332-6.436-3.353Z" transform="translate(-373.1 -476.6)"/></g><g transform="translate(44.594 74.694)"><path class="a" d="M418.819,502l11.034,8.14-18.822,4.76L409.3,504.758l10.79,4.192-1.325-6.788" transform="translate(-408.948 -501.703)"/><path class="as" d="M435.414,529.282,425.381,528.2l-8.681,5.706,17.605-4.462" transform="translate(-414.347 -520.817)"/><path class="c" d="M419.387,501.8l1.623,7L410.3,504.477l8.546-2.461" transform="translate(-409.678 -501.557)"/><path class="d" d="M418.622,502.7l-5.868,2.65,7.194,3.813L409.4,505.134" transform="translate(-409.021 -502.213)"/><path class="d" d="M425.77,528.6l-4.543,4.6-4.327,1.028" transform="translate(-414.493 -521.109)"/><path class="e" d="M408,503.685l2.028,10.655.3-.081,18.687-4.706.514-.135-11.493-8.383h0l-.189-.135-.108.027-9.411,2.677Zm9.6-2.3,1.325,6.436-10.033-3.975Zm1.785,6.6-1.3-6.355,10.141,7.41Zm-8.032,5.571,7.9-5.165,8.573,1Zm-2.84-9.384,10.222,4.057-8.41,5.517Z" transform="translate(-408 -500.9)"/></g><g transform="translate(58.333 63.849)"><path class="a" d="M478.238,474.032l-11.52-3.435,10.763-5.814L474.4,461.7l-14.2,3.624,4.435,17.876.649-.162Z" transform="translate(-459.821 -461.457)"/><path class="at" d="M466.717,480.373l-2.082,12.6L460.2,475.1Z" transform="translate(-459.821 -471.233)"/><path class="c" d="M494.934,473.3,483.9,478.979l11.764,3.651-.811-8.816" transform="translate(-477.112 -469.92)"/><path class="c" d="M474.417,462l-7.572,8.978-6.544-5.517" transform="translate(-459.894 -461.675)"/><path class="d" d="M497.19,482.105,495.7,475.02l-9.3,3.84,10.2-5.76" transform="translate(-478.936 -469.774)"/><path class="d" d="M467.639,470.4l5.436-7.383L461.5,465.478l13.927-3.678-7.3,8.492" transform="translate(-460.77 -461.53)"/><path class="d" d="M466.5,480.7l-6.058-3.921L460.2,475.4" transform="translate(-459.821 -471.452)"/><path class="e" d="M458.8,464.5l.054.216.027.135,4.543,17.9.108.379,13.765-9.411.243-.162-.784-9.33-.027-.271-3.137-3.164-.243.054Zm17.362-.514-9.519,5.192,6.9-7.87Zm.892,9.141-10.817-3.245,10.087-5.517Zm-11.169-2.894,10.926,3.272L463.938,482.3Zm-6.463-5,5.977,4.76.081.054-.054.3L463.614,481.7Zm.108-.487,13.386-3.38-7.248,8.275Z" transform="translate(-458.8 -460.8)"/></g><g transform="translate(22.148 70.718)"><path class="a" d="M338.467,487.4,334.6,498.785l-5.409-10.98L326,490.753l3.11,14.36,18.011-3.786-.162-.622Z" transform="translate(-325.73 -487.075)"/><path class="au" d="M342.99,529.5l12.521,2.542L337.5,535.828Z" transform="translate(-334.12 -517.79)"/><path class="c" d="M338,487.279l5.273,11.25,4.084-11.629-8.843.46" transform="translate(-334.484 -486.711)"/><path class="c" d="M326.3,500.1l8.681,7.924-5.76,6.328" transform="translate(-325.948 -496.341)"/><path class="d" d="M346.833,487.9l-7.167,1.244,3.516,9.438L337.8,488.17" transform="translate(-334.338 -487.44)"/><path class="d" d="M334.4,507.613l-7.167-5.679,2.028,11.629L326.1,499.5l8.221,7.653" transform="translate(-325.802 -495.903)"/><path class="d" d="M343.244,530.3l-4.138,5.923-1.406.162" transform="translate(-334.266 -518.374)"/><path class="e" d="M328.164,504.59l.216-.054.135-.027,18.065-3.867.379-.081-8.9-14.117-.162-.243-9.357.433h-.27L325,489.662l.054.243Zm.162-17.389,4.841,9.709-7.626-7.167Zm9.168-.541-3.651,10.682L328.7,487.065Zm-3.326,11.088,3.678-10.817,8.3,13.17Zm-5.246,6.247,4.976-5.787.054-.081.3.054,11.277,2.245Zm-.46-.135-2.867-13.495,8,7.545Z" transform="translate(-325 -486.2)"/></g><g transform="translate(30.911 49.381)"><path class="a" d="M362.664,414.045l-.676-.3-1.379-.649-1.109-2.3,2.623,2.731" transform="translate(-358.932 -409.853)"/><path class="a" d="M359.511,415.3l.514-2.055L358.7,411Z" transform="translate(-358.348 -409.999)"/><path class="av" d="M359.511,415.3l.514-2.055L358.7,411Z" transform="translate(-358.348 -409.999)"/><path class="c" d="M364.369,420.555l-2.569,2,.595-3.056" transform="translate(-360.61 -416.201)"/><path class="d" d="M362.9,422.78l.947-1.406-.676-.974,2,.811" transform="translate(-361.413 -416.857)"/><path class="e" d="M357.4,407.3l.108.757.892,5.625.054.406,3.029-2.434-.216-.216-3.38-3.6Zm2.785,3.57c-.379-.189-.757-.379-.947-.46l-.622-1.217Zm-1.3,2.353a16.626,16.626,0,0,1,.3-2.353c.3.135.974.46,1.623.811Zm-.73-3.975.676,1.325a4.59,4.59,0,0,0-.243,1.352Z" transform="translate(-357.4 -407.3)"/></g><g transform="translate(38.753 83.104)"><path class="a" d="M398.541,540.289l-.189-.7L398,538.1l1.082-2.3-.487,3.732" transform="translate(-394.863 -534.772)"/><path class="a" d="M390.9,538.626l1.92-.892.919-2.434Z" transform="translate(-389.683 -534.408)"/><path class="aw" d="M390.9,538.626l1.92-.892.919-2.434Z" transform="translate(-389.683 -534.408)"/><path class="c" d="M391.091,546.917l-3.191-.757,2.758-1.46" transform="translate(-387.494 -541.266)"/><path class="d" d="M389.8,546.544l1.7-.108.325-1.136.649,2.055" transform="translate(-388.881 -541.703)"/><path class="e" d="M391.024,532l-.514.568-3.84,4.219-.27.3,3.813.838.027-.3.676-4.868Zm-1.055,4.381c-.081-.406-.189-.811-.243-1.028l.568-1.244Zm-2.65.46a15.854,15.854,0,0,1,2.028-1.244c.081.3.243,1.055.379,1.785Zm2.65-3.056-.595,1.352a6.036,6.036,0,0,0-1.217.649Z" transform="translate(-386.4 -532)"/></g><g transform="translate(71.34 55.331)"><path class="a" d="M515.816,431.425l-5.165.757-.406-2.082L508,434.778l2.623,3.11,5.111-6.22" transform="translate(-507.703 -429.884)"/><path class="ax" d="M510.715,438.9l.054,5.409-2.569-2.785Z" transform="translate(-507.848 -436.304)"/><path class="c" d="M521.428,431.079l-4.76.974L516.1,429.7" transform="translate(-513.612 -429.592)"/><path class="d" d="M520.46,431.417l-3.651-.216-.352.919-.757-1.92" transform="translate(-513.32 -429.957)"/><path class="d" d="M510.507,440.2l-1.839,2.975-.568-.784" transform="translate(-507.775 -437.252)"/><path class="e" d="M506.981,434.438l-.081.189,2.867,3.11.243-.3,5.517-6.788-.406-.081-5.814-1.271-.135.27Zm2.65-2.812-1.758,1.866,1.46-3.272Zm4.408-.865-3.948.676h-.054l-.054-.189-.3-1.433Zm-4.057,6.031.081-4.895,4.543-.784Zm-2.542-2.218,2.19-2.326-.081,4.624Z" transform="translate(-506.9 -429.3)"/></g><g transform="translate(35.589 44.811)"><path class="a" d="M384.61,393.877l-5.192-.541.108-2.136-3.326,3.975,1.758,3.678,6.49-4.733" transform="translate(-375.794 -390.984)"/><path class="ay" d="M379.183,400.1l-1.3,5.246L376.1,402.02Z" transform="translate(-375.721 -397.477)"/><path class="c" d="M393.141,393.477l-4.841-.271.054-2.407" transform="translate(-384.622 -390.692)"/><path class="d" d="M392.273,393.553l-3.462-1.109-.568.784L388,391.2" transform="translate(-384.403 -390.984)"/><path class="d" d="M378.967,401.2l-2.542,2.407-.325-.892" transform="translate(-375.721 -398.279)"/><path class="e" d="M374.835,394.781l-.135.162,2,3.732.3-.216,7.031-5.192-.379-.189-5.3-2.677-.189.243Zm3.272-2.055-2.163,1.379,2.245-2.813Zm4.462.243-4-.324h-.054v-.216l.081-1.46Zm-5.409,4.841,1.3-4.733,4.6.379Zm-1.92-2.785,2.7-1.7-1.217,4.462Z" transform="translate(-374.7 -390.4)"/></g><g transform="translate(55.736 49.435)"><path class="a" d="M451.244,409.5l.811,5.165L450,415.1l4.706,2.191,3.056-2.65-6.247-5.057" transform="translate(-449.784 -408.959)"/><path class="az" d="M458.8,428.608l5.382-.108-2.731,2.569Z" transform="translate(-456.204 -422.821)"/><path class="c" d="M450.925,410.7l1,4.733-2.326.595" transform="translate(-449.492 -409.835)"/><path class="d" d="M451.263,413.2l-.189,3.624.919.352-1.893.784" transform="translate(-449.857 -411.659)"/><path class="d" d="M460.1,429.3l2.975,1.839-.784.541" transform="translate(-457.152 -423.405)"/><path class="e" d="M454.365,416.019l.189.081,3.083-2.921-.3-.243-6.869-5.436-.081.433-1.19,5.814.27.108Zm-2.84-2.6,1.893,1.731-3.3-1.433Zm-.92-4.381.73,3.948v.054l-.189.054-1.433.3Zm6.085,3.948-4.922-.027-.838-4.543Zm-2.191,2.569-2.353-2.163,4.624.027Z" transform="translate(-449.2 -407.5)"/></g><g transform="translate(50.598 80.535)"><path class="a" d="M438.534,523.9l10.98,4.083-12.873,3.462-4.841-6.166,8.41,2Z" transform="translate(-431.367 -523.521)"/><path class="ba" d="M462.086,537.1l-8.816-.7-3.57,4.165,11.818-3.191" transform="translate(-444.427 -532.641)"/><path class="c" d="M438.509,523.2l1.677,3.651-8.086-2.218" transform="translate(-431.586 -523.011)"/><path class="d" d="M438.728,524.3,436,525.436l4.111,1.812-7.707-1.6" transform="translate(-431.805 -523.813)"/><path class="d" d="M453.7,537.2l-2.19,3.651-1.109.243" transform="translate(-444.937 -533.225)"/><path class="e" d="M448.346,527.178l.7-.189-.676-.243-10.925-4.165-.189-.081-6.626,1.46-.433.081,5.138,6.653.243-.081ZM435.987,530.1l2.948-3.6.027-.027.243.027,7.87.595Zm2.515-3.732-3.083,3.759-4.3-5.571Zm-1.379-3.38,1.379,2.948-6.977-1.731Zm9.79,3.651-7.9-.595-1.379-2.921Z" transform="translate(-430.2 -522.5)"/></g><g transform="translate(67.825 77.074)"><path class="a" d="M516.015,515.316,513.5,513.8l.757-2" transform="translate(-508.199 -511.232)"/><path class="a" d="M501.608,513.436l.568-2.136-4.976,2.407Z" transform="translate(-496.308 -510.867)"/><path class="bb" d="M501.608,513.436l.568-2.136-4.976,2.407Z" transform="translate(-496.308 -510.867)"/><path class="c" d="M505.39,520.731,502.713,519l-3.813.487,5.95,1.3" transform="translate(-497.548 -516.485)"/><path class="d" d="M507.109,518.466,505.08,516.6l-.243.676-3.137.324.108.135,3.029.135,1.839.811.622.325" transform="translate(-499.591 -514.734)"/><path class="e" d="M499.9,509.7l-6,2.975.676.135,7.3,1.433.514.108-2.326-4.327Zm-3.786,3,3.029-.243,1.839,1.19Zm3.759-2.136,1.541,2.84-1.947-1.3Zm-.406-.162-.433,1.623-3.38.27Z" transform="translate(-493.9 -509.7)"/></g><g transform="translate(28.044 57.846)"><path class="d" d="M358.771,456.4l-.433,1.433-.838-.216" transform="translate(-354.606 -451.586)"/><g transform="translate(0 0)"><path class="a" d="M353.984,441.033l-1.514,3.624L348.9,440.6l2.272,5.652,5.165.487Z" transform="translate(-348.332 -440.059)"/><path class="bc" d="M362.533,457.374l-3.678-1.974-1.055,1.7Z" transform="translate(-354.825 -450.857)"/><path class="c" d="M349.3,439.7c.433.054,4.949.487,4.949.487L352.762,444l-3.326-3.867" transform="translate(-348.624 -439.403)"/><path class="d" d="M353.03,440.284l-2.975.3,1.65,2.813L348,439.5" transform="translate(-347.675 -439.257)"/><path class="e" d="M346.989,439.033l2.461,6,.3.027,4.841.379.433.027-2.353-5.977-.108-.27-5.76-.622Zm5.165.595-1.3,3.11-3.137-3.6Zm2.163,5.138-3.137-1.7,1.271-3.029Zm-4.3-.108.947-1.217,2.785,1.514Zm-2.163-4.651,2.758,3.164-.947,1.244Z" transform="translate(-346.8 -438.6)"/></g></g><line class="ad" x1="4.192" y2="1.082" transform="translate(71.881 81.157)"/><line class="ad" x1="3.867" y2="0.974" transform="translate(57.17 85.024)"/><path class="e" d="M296.409,456.187,295.3,450.4l.838,2.326.595,3.786" transform="translate(-281.183 -389.363)"/><path class="e" d="M555.224,461.982l.054,3.543-.3.162L554.9,460.9" transform="translate(-470.579 -397.024)"/><g transform="translate(12.71 76.37)"><path class="d" d="M302.044,524.9l-.433,1.433-.811-.216" transform="translate(-297.906 -520.086)"/><g transform="translate(0 0)"><path class="a" d="M297.184,509.46l-1.514,3.624L292.1,509l2.272,5.679,5.165.46Z" transform="translate(-291.559 -508.486)"/><path class="bd" d="M305.76,525.874l-3.7-1.974L301,525.6Z" transform="translate(-298.052 -519.357)"/><path class="c" d="M292.5,508.2c.433.054,4.949.487,4.949.487l-1.487,3.813-3.326-3.867" transform="translate(-291.851 -507.902)"/><path class="d" d="M296.23,508.784l-2.948.3,1.65,2.813L291.2,508" transform="translate(-290.902 -507.757)"/><path class="e" d="M290.289,507.533l2.461,6,.3.027,4.841.379.433.027-2.353-5.977-.108-.271-5.76-.622Zm5.138.595-1.3,3.11-3.137-3.6Zm2.191,5.138-3.137-1.7,1.271-3.029Zm-4.3-.135.947-1.217,2.785,1.514Zm-2.163-4.652,2.758,3.164-.947,1.244Z" transform="translate(-290.1 -507.1)"/></g></g><path class="ad" d="M646.007,422,635,426.949l1.217,5.219" transform="translate(-529.017 -368.643)"/><g transform="translate(53.762 53.438)"><path class="a" d="M453.509,423.716,449.561,440.1,454.7,441l-.189.162-11.71,9.925,2.677-22.987,8.059-4.6" transform="translate(-442.557 -423.175)"/><path class="be" d="M449.415,453.675,445.2,442.1l-2.6,22.338Z" transform="translate(-442.411 -436.745)"/><path class="c" d="M472.428,442.675,471.319,425.8,467.1,441.593" transform="translate(-460.285 -424.853)"/><path class="d" d="M473.241,440.854l-1.487-12.6L468.4,440.015l3.921-16.415" transform="translate(-461.234 -423.248)"/><path class="d" d="M455.656,453.893,451.6,443.617l.162-1.217" transform="translate(-448.977 -436.964)"/><path class="e" d="M453.1,422.3l-8.627,4.895v.189L441.9,450.723l.46-.379,11.818-9.925h0l.216-.189-1.244-17.551Zm.811,17.605-4.814-.811,3.7-15.063Zm-10.9,9.33,5.922-9.736,4.733.811Zm1.758-20.932,3.813,10.926-6.139,10.087Zm7.816-5.219L448.769,438.5l-3.84-11.061Z" transform="translate(-441.9 -422.3)"/></g><g transform="translate(65.715 56.196)"><path class="a" d="M487.3,450.345l10.439-5.977-3.218,11.791,4.354-.081,7.167-12.819-16.01-9.06-.324.541Z" transform="translate(-486.975 -433.74)"/><path class="bf" d="M505.107,444.368,497.4,434.2l16.01,9.06Z" transform="translate(-494.344 -433.74)"/><path class="c" d="M493.875,483.6l3.462-11.9L486.6,477.731l6.923,5.49" transform="translate(-486.465 -461.099)"/><path class="c" d="M526.571,480.629,525.3,468.947l8.519-.947" transform="translate(-514.699 -458.4)"/><path class="d" d="M488.3,479l6.193,3.813,3.6-9.411-2.84,11.358" transform="translate(-487.705 -462.339)"/><path class="d" d="M525.943,469.582l1.623,8.978,6.166-10.06-6.923,12.656L525.7,469.987" transform="translate(-514.991 -458.764)"/><path class="d" d="M526.1,466.377l7.031-1.677,1.163.784" transform="translate(-515.283 -455.992)"/><path class="e" d="M505.544,441.884l-.189-.108-.108-.054-16.091-9.033-.352-.189-2.65,16.469-.054.3,7.3,5.868.216.162,4.462-.081.108-.216Zm-11.6,12.954,2.785-10.466.947,10.412Zm-7.248-5.679,9.79-5.6-2.948,11.088Zm9.817-6.112-9.9,5.679,2.488-15.388Zm8.086-1.217-7.572,1.055h-.108l-.189-.243-6.977-9.141Zm.243.406L498.08,454.27l-1-10.953Z" transform="translate(-486.1 -432.5)"/></g><g transform="translate(79.94 58.603)"><path class="a" d="M540.6,443.3l5.706,4.76-3.6,12.819,9.79-7.734-3.218-6.626" transform="translate(-540.086 -442.786)"/><path class="bg" d="M562.5,456.823l2.758-1.623,3.137,6.3-5.679-4.462" transform="translate(-556.064 -451.468)"/><path class="c" d="M541.809,460.416,539.7,443l5.949,4.841-3.6,12.819" transform="translate(-539.43 -442.567)"/><path class="d" d="M540.7,444.4l2.38,12.927,3.191-8.3-3.516,12.737" transform="translate(-540.159 -443.589)"/><path class="d" d="M563.5,461.3l4.895,2.975.73,1.623" transform="translate(-556.793 -455.918)"/><path class="e" d="M541.08,460.033l10.385-8.329-.108-.243-3.326-6.626-.243-.081-8.681-3.218-.406-.135,2.326,18.173Zm-1.839-17.822,5.571,4.624-3.461,11.737Zm8.14,2.84-2.326,1.46-5-4.165Zm3.191,5.814-5.165-4.083,2.38-1.487Zm-8.924,8.167,3.516-11.872,5.706,4.516Z" transform="translate(-538.7 -441.4)"/></g><g transform="translate(68.42 69.907)"><path class="a" d="M506.487,485.3l-4.246,4.868,6.436,1.65-6.761,3.759L497.4,484.3l8.627.893" transform="translate(-497.048 -484.002)"/><path class="bh" d="M502.654,496.447c-.027-.054.108-5.328.108-5.328L498.3,485.9l4.246,10.709" transform="translate(-497.705 -485.17)"/><path class="c" d="M521.836,494.52l-6.436-1.569,4.381-4.651" transform="translate(-510.181 -486.921)"/><path class="d" d="M522.414,494.247l-2.326-4.354-3.489,2.84L520.494,488" transform="translate(-511.056 -486.702)"/><path class="d" d="M502.335,491.352l-3.407-2.65-1.028-3" transform="translate(-497.413 -485.024)"/><path class="e" d="M496.1,483.2l.162.379,4.489,11.3.135.325,6.923-3.921.27-.162-2.19-6.923-.325-.027Zm11.358,7.545-5.841-1.514,3.975-4.381Zm-6-1.109,5.787,1.487-6.031,3.407Zm-4.327-4.976,3.84,4.678.054.108v.081l-.216,4.381Zm-.216-.946,8.356.892-4,4.408Z" transform="translate(-496.1 -483.2)"/></g><g transform="translate(86.458 60.171)"><path class="a" d="M574.314,455.5l-6.409,1,3.867,5.409-7.572-1.46,3.759-11.548,6.031,6.22" transform="translate(-563.821 -448.44)"/><path class="bi" d="M564.589,461.571c0-.054,3.516-4.029,3.516-4.029l-.081-6.842L564.4,461.653" transform="translate(-563.967 -449.753)"/><path class="c" d="M582.248,480.058,578.3,474.73l6.355-.73" transform="translate(-574.108 -466.752)"/><path class="d" d="M582.689,479.331l1.028-4.841-4.516-.054,6.058-1.136" transform="translate(-574.765 -466.242)"/><path class="d" d="M574.32,457.466l-.919-4.192,1.163-2.975" transform="translate(-570.533 -449.462)"/><path class="e" d="M566.857,447.2l-.135.406-3.813,11.548-.108.325,7.815,1.433.325.054,2.759-6.707-.216-.216Zm3.867,13.089-3.488-4.895,5.868-.811Zm-3.894-4.733,3.462,4.868-6.815-1.271Zm-.108-6.572-.081,6.058v.108l-.054.054-3,3.218Zm.433-.865L573,454.15l-5.922.811Z" transform="translate(-562.8 -447.2)"/></g><g transform="translate(89.757 62.173)"><path class="a" d="M576.2,465.219l10.763-8.519-.379,19.417-10.222-1,6.9-9.3-6.923-.514" transform="translate(-575.875 -456.132)"/><path class="bj" d="M606.3,456.2l-3.705,9.384,3.218,9.871.352-18.146" transform="translate(-595.136 -455.767)"/><path class="c" d="M575.9,488.7l7.167.27-7,9.195-.081-8.9" transform="translate(-575.657 -479.478)"/><path class="d" d="M576.481,489.3l1,6.355,5.544-5.922-6.626,9.087" transform="translate(-576.021 -479.916)"/><path class="d" d="M603.3,490.2l3.218,5.571-.135,4.435" transform="translate(-595.647 -480.573)"/><path class="e" d="M575.135,473.855l10.817.865v-.3l.379-19.282V454.6l-11.142,8.87h0l-.189.162v.108l.108,9.79Zm.325-9.871,6.572.433-6.49,8.6Zm6.815,0-6.49-.433,9.817-7.816Zm3.272,9.222-2.894-8.978,3.218-8Zm-9.817.27,6.6-8.789,3.083,9.573Z" transform="translate(-575 -454.6)"/></g><g transform="translate(57.873 59.171)"><path class="a" d="M458.3,454.119l10.763-8.519-.352,19.417-10.249-1,6.9-9.3-6.9-.514" transform="translate(-457.975 -445.032)"/><path class="bk" d="M488.478,445.1l-3.678,9.384,3.218,9.871.352-18.146" transform="translate(-477.309 -444.667)"/><path class="c" d="M458,477.6l7.194.27-7,9.195-.108-8.9" transform="translate(-457.757 -468.378)"/><path class="d" d="M458.581,478.2l1,6.355,5.571-5.922-6.653,9.087" transform="translate(-458.121 -468.816)"/><path class="d" d="M485.4,479.1l3.245,5.571-.162,4.435" transform="translate(-477.747 -469.473)"/><path class="e" d="M457.235,462.755l10.817.865v-.3l.378-19.282V443.5l-11.142,8.87h0l-.189.162v.108l.108,9.79Zm.324-9.871,6.572.433-6.463,8.627Zm6.842,0-6.49-.433,9.817-7.816Zm3.245,9.222-2.894-8.978,3.218-8Zm-9.79.27,6.6-8.789,3.083,9.573Z" transform="translate(-457.1 -443.5)"/></g><g transform="translate(102.981 68.257)"><path class="a" d="M638.373,491.4,625.5,496.135l6.409-18.335,9.411,4.138-9.465,6.707,6.409,2.623" transform="translate(-625.067 -477.611)"/><path class="bl" d="M625,497.019l6.436-7.734.054-10.385-6,17.118" transform="translate(-624.703 -478.413)"/><path class="c" d="M655.434,503.26l-6.734-2.515,9.519-6.545-2.677,8.492" transform="translate(-641.993 -489.576)"/><path class="d" d="M656.585,502.532l1.028-6.355-7.112,3.894,9.141-6.572" transform="translate(-643.306 -489.065)"/><path class="d" d="M644.425,489.466l-1.325-6.3L644.642,479" transform="translate(-637.908 -478.486)"/><path class="e" d="M640.586,481.292,630.58,477.1l-.108.27-6.382,18.2-.189.514,13.332-4.976h0l.243-.081.027-.108,2.948-9.33Zm-3.407,9.276-6.112-2.461,8.843-6.166Zm-6.49-2.136,6.031,2.434-11.764,4.381Zm-.216-9.79-.054,9.438-5.571,6.6Zm9.411,2.812-9.005,6.3.054-10.06Z" transform="translate(-623.9 -477.1)"/></g><g transform="translate(76.316 67.446)"><path class="a" d="M541.788,478.41l-7.9,9.087-.811-12.2-4.111,1.514L526.4,491.255l18.119,3.326.108-.622Z" transform="translate(-526.103 -474.975)"/><path class="bm" d="M533.891,520.4l10.628,7.085L526.4,524.159Z" transform="translate(-526.103 -507.879)"/><path class="c" d="M551.4,474.8l.622,12.386,8.194-9.195-8.356-2.921" transform="translate(-544.342 -474.611)"/><path class="c" d="M528.877,481.2l5.03,10.628-7.707,3.678" transform="translate(-525.957 -479.28)"/><path class="d" d="M559.537,478.464l-7.085-1.568-.352,10.06-1-11.656" transform="translate(-544.123 -474.975)"/><path class="d" d="M534.3,491.255l-4.462-7.978L527.3,494.825l2.38-14.225,4.733,10.2" transform="translate(-526.759 -478.842)"/><path class="d" d="M534.11,521.3l-6.058,3.894-1.352-.379" transform="translate(-526.321 -508.536)"/><path class="e" d="M525.3,490.65l.216.027.135.027,18.173,3.272.379.081-2.867-16.415-.054-.3-8.816-3.164-.243-.081-4.192,1.541-.054.243Zm6.707-16.037.784,10.817-4.3-9.519Zm8.708,2.975-7.41,8.492-.838-11.466Zm-7.275,8.978,7.518-8.6,2.677,15.361Zm-7.221,3.813,6.815-3.462.081-.054.271.162,9.573,6.355Zm-.379-.3,2.461-13.576,4.543,10.033Z" transform="translate(-525.3 -474.1)"/></g><g transform="translate(97.005 60.226)"><path class="a" d="M608.9,449.016l2.272,16.713,5.111-1.028-.108.189-7.3,13.522L603,456.021l5.841-7.221" transform="translate(-602.676 -448.421)"/><path class="bn" d="M611.24,486.449,603.1,477.2l5.733,21.716Z" transform="translate(-602.748 -469.141)"/><path class="c" d="M632.766,466.234,625.6,450.9l1.839,16.226" transform="translate(-619.164 -449.953)"/><path class="d" d="M632.14,464.512l-5.977-11.169,1.163,12.17L625,448.8" transform="translate(-618.726 -448.421)"/><path class="d" d="M611.089,486.7,603.6,478.59l-.3-1.19" transform="translate(-602.894 -469.287)"/><path class="e" d="M608.047,447.4l-6.247,7.707.027.108.027.081,6.085,22.689.3-.541,7.41-13.549h0l.135-.243-7.518-15.9Zm7.166,16.091-4.787,1-2-15.361Zm-6.761,12.683,1.974-11.223,4.679-.974ZM602.476,456l7.518,8.789-2.055,11.629Zm5.382-7.68,2.055,15.739-7.626-8.924Z" transform="translate(-601.8 -447.4)"/></g><g transform="translate(87.512 73.098)"><path class="a" d="M570.634,502.209l12.6-5.409-5.409,18.633-9.627-3.624,9.087-7.194-6.544-2.272" transform="translate(-567.794 -496.313)"/><path class="bo" d="M608,496.4l-6,8.086.541,10.385,5.057-17.443" transform="translate(-592.454 -496.021)"/><path class="c" d="M570.572,517.2l6.869,2.163-9.141,7.031,2.218-8.627" transform="translate(-567.867 -511.197)"/><path class="d" d="M570.442,518l-.676,6.409,6.923-4.3-8.789,7.085" transform="translate(-567.576 -511.78)"/><path class="d" d="M602.8,525.8l1.677,6.22-1.325,4.246" transform="translate(-593.037 -517.471)"/><path class="e" d="M566.7,510.685l10.222,3.651.081-.3,5.382-18.525.162-.514-13.062,5.679h0l-.216.108-.027.108-2.461,9.465Zm2.867-9.465,6.22,2.136-8.465,6.626Zm6.6,1.785-6.139-2.109,11.521-5Zm.757,9.763-.46-9.438,5.192-6.869Zm-9.546-2.3,8.654-6.788.487,10.06Z" transform="translate(-566.7 -495)"/></g><g transform="translate(108.822 75.667)"><path class="a" d="M649.434,511.609l12.629-5.409-5.436,18.66L647,521.209l9.114-7.167-6.544-2.3" transform="translate(-646.594 -505.74)"/><path class="bp" d="M686.831,505.9l-6.031,8.059.514,10.385,5.111-17.416" transform="translate(-671.254 -505.521)"/><path class="c" d="M649.4,526.6l6.842,2.163-9.141,7.031,2.218-8.627" transform="translate(-646.667 -520.623)"/><path class="d" d="M649.269,527.4l-.7,6.382,6.923-4.246-8.789,7.031" transform="translate(-646.376 -521.207)"/><path class="d" d="M681.7,535.2l1.65,6.247-1.325,4.219" transform="translate(-671.91 -526.898)"/><path class="e" d="M645.5,520.131l10.222,3.678.081-.3,5.409-18.5.162-.514-13.062,5.652h0l-.216.108-.027.108-2.461,9.465Zm2.894-9.438,6.22,2.136-8.492,6.626Zm6.6,1.785-6.139-2.109,11.52-4.976Zm.73,9.763-.433-9.438,5.219-6.869Zm-9.546-2.3,8.681-6.761.46,10.06Z" transform="translate(-645.5 -504.5)"/></g><g transform="translate(71.367 73.855)"><path class="a" d="M519.063,517.413l-5.165-5.382,5-12.332-10.6,6.6,2.488,6.95" transform="translate(-507.948 -499.186)"/><path class="bq" d="M513.854,530.7l-2.921,1.3-2.434-6.6,5.165,5.057" transform="translate(-508.094 -517.936)"/><path class="c" d="M534.219,499.97l.162,17.551L529,512.032l5-12.332" transform="translate(-523.051 -499.186)"/><path class="d" d="M534.6,516.87l-.947-13.089-4.056,7.87,4.868-12.251" transform="translate(-523.488 -498.967)"/><path class="d" d="M513.584,530.692l-4.516-3.489-.568-1.7" transform="translate(-508.094 -518.009)"/><path class="e" d="M518.25,497.8,507,504.939l.081.243,2.569,6.95.216.108,8.275,4.138.379.189-.324-18.335Zm-.135,17.9-5.03-5.219,4.733-11.277Zm-7.789-3.7,2.461-1.19,4.516,4.706Zm-2.542-6.139,4.679,4.624-2.515,1.217Zm9.79-7.112-4.787,11.439-5.165-5.111Z" transform="translate(-507 -497.8)"/></g><g transform="translate(79.372 83.05)"><path class="a" d="M548.35,533.262l8.14,11.034-19.39-1,1.352-10.2,9.06,7.221.73-6.923" transform="translate(-536.965 -532.748)"/><path class="br" d="M557.428,564.1l-9.249-4-9.979,2.867,18.119.947" transform="translate(-537.767 -552.447)"/><path class="c" d="M552.665,533.035l-.514,7.167-8.951-7.3,8.9.189" transform="translate(-541.415 -532.603)"/><path class="d" d="M551.919,533.106l-6.382.784,5.733,5.76-8.87-6.95" transform="translate(-540.831 -532.457)"/><path class="d" d="M548.514,560.7l-5.679,3.056-4.435-.3" transform="translate(-537.913 -552.885)"/><path class="e" d="M537.817,531.8,536.6,542.59l.3.027,19.255,1.028.541.027L548.2,532.26h0l-.162-.189h-.108l-9.79-.216Zm9.871.649-.649,6.544-8.411-6.761Zm-.243,6.815.649-6.463,7.491,10.06Zm-9.33,2.975,9.086-2.6,7.9,3.488Zm.054-9.817,8.573,6.9-9.681,2.758Z" transform="translate(-536.6 -531.8)"/></g><g transform="translate(95.679 77.614)"><path class="a" d="M613.585,526.33l-9.979-6.68,11.98-2.353-2.028-3.867L598.9,512.7l-1,18.389.649.027Z" transform="translate(-597.63 -512.43)"/><path class="bs" d="M603.606,519.65,597.9,531.09l1-18.389Z" transform="translate(-597.63 -512.43)"/><path class="c" d="M630.824,530,618.6,532.164l10.2,6.977,1.812-8.654" transform="translate(-612.732 -525.051)"/><path class="c" d="M616.322,513.265l-9.9,6.328L601.8,512.4" transform="translate(-600.475 -512.211)"/><path class="d" d="M630.357,538.462l.649-7.221L621,532.188l11.439-2.488" transform="translate(-614.483 -524.832)"/><path class="d" d="M607.235,519.891l7.356-5.436L602.8,513.4l14.414.595-9.519,5.95" transform="translate(-601.205 -512.94)"/><path class="d" d="M605.524,519.923l-4.624-5.544.189-1.379" transform="translate(-599.818 -512.648)"/><path class="e" d="M597.874,511.7v.352l-.947,18.444-.027.379,15.929-4.922.27-.081,2-9.141.054-.27-2.055-3.948-.243-.027Zm16.767,4.652-10.628,2.163,8.9-5.49Zm-1.866,8.978-9.357-6.274,11.25-2.3Zm-9.817-6.058,9.492,6.355-14.874,4.6Zm-4.678-6.707,4.3,6.3.054.081-.135.271-5.084,10.3Zm.216-.406,13.792.73-9.357,5.76Z" transform="translate(-596.9 -511.7)"/></g><g transform="translate(58.765 71.394)"><path class="a" d="M475.571,492.053l-7.031,9.736-1.92-12.088-3.948,1.893L461.4,506.2l18.335,1.731.054-.649Z" transform="translate(-461.129 -489.43)"/><path class="bt" d="M468.539,534.4l11.2,6.139L461.4,538.808Z" transform="translate(-461.129 -522.041)"/><path class="c" d="M481,489.3l1.731,12.278,7.329-9.9-8.573-2.163" transform="translate(-475.429 -489.138)"/><path class="c" d="M462.533,497l5.949,10.141-7.383,4.327" transform="translate(-460.911 -494.755)"/><path class="d" d="M489.381,492.107l-7.193-.919.568,10.06L480.7,489.7" transform="translate(-475.21 -489.43)"/><path class="d" d="M468.853,506.6l-5.165-7.545L462.2,510.787l1.109-14.387,5.6,9.736" transform="translate(-461.713 -494.318)"/><path class="d" d="M468.785,535.3l-5.706,4.435-1.379-.243" transform="translate(-461.348 -522.698)"/><path class="e" d="M460.4,505.764l.216.027h.135l18.39,1.65.379.027-4.327-16.091-.081-.27-9.06-2.353-.27-.054-4.029,1.893-.027.243Zm5.246-16.55,1.758,10.709-5.138-9.114Zm8.924,2.163-6.626,9.114-1.866-11.331Zm-6.436,9.6,6.707-9.222,4.029,15.036Zm-6.869,4.435,6.463-4.057.081-.054.27.135,10.114,5.463Zm-.379-.243,1.244-13.738L467.539,501Z" transform="translate(-460.4 -488.7)"/></g><g transform="translate(71.854 88.053)"><path class="a" d="M521.3,557.638l.054-.73.081-1.541,1.7-1.866-1.542,3.434" transform="translate(-517.919 -552.635)"/><path class="a" d="M514,555.153l2.109-.3,1.6-2.055Z" transform="translate(-512.594 -552.124)"/><path class="bu" d="M514,555.153l2.109-.3,1.6-2.055Z" transform="translate(-512.594 -552.124)"/><path class="c" d="M513.24,563.117l-2.84-1.65,3.083-.568" transform="translate(-509.967 -558.033)"/><path class="d" d="M512.3,561.795l1.65.379.676-.973v2.136" transform="translate(-511.354 -558.252)"/><path class="e" d="M514.722,550.3l-.649.379-4.922,2.894-.352.216,3.38,1.92.135-.27,2.082-4.462Zm-2.3,3.894a8.449,8.449,0,0,0,.054-1.055l.892-1.028Zm-2.677-.352a16.949,16.949,0,0,1,2.3-.6c0,.325-.081,1.082-.162,1.812Zm3.435-2.137-.974,1.109a6.475,6.475,0,0,0-1.352.271Z" transform="translate(-508.8 -550.3)"/></g><g transform="translate(111.121 70.475)"><path class="a" d="M663.965,489.121l-5.138-.784.216-2.136-3.543,3.813,1.6,3.759,6.707-4.408" transform="translate(-655.094 -485.957)"/><path class="bv" d="M658.564,495l-1.541,5.192-1.623-3.407Z" transform="translate(-655.021 -492.377)"/><path class="c" d="M672.814,488.721,668,488.234l.135-2.434" transform="translate(-664.214 -485.665)"/><path class="d" d="M672.165,488.769l-3.407-1.3-.622.784L668,486.2" transform="translate(-664.214 -485.957)"/><path class="d" d="M658.348,496.2l-2.65,2.272-.3-.919" transform="translate(-655.021 -493.252)"/><path class="e" d="M654.135,489.546l-.135.162,1.839,3.813.325-.216,7.275-4.868-.378-.216-5.165-2.921-.189.216Zm3.354-1.893-2.218,1.271,2.38-2.7Zm4.462.46-3.975-.514h-.054l.027-.216.135-1.46Zm-5.625,4.57L657.84,488l4.57.595Zm-1.785-2.867,2.785-1.569-1.433,4.381Z" transform="translate(-654 -485.3)"/></g><g transform="translate(80.319 53.086)"><path class="a" d="M550.237,425.984l-4.787-2.082.73-2-4.381,2.813.622,4.029,7.6-2.6" transform="translate(-541.34 -421.657)"/><path class="bw" d="M544.916,430.1l-2.785,4.624-.73-3.7Z" transform="translate(-541.049 -427.639)"/><path class="c" d="M559.843,425.548l-4.543-1.677.757-2.272" transform="translate(-551.189 -421.438)"/><path class="d" d="M559.859,425.316l-2.975-2.109-.784.595.379-2" transform="translate(-551.773 -421.584)"/><path class="d" d="M544.691,431l-3.137,1.541-.054-.947" transform="translate(-541.121 -428.296)"/><path class="e" d="M540.262,424.164l-.162.108.811,4.165.352-.135,8.248-2.894-.3-.3L544.941,421l-.243.162Zm3.732-1-2.461.676,2.975-2.028Zm4.192,1.568-3.732-1.487-.054-.027.081-.189.514-1.379Zm-6.6,3.029,2.65-4.138,4.273,1.7Zm-1-3.218,3.083-.838-2.488,3.894Z" transform="translate(-540.1 -421)"/></g><g transform="translate(84.97 89.243)"><path class="a" d="M565.442,556.43l9.276,7.112-13.305-.514L558.6,555.7l7.437,4.435Z" transform="translate(-558.248 -555.43)"/><path class="bx" d="M581.846,575.372l-8.221-3.272L569,574.994l12.224.487" transform="translate(-565.836 -567.394)"/><path class="c" d="M565.644,555.941l.514,3.975L559.1,555.4" transform="translate(-558.613 -555.211)"/><path class="d" d="M565.536,556.868l-2.921.27,3.38,2.948-6.9-3.786" transform="translate(-558.613 -555.867)"/><path class="d" d="M574,572.8l-3.164,2.839-1.136-.108" transform="translate(-566.347 -567.905)"/><path class="e" d="M573.715,563.029l.73.027-.568-.433-9.222-7.193-.162-.135-6.761-.568-.433-.027,2.921,7.87h.27Zm-12.656-.865,3.894-2.569h.027l.243.081,7.356,2.894Zm3.489-2.812-4.056,2.677-2.461-6.6Zm-.324-3.651.433,3.245-6.166-3.7Zm8.275,6.382-7.356-2.894L564.71,556Z" transform="translate(-557.3 -554.7)"/></g><g transform="translate(102.035 91.298)"><path class="a" d="M641.547,568.167l-1.947-2.191,1.3-1.677" transform="translate(-634.408 -563.759)"/><path class="a" d="M627.927,565.539l1.163-1.839-5.49.811Z" transform="translate(-622.735 -563.321)"/><path class="by" d="M627.927,565.539l1.163-1.839-5.49.811Z" transform="translate(-622.735 -563.321)"/><path class="c" d="M631.014,570.91l-2.028-2.434L625.2,567.8l5.273,3" transform="translate(-623.902 -566.313)"/><path class="d" d="M632.822,570.534l-1.379-2.38-.433.568-3.11-.622.081.162,2.867,1.028,1.487,1.325.514.487" transform="translate(-625.872 -566.531)"/><path class="e" d="M627,562.3l-6.6,1.082.6.325,6.544,3.516.46.243-.947-4.841Zm-4.489,1.731,2.948.649,1.379,1.677Zm4.219-.919.622,3.164-1.487-1.812Zm-.325-.271-.892,1.406-3.3-.73Z" transform="translate(-620.4 -562.3)"/></g><g transform="translate(70.61 59.441)"><path class="d" d="M509.368,465.9l-.838,1.244-.73-.46" transform="translate(-506.826 -460.113)"/><g transform="translate(0 0)"><path class="a" d="M510.233,448.747l-2.515,3L505.5,446.8l.514,6.085,4.787,1.974Z" transform="translate(-505.148 -446.178)"/><path class="bz" d="M512.235,467.775l-2.921-2.975-1.514,1.325Z" transform="translate(-506.826 -459.31)"/><path class="c" d="M506.2,446.2c.379.162,4.6,1.92,4.6,1.92l-2.542,3.191-2.028-4.679" transform="translate(-505.659 -445.74)"/><path class="d" d="M509.57,447.745l-2.921-.595.757,3.191L505,445.5" transform="translate(-504.784 -445.23)"/><path class="e" d="M504.254,444.933l.595,6.463.3.108,4.516,1.812.406.162-.514-6.409-.027-.27-5.328-2.3Zm4.733,2.082-2.163,2.6-1.947-4.354Zm.568,5.544-2.488-2.569,2.109-2.515Zm-4.084-1.379,1.244-.892,2.217,2.272Zm-.7-5.084,1.7,3.84-1.271.919Z" transform="translate(-504.2 -444.5)"/></g></g><line class="ad" x1="4.327" y1="0.216" transform="translate(105.253 95.652)"/><line class="ad" x1="4.002" y1="0.189" transform="translate(90.081 94.895)"/><path class="e" d="M449,446.268l.649-5.868.108,2.461-.541,3.786" transform="translate(-393.318 -382.067)"/><path class="e" d="M692.725,528.236l-1,3.38-.324.081,1.352-4.6" transform="translate(-570.165 -445.321)"/><g transform="translate(50.49 72.584)"><path class="d" d="M434.869,514.6l-.838,1.217-.73-.433" transform="translate(-432.353 -508.786)"/><g transform="translate(0 0)"><path class="a" d="M435.806,497.42l-2.488,3.029L431.1,495.5l.487,6.085,4.787,1.974Z" transform="translate(-430.748 -494.851)"/><path class="ca" d="M437.762,516.475l-2.948-2.975-1.514,1.3Z" transform="translate(-432.353 -507.983)"/><path class="c" d="M431.7,494.8c.379.162,4.6,1.92,4.6,1.92l-2.542,3.191-2.028-4.678" transform="translate(-431.186 -494.34)"/><path class="d" d="M435.143,496.445l-2.894-.595.73,3.191L430.6,494.2" transform="translate(-430.384 -493.903)"/><path class="e" d="M429.827,493.533l.6,6.463.3.108,4.516,1.812.406.162-.487-6.409-.027-.27-5.328-2.3Zm4.733,2.109-2.163,2.6-1.947-4.354Zm.568,5.544-2.488-2.569,2.109-2.515Zm-4.056-1.379,1.244-.892,2.218,2.272Zm-.7-5.084,1.7,3.84-1.271.919Z" transform="translate(-429.8 -493.1)"/></g></g><path class="cb" d="M272.5,344.6" transform="translate(-264.549 -312.175)"/><path class="h" d="M244.8,479.9,326.714,507v51.247L244.8,520.086Z" transform="translate(-244.34 -410.885)"/><path class="i" d="M547.7,527.206,596.729,507.6v44.108L547.7,578.454Z" transform="translate(-465.326 -431.094)"/><path class="k" d="M570.4,592.142l33.7-18.065V545.6" transform="translate(-481.887 -458.818)"/><line class="g" x2="3.083" y2="1.785" transform="translate(122.209 115.259)"/><line class="g" x1="3.056" y2="1.974" transform="translate(6.599 104.252)"/><path class="g" d="M350.243,514.8v21.5L324.2,526.1V506.2Z" transform="translate(-302.268 -430.073)"/><path class="g" d="M346.8,544.775V537.5l13.792,4.57v8.086Z" transform="translate(-318.756 -452.908)"/><path class="j" d="M319.419,528.222h0v12.3l-2.3,1.974-26.043-10.114v-13.6L278.8,514.7v25.826l66.581,30.4V536.849Z" transform="translate(-269.146 -436.274)"/><path class="k" d="M602.637,573.493V544.8L568.4,558.484v33.372Z" transform="translate(-480.428 -458.234)"/><path class="i" d="M267.5,510.5v28.936l69.637,31.4v-3.461l-66.581-29.91V511.636" transform="translate(-260.901 -433.21)"/><path class="i" d="M420.5,561.8l2.3.784v12.3l-2.3,1.974Z" transform="translate(-372.525 -470.637)"/><path class="a" d="M346.8,537.5v7.221l13.657,5.111v-7.68" transform="translate(-318.756 -452.908)"/><path class="cc" d="M346.8,537.5v7.221l13.657,5.111v-7.68" transform="translate(-318.756 -452.908)"/><path class="l" d="M594.47,556.9,568.4,567.312V582.97Z" transform="translate(-480.428 -467.062)"/><path class="l" d="M631.674,621.571V610.7L608.2,634.174Z" transform="translate(-509.465 -506.313)"/><path class="k" d="M278.8,570.7v10.682l19.688,8.978Z" transform="translate(-269.146 -477.13)"/><g transform="translate(13.522 79.697)"><path class="k" d="M413.741,580.52l-10.763-10.763-15.2-5.057V577l-2.3,1.974L372.5,573.922l26.935,26.935,14.306,6.544Z" transform="translate(-351.028 -552.449)"/><path class="k" d="M301.511,527.81v-5.6L293.1,519.4Z" transform="translate(-293.1 -519.4)"/></g><path class="d" d="M324.66,525.779l2.191-16.523,19.823,6.815,3.083,19.552.487-20.823L324.2,506.2" transform="translate(-302.268 -430.073)"/><path class="d" d="M347.579,545.253l1.46-3.948,11.385,1.92L347.2,538.6" transform="translate(-319.048 -453.711)"/><path class="d" d="M326.714,507,244.8,479.9v35.724l.487,4.165,2.163-36.671L323.2,508.836l3.029,48.651.487.108Z" transform="translate(-244.34 -410.885)"/><path class="m" d="M568.6,586.529v4.733l37.13-19.985.622-.325V538.5l-4.138,1.65L568.6,553.563Zm34.67-45.784,2.109-.838v29.937L603.27,568.6Zm-33.723,13.468,32.776-13.089V568.6L569.547,586.15Zm0,33.02,33.236-17.795,2.109,1.217-35.346,19.012Z" transform="translate(-480.574 -453.638)"/><path class="m" d="M345.1,536.047v7.3l14.739,5.76v-9.141L345.1,535.1Zm.947.378,12.846,4.246v7.058l-12.846-5.03Z" transform="translate(-317.516 -451.157)"/><path class="h" d="M363.412,477.083l-.757,2.38,2.731.595-38.78,15.5L256.591,472.4l3.407-.7-.6-3-14.6,3.029,81.914,27.1,49.03-19.606-11.52-2.542Z" transform="translate(-244.34 -402.714)"/><path class="m" d="M363.632,475.013h0l-1.325.676,10.574,2.353L325.447,497l-33.912-11.223-26.989-8.924L245.4,470.524l12.873-2.677-.189-.947-14.468,3.029-.514.108V510.9l81.914,38.158.487.216.46-.243,49.03-26.719V477.528l-.514-.108ZM291.562,493.24l1.352.46v11.764l-1.352,1.163Zm-26.07-8.681v-6.382l25.1,8.3v20.472l-25.1-9.817ZM291.183,508.2l.379-.324,2.3-1.974V494.024l25.015,8.329v32.912l-65.634-29.91v-24.88l11.3,3.759v13.522Zm-38.375-2,66.067,30.072v2.326L250.7,507.573Zm-2.623.568V479.475l2.109.7V505.41ZM324.987,548l-80.941-37.7V471.092l20.5,6.788h0v5.382l-11.2-3.732-4.138-1.379v29.8l69.934,31.83.676.3V501.651l-28.26-9.411V486.8l33.453,11.061V548Zm49.057-26.259-48.083,26.205V497.811l34.8-13.9,13.278-5.3Z" transform="translate(-243.1 -401.401)"/><path class="m" d="M389.341,486.708l1.271.27-37.158,14.847L285.278,479.3l1.65-.352-.162-.947-5.165,1.082,71.881,23.771,40.349-16.118-4.192-.947Z" transform="translate(-271.188 -409.499)"/><g transform="translate(31.722 117.639)"><path class="a" d="M375.787,679.408l-6.031-12.088-4.327,13.035-4.029-2.813,1.271-16.442,20.634,1.487-.054.7Z" transform="translate(-361.13 -660.721)"/><path class="cd" d="M373.185,667.32l13.549-4.733L366.1,661.1Z" transform="translate(-364.559 -660.721)"/><path class="c" d="M376.6,697.005l4.138-13.305,6.328,12.332-9.9.811" transform="translate(-372.219 -677.21)"/><path class="c" d="M361.7,677.607l8.465-10.141-7.356-6.166" transform="translate(-361.348 -660.867)"/><path class="d" d="M386.387,697.731l-8.167-.3,2.488-11.034L376.3,698.813" transform="translate(-372 -679.18)"/><path class="d" d="M369.6,668.441l-7.112,7.41.487-13.251L361.6,678.718l7.978-9.736" transform="translate(-361.275 -661.816)"/><path class="d" d="M373.485,667.049,368,661.1h-1.6" transform="translate(-364.777 -660.721)"/><path class="e" d="M360.427,676.548l-.027.27,4.111,2.84.3-.027,10.466-.947.135-.3,7.734-17.064-.433-.027-20.688-1.569h-.135l-.243-.027Zm.595.108,7.356-9.141-3.921,11.548Zm3.921,2.488,4.138-12.224,5.679,11.331Zm17.443-17.173L375.139,677.9l-5.76-11.466Zm-.73-.27-12.2,4.192-.324.108-.081-.081-6.436-5.679Zm-12.927,4.624-7.761,9.627,1.136-15.469Z" transform="translate(-360.4 -659.7)"/></g><g transform="translate(60.712 128.24)"><path class="a" d="M475.1,702.5l7.545,11.2,2.6-13.495,4.354,2.245.892,16.469-20.661,1.244-.027-.73Z" transform="translate(-469.205 -699.848)"/><path class="ce" d="M482.719,750.1,469.9,756.563l20.661-1.244Z" transform="translate(-469.278 -736.254)"/><path class="c" d="M498.849,699.7l-2.38,13.738-7.87-11.412,9.709-2.109" transform="translate(-482.921 -699.484)"/><path class="c" d="M523.658,708.9,516.6,720.042l8.113,5.165" transform="translate(-503.349 -706.196)"/><path class="d" d="M490.5,702.58l8.113-.757-1,11.25,2.731-12.873" transform="translate(-484.307 -699.848)"/><path class="d" d="M518.254,719.45l6.058-8.275,1.271,13.224-.73-16.2L518.2,718.936" transform="translate(-504.516 -705.685)"/><path class="d" d="M517.2,751.1l6.22,5.192,1.568-.243" transform="translate(-503.787 -736.983)"/><path class="e" d="M488.207,701.442l-.027-.27-4.462-2.272-.3.054-10.249,2.3-.108.325-5.463,17.93.433-.027,20.715-1.163h.379Zm-.568-.027-6.112,10.033,2.38-11.953Zm-4.246-1.947-2.515,12.656-7.085-10.493Zm-15.009,19.309,5.084-16.74,7.194,10.628Zm.757.162,11.548-5.76.324-.162.081.054,7.112,4.787Zm12.2-6.274,6.436-10.547.892,15.5Z" transform="translate(-467.6 -698.9)"/></g><g transform="translate(43.134 124.156)"><path class="a" d="M420.981,687.58l-8.3.919-4.6,14.225L403.7,689.419l7.139-4.219" transform="translate(-403.402 -684.821)"/><path class="cf" d="M413.238,688.445l-1.6-3.245-6.842,3.948,8.086-.649" transform="translate(-404.205 -684.821)"/><path class="c" d="M420.279,709.282,433.07,694.3l-8.573.838-4.6,14.225" transform="translate(-415.221 -691.461)"/><path class="d" d="M432.51,695l-10.276,10.628,2.191-9.736L419.8,709.955" transform="translate(-415.149 -691.971)"/><path class="d" d="M413.013,695.971,406.6,695.7l-1.7,1.055" transform="translate(-404.278 -692.482)"/><path class="e" d="M407.495,701.946l13.495-15.577-.46-.108-10.141-2.407-.27-.054-7.248,4.138-.27.135,4.543,14.252Zm.324-1.109,4.057-13.143,8.086-.865Zm11.3-14.387-7.275.784-1.271-2.813Zm-9.087-2.028,1.3,2.867-7.383.595Zm-6.815,4,8.14-.676-4.111,13.305Z" transform="translate(-402.6 -683.8)"/></g><g transform="translate(56.223 121.614)"><path class="a" d="M454,687.4l8.221,1.46,8.437-12.359.433,14.008-8.032,2.028" transform="translate(-453.189 -675.932)"/><path class="cg" d="M485.2,722.7l.622,3.543,7.653-1.866-7.924-1.65" transform="translate(-475.951 -709.638)"/><path class="c" d="M469.6,676.4l-16.5,10.763,8.465,1.623L470,676.427" transform="translate(-452.532 -675.859)"/><path class="d" d="M455.1,687.036l12.819-7.275L463.1,688.5l8.383-12.2" transform="translate(-453.991 -675.786)"/><path class="d" d="M486.1,723.5l6.085,2.028,1.947-.514" transform="translate(-476.608 -710.222)"/><path class="e" d="M468.308,674.67,451,685.812l.406.244,9.033,5.165.243.135,8.113-1.92.3-.081L468.74,674.4Zm-.622.974-7.6,11.466-8-1.433Zm-14.9,10.628,7.194,1.3.433,3.056Zm8.14,4.516-.433-3.11,7.248,1.487Zm7.68-1.947-8-1.65,7.68-11.6Z" transform="translate(-451 -674.4)"/></g><g transform="translate(49.543 120.559)"><path class="a" d="M443.9,687.757l-4.76-14.658L427.4,691.489l10.2,5.436-.676-13.008,6.788,3.84" transform="translate(-427.102 -672.397)"/><path class="ch" d="M439.72,672.4l-2.38,11.088-9.141,7.248,10.952-17.2" transform="translate(-427.686 -671.886)"/><path class="c" d="M469.8,716.619l-6.9-4.219.838,12.954,5.625-8.248" transform="translate(-453.002 -701.069)"/><path class="d" d="M470.009,718.078l-4.895,5.328L463.6,714.4l.541,12.656" transform="translate(-453.513 -702.528)"/><path class="d" d="M437.287,712.3l-6.49,3.218-2.6,4.246" transform="translate(-427.686 -700.996)"/><path class="e" d="M437.171,695.191l6.193-9.087.054-.108-.081-.271h0L438.443,670.5l-.325.514L426.489,689.3l-.189.27,10.655,5.923Zm-.081-.73-.7-12.088,6.409,3.678Zm1.325-22.419,4.327,13.441-6.328-3.651Zm-.568.27L435.9,681.8l-8.3,6.6Zm-10.79,17.146,8.843-7.031.7,12.332Z" transform="translate(-426.3 -670.5)"/></g><g transform="translate(53.6 110.959)"><path class="d" d="M460,653.5v1.677l.974.027" transform="translate(-454.943 -648.497)"/><g transform="translate(0 0)"><path class="a" d="M446.854,636.5l.46,4.381,5.138-3.245-4.219,5.382-5.733-1.136Z" transform="translate(-442.175 -636.094)"/><path class="ci" d="M443.8,653.547l4.6-.947.622,2.19Z" transform="translate(-443.124 -647.84)"/><path class="c" d="M464.39,636.855c-.46-.081-5.49-1.055-5.49-1.055l.406,4.57,4.787-3.11" transform="translate(-454.14 -635.584)"/><path class="d" d="M459.7,637l3.11,1.271-2.677,2.515,5.246-3.029" transform="translate(-454.724 -636.459)"/><path class="e" d="M452.334,636.163,445.924,635l-.189.243-4.435,5.679.487.108,5.355,1.136.352.081,4.57-5.679Zm-1.109.3-4.516,2.867-.406-3.759Zm-5.382-.595.406,3.678-3.921.838Zm-2.975,4.895,3.489-.757.622,1.623Zm4.57.7-.622-1.65,3.975-2.515Z" transform="translate(-441.3 -635)"/></g></g><g transform="translate(24.961 129.159)"><path class="a" d="M370.92,711.6l-18.849-2.136,1.055-5.76-.243.135L337.9,712.354l25.286,6.058,7.951-6.734" transform="translate(-337.224 -703.321)"/><path class="cj" d="M352.654,725l10.6,8.924-24.555-5.9Z" transform="translate(-337.808 -718.861)"/><path class="c" d="M391.792,703.7l17.389,7.68-18.281-1.65" transform="translate(-375.891 -703.321)"/><path class="d" d="M392.2,704.5l12.71,6.436-13.711-1,18.849,2.191" transform="translate(-376.11 -703.905)"/><path class="d" d="M389.9,726.3l9.3,8.221,1.352.324" transform="translate(-375.161 -719.81)"/><path class="e" d="M369.339,710.359,351.3,702.3l-.27.162h0l-15.036,8.654-.595.325,25.637,6.274.108.027.108.027,8.492-7.221Zm-1.514-.162L350.517,708.3l1-5.409Zm-16.848-7.167-.974,5.3-12.575,2.488Zm-13.819,8.329,13.008-2.569,10.06,8.221ZM361.2,717.2l-10.222-8.357,17.74,1.92Z" transform="translate(-335.4 -702.3)"/></g><g transform="translate(1.244 108.552)"><path class="a" d="M248.908,627.024l10.331,10.547-3.462,2.975.216.027,13.224,2.218-12.3-16.091-8.113.162" transform="translate(-248.503 -626.538)"/><path class="ck" d="M282,638.374,280,627.8l11.926,15.6Z" transform="translate(-271.265 -627.34)"/><path class="c" d="M256.434,642.3,249.7,629.1l10.249,9.979" transform="translate(-249.159 -628.289)"/><path class="d" d="M255.631,640.959l-4.543-10.114,7.789,7.356L248.6,627.6" transform="translate(-248.357 -627.194)"/><path class="d" d="M282.245,638.285l-1.569-9.519L280,627.9" transform="translate(-271.265 -627.413)"/><path class="e" d="M247.862,626.614l6.923,13.738.243.027h0l13.332,2.163.514.081-12.386-16.388-.054-.054-.054-.081-8.681.189Zm.838.838,9.519,9.654-3.245,2.758Zm6.653,12.6,3.191-2.731L267.36,642Zm12.44,1.758L258.68,637l-2.028-9.925Zm-11.656-15.334,2.055,10.033-9.763-9.871Z" transform="translate(-247.7 -626.1)"/></g><g transform="translate(8.762 113.447)"><path class="a" d="M283.853,645l3.11,8.87,4.138-8.627,2.542,2.3-2.326,11.25L277.2,655.98l.108-.487Z" transform="translate(-276.74 -644.784)"/><path class="cl" d="M286.963,677.8l-9.763,2.109,14.117,2.813Z" transform="translate(-276.74 -668.713)"/><path class="c" d="M308.7,644.843l-4.029,8.843L301.4,644.6l6.9.3" transform="translate(-294.396 -644.492)"/><path class="c" d="M319.607,654.6l-6.707,6.274,4.543,4.895" transform="translate(-302.786 -651.787)"/><path class="d" d="M302.5,645.4l5.6.92-2.65,7.41,4.111-8.194" transform="translate(-295.198 -645.075)"/><path class="d" d="M314.1,660.536l5.544-4.516-1.46,9.114,2.353-11.034-6.382,6.058" transform="translate(-303.661 -651.423)"/><path class="d" d="M313,678.5l3.3,4.6,1.082.135" transform="translate(-302.859 -669.224)"/><path class="e" d="M292.564,646.958l.027-.189-2.6-2.326h-.216l-7.329-.243-.108.189L275.5,655.5l.3.054,14.171,2.867.108.027.162.027Zm-.406-.135-5.9,5.679,3.7-7.626Zm-2.488-2.055-3.921,8.086-2.948-8.329Zm-13.549,10.358,6.382-10.385,2.975,8.438Zm.487.243,8.816-1.839.243-.054.054.054,3.948,4.489Zm9.33-2.055,6.193-5.977L290,657.938Z" transform="translate(-275.5 -644.2)"/></g><g transform="translate(35.237 137.218)"><path class="d" d="M378.468,753.5l-.838,1.244-.73-.46" transform="translate(-375.953 -747.713)"/><path class="a" d="M379.406,736.347l-2.488,3L374.7,734.4l.487,6.085,4.787,1.974Z" transform="translate(-374.348 -733.778)"/><path class="cm" d="M381.362,755.375l-2.948-2.975-1.514,1.325Z" transform="translate(-375.953 -746.91)"/><path class="c" d="M375.3,733.8c.379.162,4.6,1.92,4.6,1.92l-2.542,3.191-2.028-4.679" transform="translate(-374.786 -733.34)"/><path class="d" d="M378.743,735.345l-2.894-.595.73,3.191L374.2,733.1" transform="translate(-373.984 -732.83)"/><path class="e" d="M373.427,732.533l.595,6.463.3.108,4.516,1.812.406.162-.487-6.409-.027-.271-5.328-2.3Zm4.733,2.082-2.163,2.6-1.947-4.354Zm.568,5.544-2.488-2.569,2.109-2.515Zm-4.056-1.379,1.244-.892,2.217,2.272Zm-.7-5.084,1.7,3.84-1.271.919Z" transform="translate(-373.4 -732.1)"/></g><g transform="translate(12.413 98.221)"><path class="a" d="M294.264,594.745l-.676-.325-1.379-.622-1.109-2.3,2.623,2.7" transform="translate(-290.532 -590.526)"/><path class="a" d="M291.111,595.973l.514-2.028L290.3,591.7Z" transform="translate(-289.948 -590.672)"/><path class="cn" d="M291.111,595.973l.514-2.028L290.3,591.7Z" transform="translate(-289.948 -590.672)"/><path class="c" d="M295.969,601.155l-2.569,2.028.595-3.083" transform="translate(-292.21 -596.801)"/><path class="d" d="M294.5,603.453l.974-1.379-.676-.974,1.974.784" transform="translate(-293.013 -597.53)"/><path class="e" d="M289,587.9l.108.757.892,5.625.054.406,3.029-2.434-.216-.216-3.326-3.57Zm2.785,3.57c-.379-.189-.757-.379-.947-.46l-.622-1.217Zm-1.3,2.353a16.625,16.625,0,0,1,.3-2.353c.3.135.974.46,1.623.811Zm-.73-3.975.676,1.325a4.59,4.59,0,0,0-.243,1.352Z" transform="translate(-289 -587.9)"/></g><path class="d" d="M301.853,348.7a8.165,8.165,0,0,1-3.353,6.707,8.224,8.224,0,0,1,3.353,6.707,8.165,8.165,0,0,1,3.353-6.707A8.224,8.224,0,0,1,301.853,348.7Z" transform="translate(-283.518 -315.166)"/><path class="d" d="M319.15,623.8a6.486,6.486,0,0,1-2.65,5.3,6.486,6.486,0,0,1,2.65,5.3,6.486,6.486,0,0,1,2.65-5.3A6.486,6.486,0,0,1,319.15,623.8Z" transform="translate(-296.65 -515.87)"/><path class="d" d="M560.514,437.7a11.815,11.815,0,0,1-4.814,9.627,11.756,11.756,0,0,1,4.814,9.628,11.814,11.814,0,0,1,4.814-9.628A11.815,11.815,0,0,1,560.514,437.7Z" transform="translate(-471.162 -380.098)"/><path class="d" d="M426.15,437.5a6.486,6.486,0,0,1-2.65,5.3,6.486,6.486,0,0,1,2.65,5.3,6.486,6.486,0,0,1,2.65-5.3A6.428,6.428,0,0,1,426.15,437.5Z" transform="translate(-374.714 -379.952)"/><path class="d" d="M596.15,615.3a6.486,6.486,0,0,1-2.65,5.3,6.486,6.486,0,0,1,2.65,5.3,6.486,6.486,0,0,1,2.65-5.3A6.428,6.428,0,0,1,596.15,615.3Z" transform="translate(-498.74 -509.669)"/><path class="d" d="M471.55,381.7a6.486,6.486,0,0,1-2.65,5.3,6.486,6.486,0,0,1,2.65,5.3,6.486,6.486,0,0,1,2.65-5.3A6.428,6.428,0,0,1,471.55,381.7Z" transform="translate(-407.836 -339.242)"/></g></svg>