<svg xmlns="http://www.w3.org/2000/svg" xmlns:xlink="http://www.w3.org/1999/xlink" width="134.055" height="138.742" viewBox="0 0 134.055 138.742"><defs><style>.a{fill:#1cd4f1;}.b{fill:url(#a);}.c{fill:#75cfe5;}.d{fill:#fff;}.e{fill:#002942;}.f{fill:url(#b);}.g{fill:url(#c);}.h{fill:url(#d);}.i{fill:url(#e);}.j{fill:url(#f);}.k{fill:url(#g);}.l{fill:url(#h);}.m{fill:url(#i);}.n{fill:url(#j);}.o{fill:url(#k);}.p{fill:url(#l);}.q{fill:url(#m);}.r{fill:url(#n);}.s{fill:url(#o);}.t{fill:url(#p);}.u{fill:url(#q);}.v{fill:url(#r);}.w{fill:url(#s);}</style><linearGradient id="a" x1="52.186" y1="25.769" x2="53.344" y2="25.769" gradientUnits="objectBoundingBox"><stop offset="0" stop-color="#2e3192" stop-opacity="0"/><stop offset="1" stop-color="#002942"/></linearGradient><linearGradient id="b" x1="34.221" y1="-1.276" x2="35.007" y2="-1.276" xlink:href="#a"/><linearGradient id="c" x1="7.373" y1="-5.769" x2="9.184" y2="-5.769" xlink:href="#a"/><linearGradient id="d" x1="43.927" y1="-10.363" x2="46.581" y2="-10.363" xlink:href="#a"/><linearGradient id="e" x1="71.714" y1="9.077" x2="74.423" y2="9.077" xlink:href="#a"/><linearGradient id="f" x1="1.616" y1="23.345" x2="2.125" y2="23.345" xlink:href="#a"/><linearGradient id="g" x1="-0.657" y1="1.702" x2="0.184" y2="1.702" xlink:href="#a"/><linearGradient id="h" x1="44.39" y1="10.398" x2="46.29" y2="10.398" xlink:href="#a"/><linearGradient id="i" x1="4.824" y1="-8.459" x2="6.083" y2="-8.459" xlink:href="#a"/><linearGradient id="j" x1="1.769" y1="39.903" x2="2.309" y2="39.903" xlink:href="#a"/><linearGradient id="k" x1="8.755" y1="-3.658" x2="10.568" y2="-3.658" xlink:href="#a"/><linearGradient id="l" x1="189.768" y1="-25.997" x2="193.91" y2="-25.997" xlink:href="#a"/><linearGradient id="m" x1="77.163" y1="-19.102" x2="78.292" y2="-19.102" xlink:href="#a"/><linearGradient id="n" x1="0.648" y1="-0.788" x2="1.625" y2="-0.788" xlink:href="#a"/><linearGradient id="o" x1="7.349" y1="-8.504" x2="8.214" y2="-8.504" xlink:href="#a"/><linearGradient id="p" x1="-0.192" y1="38.361" x2="0.627" y2="38.361" xlink:href="#a"/><linearGradient id="q" x1="43.066" y1="-55.333" x2="43.442" y2="-55.333" xlink:href="#a"/><linearGradient id="r" x1="33.912" y1="-12.114" x2="34.503" y2="-12.114" xlink:href="#a"/><linearGradient id="s" x1="5.642" y1="63.09" x2="6.081" y2="63.09" xlink:href="#a"/></defs><g transform="translate(0)"><g transform="translate(71.996 41.466)"><path class="a" d="M550.923,415.1l-15.437,11.249,7.093,33.373L518.8,438.349l9.343-16.468" transform="translate(-517.894 -413.819)"/><path class="b" d="M535.643,441.425l-6.812-4.625L519.8,452.393l15.249-10.468" transform="translate(-518.581 -428.738)"/><path class="c" d="M579.981,458.747l8.281-44.247L572.2,425.937l7.093,33.373" transform="translate(-554.607 -413.406)"/><path class="d" d="M588.2,417.6l-8.25,32.654-6.75-21.717,6.843,33.092" transform="translate(-555.295 -415.538)"/><path class="d" d="M534.855,451.8l-12.968,6.812-2.187,4" transform="translate(-518.513 -439.051)"/><path class="e" d="M541.336,457.154l9-46.154-1.031.313-22.78,6.781-.625.188-9.656,16.437-.344.594,25.217,23.03Zm-.625-2.562L533.805,424l15-10.906Zm6-41.341-13.5,9.843-5.718-4.125Zm-20.28,6.312,5.812,4.187-13.905,9.593Zm-8.937,15.687,15.343-10.562,7,31Z" transform="translate(-515.9 -411)"/></g><g transform="translate(59.653)"><path class="a" d="M491.562,282.1l11.593,41.654,12.624-4.437-.219.594-13.812,36.842L479,301.974,491.312,281.6" transform="translate(-478.188 -280.569)"/><path class="f" d="M503.7,371.124,479.8,350.5l22.124,53.184Z" transform="translate(-478.738 -327.939)"/><path class="c" d="M544.792,322.2,521.2,285.8l10.343,40.623" transform="translate(-507.201 -283.456)"/><path class="d" d="M542.924,318.835l-19.061-26.342,7.218,30.561L519.3,281.4" transform="translate(-505.894 -280.431)"/><path class="d" d="M503.192,371.774l-21.9-17.968L480.1,350.9" transform="translate(-478.944 -328.214)"/><path class="e" d="M489.618,278.3,476.4,300.08l.094.25.094.219,23.436,55.528.562-1.437,14.062-37.029h0l.25-.656-24.686-37.748Zm23.811,38.4-11.843,4.219-10.5-38.342Zm-12.749,34.56,1.094-29.217,11.562-4.094Zm-22.217-49.122,22.186,19.718-1.125,30.217Zm10.968-21.436,10.749,39.279-22.467-19.968Z" transform="translate(-476.4 -278.3)"/></g><g transform="translate(102.119 72.402)"><path class="a" d="M621.656,513.231l10.093,13.155L615,529.543l16.624,10.781,13.5-28.123-22.217.844" transform="translate(-614.156 -511.513)"/><path class="g" d="M667.9,541.78c.063-.094.594-13.687.594-13.687L680.774,515.5l-12.655,26.717" transform="translate(-650.526 -513.781)"/><path class="c" d="M614.8,531.7l16.78-2.906-10.5-12.593" transform="translate(-614.019 -514.263)"/><path class="d" d="M617.2,531.187l6.687-10.781,8.5,7.875L623.168,515.5" transform="translate(-615.669 -513.781)"/><path class="d" d="M670.7,528.849l9.125-6.187,3.156-7.562" transform="translate(-652.451 -513.506)"/><path class="e" d="M619.831,510.969l-.812.031L612.3,528.311l.687.469,17.03,11.156.375-.781,13.374-28.186.469-.969Zm-.25,1.687,9.437,11.874-15.155,2.875Zm9.687,25.467-14.874-9.718,15.03-2.844Zm1.125-1.5.156-11.281v-.187l.188-.25,10.593-11.343Zm-.344-12.593-9.531-11.968,21.5-.875Z" transform="translate(-612.3 -510)"/></g><g transform="translate(60.434 43.81)"><path class="a" d="M482.2,437.974l16.218,3.594-10.812,13.187,19.655-2.437L499.543,422.1l-16.468,14.937" transform="translate(-481.169 -420.975)"/><path class="h" d="M542.212,454.6c-.031-.125-8.312-10.874-8.312-10.874l1.312-17.53,7.468,28.592" transform="translate(-516.714 -423.794)"/><path class="c" d="M486.756,490.205l11-12.968L481.6,474.3" transform="translate(-480.756 -456.864)"/><path class="d" d="M487.731,488.743l-1.812-12.562,11.593.594L482.2,472.9" transform="translate(-481.169 -455.901)"/><path class="d" d="M536.6,443.705l3.031-10.624-2.437-7.781" transform="translate(-518.57 -423.175)"/><path class="e" d="M479.494,434.905l-.594.531,5.968,17.593.813-.094,20.218-2.375-.219-.844-7.875-30.186-.281-1.031Zm.875,1.437,14.843,3.031-9.781,11.968Zm23.811,13.312-17.624,2.094,9.687-11.843Zm-.125-1.875-7.125-8.749-.125-.156v-.312l.812-15.5Zm-8.343-9.406-15-3.062,15.937-14.5Z" transform="translate(-478.9 -418.5)"/></g><g transform="translate(49.372 47.216)"><path class="a" d="M473.736,457.561,447.612,434,445.3,483.716l26.373-.844L455.549,457.9l17.811-.125" transform="translate(-444.738 -432.563)"/><path class="i" d="M447.769,432.8l7.875,24.624L445.8,482.172l2.125-46.5" transform="translate(-445.081 -431.738)"/><path class="c" d="M496.436,509.537,478,509.1l16.374,24.655,1.75-22.749" transform="translate(-467.219 -484.195)"/><path class="d" d="M497.974,511.7l-3.625,16.124L481.1,511.731l15.468,24.4" transform="translate(-469.351 -485.983)"/><path class="d" d="M455.031,509.9l-9.218,13.749-.312,11.374" transform="translate(-444.875 -484.745)"/><path class="e" d="M471.373,479.647l1.906-25,.031-.25-.469-.437h0l-27-24.561-.063,1.375-2.25,49.372-.031.781,27.842-.406Zm-1-1.375-15.124-23.124h16.874Zm-22.9-45.9,23.811,21.655H454.624Zm-.75,1.187,6.937,21-8.906,22.5Zm-1.875,46.216,9.5-23.967,15.437,23.624Z" transform="translate(-443.5 -429.4)"/></g><g transform="translate(62.528 63.559)"><path class="a" d="M499.043,490.962l18.686,24.5,4.156-31.061,10.218,4.562,4.156,37.4-46.872,5.5-.187-1.625Z" transform="translate(-488.075 -483.556)"/><path class="j" d="M518.142,583.8,489.8,600.205l46.872-5.5Z" transform="translate(-488.488 -551.896)"/><path class="c" d="M542.33,483.4l-3.625,31.592L519.3,490.056l21.843-6.062" transform="translate(-508.769 -482.869)"/><path class="c" d="M593.824,499.8,579.2,526.111,598.324,536.8" transform="translate(-549.952 -494.144)"/><path class="d" d="M523,491.118l18.374-2.812-.812,25.78,4.562-29.686" transform="translate(-511.313 -483.556)"/><path class="d" d="M582.287,524.9l12.718-19.655,4.594,29.936-3.75-36.779L582.1,523.68" transform="translate(-551.945 -493.182)"/><path class="d" d="M580.3,585.9l14.874,11,3.531-.719" transform="translate(-550.708 -553.339)"/><path class="e" d="M530.129,486.95l-.062-.625L519.6,481.7l-.656.188-23.061,6.593-.187.719L485.6,530.728l1-.125,47.06-5.344.344-.031.531-.062Zm-1.344.031-12.624,23.655L520,483.106Zm-9.874-3.906-4.062,29.155-17.561-22.967Zm-31.748,45.966,9.437-38.81,17.78,23.249Zm1.781.25L514.5,514.667l.688-.406.219.125,16.811,10Zm27-15.874,13.28-24.9,4.031,35.185Z" transform="translate(-485.6 -481.7)"/></g><g transform="translate(24.842 29.623)"><path class="a" d="M389.368,376.831,380.805,419.2,367.9,415.7l.25.562,16.405,35.748,18.78-56.278L389.586,376.3" transform="translate(-366.994 -375.3)"/><path class="k" d="M409.2,464.58l22.342-22.28-18.218,54.622Z" transform="translate(-395.388 -420.676)"/><path class="c" d="M367.9,418.729,388.805,380.7l-7.375,41.248" transform="translate(-366.994 -378.325)"/><path class="d" d="M369.6,415.229l17.124-27.623-5,30.967,8.749-42.373" transform="translate(-368.163 -375.231)"/><path class="d" d="M411.6,465.2l20.561-19.5.937-3" transform="translate(-397.038 -420.951)"/><path class="e" d="M386.936,374.006,365,413.441l.281.625h0L381.968,450l.656,1.406,19.343-57.059.094-.219.094-.25L387.436,373.1Zm-.656,3.437-7.718,39L366.469,413.1Zm-19.655,36.873,11.843,3.25,3.187,29.092Zm16.218,33.092-3.281-30.061,20.718-21.28Zm18-53.528-20.968,21.53,7.906-39.935Z" transform="translate(-365 -373.1)"/></g><g transform="translate(44.091 74.777)"><path class="a" d="M461.042,537.536,429.7,521.6l10.718,48.622,25.249-7.687L443.574,542.63l17.155-4.75" transform="translate(-428.731 -520.35)"/><path class="l" d="M428.7,520.7l14.03,21.686-3.062,26.467-10.062-45.435" transform="translate(-428.044 -519.731)"/><path class="c" d="M491.505,573.6,473.6,577.944,495.817,597.5,491.6,575.069" transform="translate(-458.913 -556.101)"/><path class="d" d="M493.58,575.2l.687,16.5L477.3,579.606l21.311,19.53" transform="translate(-461.457 -557.201)"/><path class="d" d="M460.212,588.9,454.9,604.555l2.656,11.062" transform="translate(-446.057 -566.62)"/><path class="e" d="M464.379,559.472l-4.687-24.655-.062-.25-.562-.281h0L426.6,517.6l.313,1.344L437.6,567.222l.156.75,26.78-7.656Zm-1.312-1.062L442.443,540l16.28-4.406Zm-34.061-38.342,28.623,14.718-16.093,4.344Zm-.406,1.344,12.156,18.468-2.75,24.061ZM438.818,566.5l2.937-25.623,21.061,18.78Z" transform="translate(-426.6 -517.6)"/></g><g transform="translate(93.088 80.12)"><path class="a" d="M587.4,584.347l14.093-12.874L590.775,539.1l26,18.624L609.3,575.1" transform="translate(-586.15 -537.725)"/><path class="m" d="M634.1,614.256l7.312,3.812,7.25-16.468-14,12.062" transform="translate(-618.257 -580.695)"/><path class="c" d="M588.844,539.725,585.5,584.6l14.687-13.124L589.469,539.1" transform="translate(-584.844 -537.725)"/><path class="d" d="M587.5,583.154l4.594-33.373,9.125,20.874L590.781,538.5" transform="translate(-586.219 -537.313)"/><path class="d" d="M636.5,614.237l12.124-8.187,1.75-4.25" transform="translate(-619.907 -580.833)"/><path class="e" d="M587.244,535.919,583.4,582.76l1-.437,21.874-9.249.594-.25,7.781-17.374.281-.625L587.337,534.7Zm.906,2.469L598.4,568.042l-13.718,12.5Zm-1.375,41.748,12.343-11.281,6.125,3.469Zm19.468-8.5-6.25-3.531,12.749-11.062Zm7.125-16.593-14.093,12.187L588.9,537.2Z" transform="translate(-583.4 -534.7)"/></g><g transform="translate(50.466 102.838)"><path class="a" d="M474.217,609.9,451.5,636.773l49.778.656-1.719-26.311-24.4,16.937-.719-17.78" transform="translate(-450.094 -609.119)"/><path class="n" d="M450.4,677.487l24.342-8.687,25.061,9.031-46.56-.594" transform="translate(-449.338 -649.614)"/><path class="c" d="M525.3,609.2l.156,18.436,24.092-17.187-22.78-1" transform="translate(-500.833 -608.638)"/><path class="d" d="M526.6,611l16.218,3.094-15.655,13.78,23.874-16.28" transform="translate(-501.726 -609.875)"/><path class="d" d="M526.7,670.2l14.03,8.718,11.374-.031" transform="translate(-501.795 -650.576)"/><path class="e" d="M496.372,608.462,471.311,607.4h-.25l-.406.469h0L447,635.68h1.375l49.435.625h.781l-1.312-27.811Zm-1.312,1.062L472.436,625.4l-.562-16.874ZM449.937,633.9l20.874-24.53.562,16.655Zm1.219.75,20.749-7.625,22.78,8.156Zm46.216.312-24.28-8.687,23.092-16.187Z" transform="translate(-447 -607.4)"/></g><g transform="translate(15.405 86.932)"><path class="a" d="M341.025,591.161l26.655-15.437L337.4,567.662l5.812-9.562,37.623.625-.469,47.185-1.656-.031Z" transform="translate(-336.588 -557.6)"/><path class="o" d="M434.3,577.1l12.687,30.186.469-47.185Z" transform="translate(-403.208 -558.975)"/><path class="c" d="M336.2,589.4l30.9,7.593-27.186,16.093-3.25-22.436" transform="translate(-335.762 -579.119)"/><path class="c" d="M356.7,558.8l24.249,17.843,13.03-17.655" transform="translate(-349.857 -558.081)"/><path class="d" d="M341.244,611.511l-.469-18.593,25.5,4.093L337.4,588.7" transform="translate(-336.588 -578.638)"/><path class="d" d="M379.961,575.312l-17.905-15.124,30.28-.781L355.4,558.5l23.342,16.843" transform="translate(-348.963 -557.875)"/><path class="d" d="M436.3,577.637l12.781-13.343-.25-3.594" transform="translate(-404.583 -559.388)"/><path class="e" d="M341.331,556.5h-.625l-5.906,9.781.094.688,3.625,23.717.687.281,39.935,15.249v-1l.656-47.341v-.906Zm-.156,1.312,21.874,15.5-26.811-7.281Zm-5.125,9.312,28.4,7.718-25.03,14.53Zm41.591,37.31-37.31-14.249L365.642,575.5Zm.469-1.719L366.829,575.5l-.313-.75.156-.219L378.7,559.094ZM365.8,573.936l-23.03-16.343,35.4.437Z" transform="translate(-334.8 -556.5)"/></g><g transform="translate(14.374 45.966)"><path class="a" d="M334.2,444.168l1.5-1.187,3.062-2.406,1.406-6.375-4.906,8.343" transform="translate(-333.356 -431.45)"/><path class="a" d="M351.269,445.387l-2.469-4.812,1.969-6.375Z" transform="translate(-343.394 -431.45)"/><path class="p" d="M351.269,445.387l-2.469-4.812,1.969-6.375Z" transform="translate(-343.394 -431.45)"/><path class="c" d="M334.2,458.912l7.625,3.5-3.312-7.312" transform="translate(-333.356 -445.819)"/><path class="d" d="M340.825,462.918l-3.219-2.875L338.7,457.2l-4.5,3.156" transform="translate(-333.356 -447.263)"/><path class="e" d="M338.156,427.087l-6.281,10.968-.375.656,9.031,4.281-.094-1.062-1.156-14.593-.156-1.937Zm-.906,3.781-.844,3.406c-.437.312-1.25.969-2.094,1.687Zm-4,7.468c1.469-1.25,2.937-2.5,3.594-3a48.858,48.858,0,0,1,2.125,5.718Zm5.718-.719a15.48,15.48,0,0,0-1.437-3.219l.906-3.687Z" transform="translate(-331.5 -425.4)"/></g><g transform="translate(107.025 117.243)"><path class="a" d="M637.331,671.806v-1.875l.063-3.906L633.3,660.9l3.406,9.093" transform="translate(-631.644 -658.588)"/><path class="a" d="M643.462,666.225l-5.312-1.094L634.4,659.6Z" transform="translate(-632.4 -657.694)"/><path class="q" d="M643.462,666.225l-5.312-1.094L634.4,659.6Z" transform="translate(-632.4 -657.694)"/><path class="c" d="M646.55,683.95l7.5-3.75-7.75-2" transform="translate(-640.582 -670.482)"/><path class="d" d="M653.256,680.937l-4.281.719L647.444,679l-.344,5.5" transform="translate(-641.132 -671.032)"/><path class="e" d="M628.719,655.312l4.593,11.749.281.719,9-4.344-.875-.594-12.093-8.25L628,653.5Zm2.375,3.031,2.156,2.781c-.031.531-.031,1.594,0,2.687Zm3.312,7.812c-.063-1.937-.125-3.844-.094-4.687a44.976,44.976,0,0,1,5.812,1.937Zm3.031-4.906a16.563,16.563,0,0,0-3.406-.906l-2.312-3.031Z" transform="translate(-628 -653.5)"/></g><g transform="translate(0 66.09)"><path class="a" d="M290,498.425l13.343-1.187-.219-5.437,8.406,10.343-4.687,9.312L290.375,499.05" transform="translate(-288.594 -491.175)"/><path class="r" d="M334,511.5l3.094,13.5,4.718-8.437Z" transform="translate(-318.845 -504.719)"/><path class="c" d="M292.4,497.525l12.406-.437.031-6.187" transform="translate(-290.244 -490.556)"/><path class="d" d="M297.8,497.575l8.937-2.719,1.437,2.094.719-5.25" transform="translate(-293.956 -491.106)"/><path class="d" d="M335.7,514.1l6.406,6.281.875-2.312" transform="translate(-320.013 -506.507)"/><path class="e" d="M300.718,490.394l-.469-.594L286.5,496.425l-1,.469,17.78,13.655.781.594,5.312-9.468-.344-.437Zm-.031,1.781,5.625,7.281-5.468-3.625Zm-1.125-.844.125,3.781.031.531h-.125l-10.249.625Zm-11.5,6.125,11.812-.75L303,508.893Zm16.062,11.406-2.937-11.468,6.843,4.5Z" transform="translate(-285.5 -489.8)"/></g><g transform="translate(89.807 6.406)"><path class="a" d="M577.3,310.618l12.624-4.468-1.531-5.25,10.687,7.937-2.187,10.187-19.061-7.906" transform="translate(-575.925 -300.244)"/><path class="s" d="M619.6,319.5l6.375,12.312,2.437-9.343Z" transform="translate(-605.007 -313.032)"/><path class="c" d="M579.5,309.6l11.906-3.531-1.531-5.968" transform="translate(-577.438 -299.694)"/><path class="d" d="M584.2,309.068l8-4.875,1.906,1.625-.594-5.218" transform="translate(-580.669 -300.038)"/><path class="d" d="M621.9,321.6l7.75,4.5.281-2.437" transform="translate(-606.588 -314.475)"/><path class="e" d="M585.993,299.269l-.594-.469-11.656,9.843-.844.719,20.624,8.781.906.375,2.781-10.5-.437-.344Zm.437,1.719,7.25,5.656-6.218-2.125Zm-1.312-.531,1.062,3.625.156.5-.125.031-9.781,3.187Zm-9.593,8.812,11.249-3.656,6.062,11.031ZM593.9,316.3l-5.687-10.374,7.75,2.656Z" transform="translate(-572.9 -298.8)"/></g><g transform="translate(43.154 119.087)"><path class="a" d="M454.136,662.256,429.2,678.943l34.154.906,8.437-18.249-19.78,10.031Z" transform="translate(-427.45 -660.912)"/><path class="t" d="M433.2,700.731l21.561-7.031,11.343,8.218-31.342-.844" transform="translate(-430.2 -682.982)"/><path class="c" d="M506.2,661.05l-2,10.124L523.043,660.8" transform="translate(-479.014 -660.362)"/><path class="d" d="M507.556,662.975l7.468,1.25-9.125,6.968,18.28-8.593" transform="translate(-480.183 -661.6)"/><path class="d" d="M503.2,695.4l7.625,7.781,2.906-.094" transform="translate(-478.326 -684.151)"/><path class="e" d="M459.379,679.024l.687.031,8.812-19.655-1.125.031-17.405.313-.438.312-24.78,16.905-1.531,1.031,1.875.062Zm-30.873-2.031,19.311-6.187.625-.187.062.031,9.531,7.218Zm38.373-15.843L459.5,677.618l-9.937-7.531Zm-1.187-.625-16.374,8.468L451,660.806Zm-15.968.937-1.656,8.125-19.343,6.187Z" transform="translate(-423.6 -659.4)"/></g><g transform="translate(24.061 120.462)"><path class="a" d="M366.8,677.981l5.375-5.281-3.062-4.5" transform="translate(-365.456 -666.825)"/><path class="a" d="M378.156,671.737,375.5,666.8l13.874,3.031Z" transform="translate(-371.438 -665.862)"/><path class="u" d="M378.156,671.737,375.5,666.8l13.874,3.031Z" transform="translate(-371.438 -665.862)"/><path class="c" d="M367,685.668l5.593-5.906,9.843-1.062-14.062,6.781" transform="translate(-365.594 -674.044)"/><path class="d" d="M368.256,683.312l3.969-5.812,1,1.531,8.031-1.062-.25.375-7.437,2.187-4.093,3.094-1.375,1.156" transform="translate(-366.35 -673.219)"/><path class="e" d="M365.719,664.644,362.5,676.862l1.25-.562,17.343-7.937,1.625-.719L366,663.8Zm-.094,9.562,3.844-4.062,7.687-1.187Zm2.906-4.687-4.125,4.375,2.125-8Zm9.531-1.844-8.562,1.312-2.062-3.781Z" transform="translate(-362.5 -663.8)"/></g><g transform="translate(35.185 10.218)"><path class="a" d="M405.5,319.218l7.5.563,1.375-5.281" transform="translate(-403.188 -313.406)"/><path class="a" d="M429.5,319.85l1.969-5.25,6.875,12.405Z" transform="translate(-419.688 -313.475)"/><path class="v" d="M429.5,319.85l1.969-5.25,6.875,12.405Z" transform="translate(-419.688 -313.475)"/><path class="c" d="M404.5,330.7l8.156.312,7.25,6.687-14.374-6.062" transform="translate(-402.5 -324.544)"/><path class="d" d="M406.587,326.844l6.968-.844-.469,1.75,6.093,5.343-.437.062L412.181,329l-5-1.031-1.781-.25" transform="translate(-403.119 -321.313)"/><path class="e" d="M409.412,311.406,398.1,317.031l1.25.562,17.405,7.812,1.625.719L410.256,311Zm-7.25,6.25,5.593.187,5.968,5Zm5.437-.906-6-.187,7.406-3.687Zm7.656,5.937-6.656-5.562,1.469-4.062Z" transform="translate(-398.1 -311)"/></g><g transform="translate(113.712 45.216)"><path class="d" d="M678.2,469.1l1.937,3.312,1.906-1.031" transform="translate(-669.201 -454.695)"/><path class="a" d="M653.637,432.156l5.937,8.125L666.043,428l-2.281,15.468L651.2,447.749Z" transform="translate(-650.638 -426.438)"/><path class="w" d="M653.1,473.825l8.031-7.125,3.656,3.625Z" transform="translate(-651.944 -453.045)"/><path class="c" d="M670.862,426.5c-1.031.375-12.062,4.156-12.062,4.156l6,8.593,5.969-11.593" transform="translate(-655.863 -425.406)"/><path class="d" d="M661.5,430.168l7.562-1.031-2.437,8.031,6.937-11.968" transform="translate(-657.719 -424.513)"/><path class="e" d="M665.837,423l-14.03,4.968-.094.719-2.312,16.28,1.062-.344,11.874-3.875.75-.25,2.594-16.437Zm-1.844,1.812-5.718,10.812-5.093-7Zm-11.312,5,4.969,6.812-6.812,6.156Zm-.344,13.062,6.062-5.437,3.062,2.5Zm9.843-3.781-3.125-2.531,5.031-9.531Z" transform="translate(-649.4 -423)"/></g><path class="d" d="M397.962,479.1a13.652,13.652,0,0,1-5.562,11.124,13.583,13.583,0,0,1,5.562,11.124,13.651,13.651,0,0,1,5.562-11.124A13.584,13.584,0,0,1,397.962,479.1Z" transform="translate(-358.996 -416.354)"/><path class="d" d="M634.862,337.5a7.5,7.5,0,0,1-3.062,6.125,7.5,7.5,0,0,1,3.062,6.125,7.5,7.5,0,0,1,3.062-6.125A7.5,7.5,0,0,1,634.862,337.5Z" transform="translate(-523.588 -319.001)"/><path class="d" d="M512.675,481.2a9.435,9.435,0,0,1-3.875,7.75,9.5,9.5,0,0,1,3.875,7.75,9.435,9.435,0,0,1,3.875-7.75A9.435,9.435,0,0,1,512.675,481.2Z" transform="translate(-439.023 -417.797)"/><path class="d" d="M594.475,588.5a9.435,9.435,0,0,1-3.875,7.75,9.5,9.5,0,0,1,3.875,7.75,9.435,9.435,0,0,1,3.875-7.75A9.5,9.5,0,0,1,594.475,588.5Z" transform="translate(-495.262 -491.568)"/></g></svg>