<svg xmlns="http://www.w3.org/2000/svg" width="96.776" height="91.851" viewBox="0 0 96.776 91.851"><defs><style>.a{fill:#284fd1;}</style></defs><path class="a" d="M87.823,19.021V57.414A1.611,1.611,0,0,1,86.488,59a11.389,11.389,0,0,0-5.073,2.263c-.757.593-13.085,10.248-15.65,12.258a1.6,1.6,0,0,1-.989.341H63.359a1.613,1.613,0,0,1-1.408-2.393,13.314,13.314,0,0,0,1.5-6.643A12.531,12.531,0,0,0,50.893,52.511H36.283A18.644,18.644,0,0,0,27,54.988l-8.6,4.945a1.617,1.617,0,0,1-1.853-.176,8.5,8.5,0,0,0-2.441-1.448,1.6,1.6,0,0,1-1.014-1.5V19.021a6.8,6.8,0,0,1,6.8-6.8h16.57a1.611,1.611,0,0,1,1.611,1.611V30.773a4.392,4.392,0,0,0,6.447,3.986l5.495-2.919a1.161,1.161,0,0,1,1.093,0c5.914,3.142,6.154,3.437,7.555,3.437a4.413,4.413,0,0,0,4.386-4.491V13.836a1.612,1.612,0,0,1,1.611-1.611H81.026A6.8,6.8,0,0,1,87.823,19.021ZM43.005,31.912,48.5,28.994a4.381,4.381,0,0,1,4.118,0l5.494,2.919a1.165,1.165,0,0,0,1.712-1.029V13.836a1.612,1.612,0,0,0-1.611-1.611H42.9a1.611,1.611,0,0,0-1.611,1.611V30.883a1.165,1.165,0,0,0,1.713,1.029ZM83.4,63.8,67.783,76.034a4.959,4.959,0,0,1-3.046,1.051H50.39a.806.806,0,0,1-.244-1.574l3.573-1.136a9.3,9.3,0,0,0,6.508-8.9v-.413a9.334,9.334,0,0,0-9.334-9.334H36.283a15.427,15.427,0,0,0-7.674,2.049L22.2,61.468a5.375,5.375,0,0,0-2.662,4.709c0,.2.008,29.969,0,32.05a1.61,1.61,0,0,0,1.611,1.619H57.758a14.806,14.806,0,0,0,8.776-2.9l26.9-19.994A8.27,8.27,0,1,0,83.4,63.8ZM11.079,60.971H5.237A5.242,5.242,0,0,0,0,66.208V98.839a5.242,5.242,0,0,0,5.237,5.237h5.841a5.242,5.242,0,0,0,5.237-5.237V66.208a5.242,5.242,0,0,0-5.237-5.237Z" transform="translate(0 -12.225)"/></svg>