<svg xmlns="http://www.w3.org/2000/svg" width="81.174" height="81.174" viewBox="0 0 81.174 81.174"><defs><style>.a{fill:#284fd1;}</style></defs><g transform="translate(-0.001 0)"><g transform="translate(0.001 0)"><path class="a" d="M73.525,7.649A26.146,26.146,0,0,0,30.158,34.2L.7,63.66A2.376,2.376,0,0,0,0,65.342V78.8a2.377,2.377,0,0,0,2.378,2.378H15.833a2.376,2.376,0,0,0,1.681-.7l3.363-3.365a2.378,2.378,0,0,0,.68-1.955l-.418-3.614,5.007-.472a2.374,2.374,0,0,0,2.144-2.144l.472-5.007,3.614.42a2.34,2.34,0,0,0,1.856-.585,2.384,2.384,0,0,0,.8-1.777V57.55h4.348a2.376,2.376,0,0,0,1.681-.7l6.1-6.018a25.754,25.754,0,0,0,26.37-6.19A26.189,26.189,0,0,0,73.525,7.649ZM66.8,24.466a7.134,7.134,0,1,1,0-10.089A7.14,7.14,0,0,1,66.8,24.466Z" transform="translate(-0.001 0)"/></g></g></svg>