<svg xmlns="http://www.w3.org/2000/svg" width="59.084" height="45.966" viewBox="0 0 59.084 45.966"><defs><style>.a{opacity:0.504;mix-blend-mode:luminosity;isolation:isolate;}.b{fill:#231f20;}.c{fill:#f79410;}.d{fill:#ff5f00;}.e{fill:#eb001b;}.f{fill:#f79e1b;}</style></defs><g class="a"><path class="b" d="M158.413,1323.533v.118h.11a.115.115,0,0,0,.059-.015.053.053,0,0,0,.022-.045.051.051,0,0,0-.022-.044.107.107,0,0,0-.059-.015h-.11Zm.111-.084a.205.205,0,0,1,.132.038.127.127,0,0,1,.046.1.12.12,0,0,1-.037.092.181.181,0,0,1-.106.044l.148.168h-.114l-.136-.167h-.044v.167h-.1v-.447h.207Zm-.03.6a.357.357,0,0,0,.145-.029.383.383,0,0,0,.118-.08.374.374,0,0,0,.08-.118.382.382,0,0,0,0-.292.387.387,0,0,0-.08-.118.381.381,0,0,0-.118-.08.371.371,0,0,0-.145-.028.387.387,0,0,0-.148.028.372.372,0,0,0-.2.494.353.353,0,0,0,.079.118.377.377,0,0,0,.121.08.368.368,0,0,0,.148.03m0-.857a.494.494,0,0,1,.347.142.477.477,0,0,1,.1.527.5.5,0,0,1-.1.153.527.527,0,0,1-.156.1.482.482,0,0,1-.191.038.489.489,0,0,1-.194-.038.5.5,0,0,1-.157-.1.5.5,0,0,1-.1-.158.477.477,0,0,1,.1-.527.467.467,0,0,1,.157-.1.489.489,0,0,1,.194-.038m-45.23-1.721a1.468,1.468,0,1,1,1.471,1.552,1.455,1.455,0,0,1-1.471-1.552m3.925,0v-2.425h-1.054v.591a1.837,1.837,0,0,0-1.531-.71,2.549,2.549,0,0,0,0,5.092,1.838,1.838,0,0,0,1.531-.71v.589h1.053v-2.425Zm35.621,0a1.468,1.468,0,1,1,1.471,1.552,1.455,1.455,0,0,1-1.471-1.552m3.926,0V1317.1h-1.055v2.537a1.837,1.837,0,0,0-1.531-.71,2.549,2.549,0,0,0,0,5.092,1.838,1.838,0,0,0,1.531-.71v.589h1.055Zm-26.463-1.6a1.2,1.2,0,0,1,1.227,1.176h-2.515a1.248,1.248,0,0,1,1.289-1.176m.021-.945a2.548,2.548,0,0,0,.071,5.092,2.945,2.945,0,0,0,1.987-.679l-.517-.781a2.312,2.312,0,0,1-1.41.507,1.346,1.346,0,0,1-1.45-1.187h3.6c.01-.131.021-.264.021-.405a2.326,2.326,0,0,0-2.3-2.546m12.728,2.546a1.468,1.468,0,1,1,1.471,1.552,1.455,1.455,0,0,1-1.471-1.552m3.925,0v-2.423H145.9v.591a1.839,1.839,0,0,0-1.531-.71,2.549,2.549,0,0,0,0,5.092,1.84,1.84,0,0,0,1.531-.71v.589h1.054v-2.425Zm-9.878,0a2.449,2.449,0,0,0,2.586,2.546,2.535,2.535,0,0,0,1.743-.578l-.506-.852a2.131,2.131,0,0,1-1.27.437,1.555,1.555,0,0,1,0-3.1,2.136,2.136,0,0,1,1.27.437l.506-.852a2.538,2.538,0,0,0-1.743-.578,2.449,2.449,0,0,0-2.586,2.546m13.59-2.546a1.431,1.431,0,0,0-1.278.71v-.588h-1.045v4.848h1.055v-2.717c0-.8.345-1.248,1.034-1.248a1.709,1.709,0,0,1,.659.122l.325-.994a2.243,2.243,0,0,0-.751-.132m-28.257.507a3.625,3.625,0,0,0-1.977-.507c-1.228,0-2.019.589-2.019,1.552,0,.79.589,1.278,1.673,1.43l.5.071c.578.081.851.233.851.507,0,.375-.384.589-1.105.589a2.583,2.583,0,0,1-1.612-.507l-.5.822a3.5,3.5,0,0,0,2.1.629c1.4,0,2.212-.659,2.212-1.582,0-.852-.639-1.3-1.694-1.45l-.5-.072c-.456-.059-.822-.151-.822-.476,0-.354.345-.568.923-.568a3.127,3.127,0,0,1,1.511.416l.456-.852Zm13.6-.506a1.428,1.428,0,0,0-1.277.71v-.59h-1.045v4.848h1.054v-2.717c0-.8.345-1.248,1.034-1.248a1.71,1.71,0,0,1,.659.122l.325-.994a2.243,2.243,0,0,0-.751-.132m-9,.122h-1.724v-1.471H124.22v1.471h-.983v.964h.983v2.212c0,1.125.437,1.795,1.684,1.795a2.477,2.477,0,0,0,1.319-.375l-.3-.9a1.952,1.952,0,0,1-.933.274c-.527,0-.7-.325-.7-.811v-2.191h1.724Zm-15.761,4.849v-3.042a1.8,1.8,0,0,0-1.907-1.927,1.877,1.877,0,0,0-1.7.863,1.779,1.779,0,0,0-1.6-.863,1.6,1.6,0,0,0-1.42.72v-.6H103.56v4.848h1.063v-2.688a1.135,1.135,0,0,1,1.187-1.289c.7,0,1.054.456,1.054,1.278v2.7h1.066v-2.688a1.144,1.144,0,0,1,1.186-1.289c.72,0,1.063.456,1.063,1.278v2.7Z" transform="translate(-100.501 -1278.195)"/><path class="c" d="M1930.389,977.929v-.709h-.185l-.214.487-.212-.487h-.185v.709h.131v-.534l.2.461h.136l.2-.462v.535h.13Zm-1.171,0v-.588h.236v-.12h-.6v.12h.236v.588h.13Z" transform="translate(-1871.875 -948.355)"/><path class="d" d="M745.686,160.861H729.71V132.15h15.976Z" transform="translate(-708.156 -128.247)"/><path class="e" d="M22.567,18.259A18.229,18.229,0,0,1,29.54,3.9a18.259,18.259,0,1,0,0,28.711,18.229,18.229,0,0,1-6.974-14.355" transform="translate(0 0.001)"/><path class="f" d="M1029.652,18.259a18.259,18.259,0,0,1-29.542,14.355,18.261,18.261,0,0,0,0-28.711,18.258,18.258,0,0,1,29.542,14.355" transform="translate(-970.569 0.001)"/></g></svg>