<svg xmlns="http://www.w3.org/2000/svg" width="34.119" height="43.815" viewBox="0 0 34.119 43.815"><defs><style>.a{fill:#284fd1;}</style></defs><path class="a" d="M33.74,8.871,17.272.1a.818.818,0,0,0-.78,0L.48,8.876a.82.82,0,0,0-.425.719V21.057A23.733,23.733,0,0,0,14.28,42.778l2.223.969a.819.819,0,0,0,.652,0l2.5-1.082A23.687,23.687,0,0,0,34.174,20.83V9.6a.82.82,0,0,0-.434-.724Zm-8.586,9.688L15.067,26.764a.82.82,0,0,1-1.141-.1L9.6,21.59a.82.82,0,1,1,1.247-1.065l3.811,4.462,9.464-7.7a.82.82,0,1,1,1.035,1.272Zm0,0" transform="translate(-0.055 0)"/></svg>